SplineFontDB: 3.2
FontName: TTText-Regular
FullName: TT Text Regular
FamilyName: TT Text
Weight: Regular
Copyright: copyright missing
Version: 3.000;Glyphs 3.1.2 (3151)
ItalicAngle: 0
UnderlinePosition: -255
UnderlineWidth: 102
Ascent: 1614
Descent: 434
InvalidEm: 0
sfntRevision: 0x00030000
LayerCount: 2
Layer: 0 0 "Back" 1
Layer: 1 0 "Fore" 0
XUID: [1021 950 161365953 11544935]
StyleMap: 0x0040
FSType: 0
OS2Version: 3
OS2_WeightWidthSlopeOnly: 0
OS2_UseTypoMetrics: 0
CreationTime: 1676543964
PfmFamily: 81
TTFWeight: 400
TTFWidth: 5
LineGap: 0
VLineGap: 0
Panose: 0 0 0 0 0 0 0 0 0 0
OS2TypoAscent: 1614
OS2TypoAOffset: 0
OS2TypoDescent: -434
OS2TypoDOffset: 0
OS2TypoLinegap: 229
OS2WinAscent: 1864
OS2WinAOffset: 0
OS2WinDescent: 434
OS2WinDOffset: 0
HheadAscent: 1864
HheadAOffset: 0
HheadDescent: -434
HheadDOffset: 0
OS2SubXSize: 1331
OS2SubYSize: 1229
OS2SubXOff: 0
OS2SubYOff: 154
OS2SupXSize: 1331
OS2SupYSize: 1229
OS2SupXOff: 0
OS2SupYOff: 717
OS2StrikeYSize: 102
OS2StrikeYPos: 543
OS2CapHeight: 1444
OS2XHeight: 1083
OS2Vendor: 'UKWN'
OS2CodePages: 20000193.00000000
OS2UnicodeRanges: a100007f.4000a47b.00000000.00000000
Lookup: 1 0 0 "'aalt' Access All Alternates in Latin lookup 0" { "'aalt' Access All Alternates in Latin lookup 0 subtable"  } ['aalt' ('DFLT' <'dflt' > 'latn' <'AZE ' 'CAT ' 'CRT ' 'DEU ' 'KAZ ' 'MOL ' 'NLD ' 'ROM ' 'TAT ' 'TRK ' 'dflt' > ) ]
Lookup: 3 0 0 "'aalt' Access All Alternates in Latin lookup 1" { "'aalt' Access All Alternates in Latin lookup 1 subtable"  } ['aalt' ('DFLT' <'dflt' > 'latn' <'AZE ' 'CAT ' 'CRT ' 'DEU ' 'KAZ ' 'MOL ' 'NLD ' 'ROM ' 'TAT ' 'TRK ' 'dflt' > ) ]

StartChar: .notdef
Encoding: 65536 -1 0
Width: 2456
GlyphClass: 1
Flags: HW
LayerCount: 2
UndoRedoHistory
Layer: 1
Undoes
UndoOperation
Index: 0
Type: 1
WasModified: 0
WasOrder2: 0
Layer: 2
Width: 1228
VWidth: 2048
LBearingChange: 0
UnicodeEnc: 0
InstructionsLength: 0
EndUndoOperation
UndoOperation
Index: 1
Type: 3
WasModified: 0
WasOrder2: 0
Layer: 2
EndUndoOperation
EndUndoes
Redoes
EndRedoes
EndUndoRedoHistory
Fore
SplineSet
0 -820 m 1
 0 2888 l 1
 2458 2888 l 1
 2458 -820 l 1
 0 -820 l 1
164 -540 m 1
 1130 1036 l 1
 164 2610 l 1
 164 -540 l 1
290 -656 m 1
 2166 -656 l 1
 1228 872 l 1
 290 -656 l 1
290 2724 m 1
 1228 1196 l 1
 2166 2724 l 1
 290 2724 l 1
1328 1036 m 1
 2294 -540 l 1
 2294 2610 l 1
 1328 1036 l 1
EndSplineSet
EndChar

StartChar: exclam
Encoding: 33 33 3
Width: 1404
GlyphClass: 2
Flags: HW
LayerCount: 2
UndoRedoHistory
Layer: 1
Undoes
UndoOperation
Index: 0
Type: 1
WasModified: 0
WasOrder2: 0
Layer: 2
Width: 702
VWidth: 2048
LBearingChange: 0
UnicodeEnc: 0
InstructionsLength: 0
EndUndoOperation
UndoOperation
Index: 1
Type: 3
WasModified: 0
WasOrder2: 0
Layer: 2
EndUndoOperation
EndUndoes
Redoes
EndRedoes
EndUndoRedoHistory
Fore
SplineSet
520 880 m 1
 520 2888 l 1
 888 2888 l 1
 888 880 l 1
 520 880 l 1
426 254 m 0
 426 332 452 396 506 452 c 0
 560 504 624 532 700 532 c 0
 780 532 846 506 900 452 c 0
 952 398 978 332 978 254 c 0
 978 178 952 114 900 60 c 0
 846 6 780 -20 700 -20 c 0
 624 -20 560 6 506 60 c 0
 452 114 426 178 426 254 c 0
EndSplineSet
EndChar

StartChar: quotedbl
Encoding: 34 34 4
Width: 1846
GlyphClass: 2
Flags: HW
LayerCount: 2
UndoRedoHistory
Layer: 1
Undoes
UndoOperation
Index: 0
Type: 1
WasModified: 0
WasOrder2: 0
Layer: 2
Width: 923
VWidth: 2048
LBearingChange: 0
UnicodeEnc: 0
InstructionsLength: 0
EndUndoOperation
UndoOperation
Index: 1
Type: 3
WasModified: 0
WasOrder2: 0
Layer: 2
EndUndoOperation
EndUndoes
Redoes
EndRedoes
EndUndoRedoHistory
Fore
SplineSet
398 1826 m 1
 356 2958 l 1
 708 2958 l 1
 668 1826 l 1
 398 1826 l 1
1138 2958 m 1
 1490 2958 l 1
 1450 1826 l 1
 1180 1826 l 1
 1138 2958 l 1
EndSplineSet
EndChar

StartChar: numbersign
Encoding: 35 35 5
Width: 2780
GlyphClass: 2
Flags: HW
LayerCount: 2
UndoRedoHistory
Layer: 1
Undoes
UndoOperation
Index: 0
Type: 1
WasModified: 0
WasOrder2: 0
Layer: 2
Width: 1390
VWidth: 2048
LBearingChange: 0
UnicodeEnc: 0
InstructionsLength: 0
EndUndoOperation
UndoOperation
Index: 1
Type: 3
WasModified: 0
WasOrder2: 0
Layer: 2
EndUndoOperation
EndUndoes
Redoes
EndRedoes
EndUndoRedoHistory
Fore
SplineSet
1826 0 m 1
 1520 0 l 1
 1692 848 l 1
 864 848 l 1
 692 0 l 1
 390 0 l 1
 562 848 l 1
 74 848 l 1
 132 1114 l 1
 618 1114 l 1
 754 1794 l 1
 242 1794 l 1
 300 2056 l 1
 812 2056 l 1
 978 2888 l 1
 1282 2888 l 1
 1114 2056 l 1
 1942 2056 l 1
 2110 2888 l 1
 2416 2888 l 1
 2248 2056 l 1
 2708 2056 l 1
 2650 1794 l 1
 2192 1794 l 1
 2056 1114 l 1
 2552 1114 l 1
 2494 848 l 1
 1998 848 l 1
 1826 0 l 1
922 1114 m 1
 1748 1114 l 1
 1884 1794 l 1
 1056 1794 l 1
 922 1114 l 1
EndSplineSet
EndChar

StartChar: dollar
Encoding: 36 36 6
Width: 2392
GlyphClass: 2
Flags: HW
LayerCount: 2
UndoRedoHistory
Layer: 1
Undoes
UndoOperation
Index: 0
Type: 1
WasModified: 0
WasOrder2: 0
Layer: 2
Width: 1196
VWidth: 2048
LBearingChange: 0
UnicodeEnc: 0
InstructionsLength: 0
EndUndoOperation
UndoOperation
Index: 1
Type: 3
WasModified: 0
WasOrder2: 0
Layer: 2
EndUndoOperation
EndUndoes
Redoes
EndRedoes
EndUndoRedoHistory
Fore
SplineSet
1146 -376 m 1
 1146 0 l 1
 880 12 666 84 504 214 c 0
 340 344 234 530 184 770 c 1
 504 848 l 1
 582 510 796 326 1146 294 c 1
 1146 1388 l 1
 946 1450 l 2
 550 1576 352 1812 352 2158 c 0
 352 2364 424 2534 568 2664 c 0
 710 2794 904 2868 1146 2884 c 1
 1146 3264 l 1
 1388 3264 l 1
 1388 2880 l 1
 1598 2860 1772 2798 1912 2692 c 0
 2052 2588 2146 2448 2192 2274 c 1
 1884 2180 l 1
 1796 2414 1630 2550 1388 2592 c 1
 1388 1654 l 1
 1582 1590 l 2
 2000 1448 2208 1184 2208 802 c 0
 2208 578 2136 396 1988 256 c 0
 1844 116 1642 34 1388 8 c 1
 1388 -376 l 1
 1146 -376 l 1
692 2188 m 0
 692 2082 724 1994 788 1924 c 0
 854 1854 960 1794 1110 1744 c 2
 1146 1732 l 1
 1146 2600 l 1
 1002 2590 890 2548 812 2476 c 0
 732 2406 692 2310 692 2188 c 0
1388 300 m 1
 1542 316 1660 366 1744 448 c 0
 1826 530 1868 640 1868 774 c 0
 1868 908 1832 1016 1760 1100 c 0
 1686 1182 1572 1250 1414 1302 c 2
 1388 1310 l 1
 1388 300 l 1
EndSplineSet
Substitution2: "'tnum' Tabular Numbers in Latin lookup 21 subtable" dollar.tf
Substitution2: "'aalt' Access All Alternates in Latin lookup 0 subtable" dollar.tf
EndChar

StartChar: percent
Encoding: 37 37 7
Width: 3906
GlyphClass: 2
Flags: HW
LayerCount: 2
UndoRedoHistory
Layer: 1
Undoes
UndoOperation
Index: 0
Type: 1
WasModified: 0
WasOrder2: 0
Layer: 2
Width: 1953
VWidth: 2048
LBearingChange: 0
UnicodeEnc: 0
InstructionsLength: 0
EndUndoOperation
UndoOperation
Index: 1
Type: 3
WasModified: 0
WasOrder2: 0
Layer: 2
EndUndoOperation
EndUndoes
Redoes
EndRedoes
EndUndoRedoHistory
Fore
SplineSet
992 2920 m 0
 1196 2920 1358 2844 1476 2694 c 0
 1594 2544 1654 2344 1654 2094 c 0
 1654 1842 1594 1640 1476 1488 c 0
 1358 1338 1196 1262 992 1262 c 0
 790 1262 628 1338 508 1490 c 0
 388 1642 328 1844 328 2094 c 0
 328 2344 388 2544 508 2696 c 0
 626 2844 788 2920 992 2920 c 0
634 2094 m 0
 634 1910 668 1764 732 1656 c 0
 800 1550 886 1496 992 1496 c 0
 1098 1496 1184 1550 1250 1656 c 0
 1316 1764 1348 1910 1348 2094 c 0
 1348 2278 1316 2422 1252 2528 c 0
 1186 2634 1100 2686 992 2686 c 0
 886 2686 800 2632 732 2526 c 0
 668 2420 634 2276 634 2094 c 0
910 0 m 1
 2728 2888 l 1
 3040 2888 l 1
 1220 0 l 1
 910 0 l 1
2252 794 m 0
 2252 1044 2312 1246 2430 1396 c 0
 2548 1546 2710 1622 2912 1622 c 0
 3116 1622 3278 1546 3396 1396 c 0
 3516 1244 3576 1044 3576 794 c 0
 3576 542 3516 340 3396 190 c 0
 3278 40 3116 -36 2912 -36 c 0
 2710 -36 2548 40 2430 192 c 0
 2312 342 2252 544 2252 794 c 0
2556 794 m 0
 2556 610 2588 464 2654 356 c 0
 2720 250 2806 196 2912 196 c 0
 3020 196 3108 250 3172 356 c 0
 3240 464 3272 610 3272 794 c 0
 3272 978 3240 1124 3172 1228 c 0
 3108 1336 3020 1388 2912 1388 c 0
 2806 1388 2720 1334 2654 1228 c 0
 2588 1122 2556 976 2556 794 c 0
EndSplineSet
Substitution2: "'tnum' Tabular Numbers in Latin lookup 21 subtable" percent.tf
Substitution2: "'aalt' Access All Alternates in Latin lookup 0 subtable" percent.tf
EndChar

StartChar: ampersand
Encoding: 38 38 8
Width: 2990
GlyphClass: 2
Flags: HW
LayerCount: 2
UndoRedoHistory
Layer: 1
Undoes
UndoOperation
Index: 0
Type: 1
WasModified: 0
WasOrder2: 0
Layer: 2
Width: 1495
VWidth: 2048
LBearingChange: 0
UnicodeEnc: 0
InstructionsLength: 0
EndUndoOperation
UndoOperation
Index: 1
Type: 3
WasModified: 0
WasOrder2: 0
Layer: 2
EndUndoOperation
EndUndoes
Redoes
EndRedoes
EndUndoRedoHistory
Fore
SplineSet
1242 -70 m 0
 944 -70 704 4 526 152 c 0
 348 298 258 496 258 742 c 0
 258 1108 488 1384 950 1572 c 1
 696 1790 570 2034 570 2302 c 0
 570 2496 640 2652 782 2776 c 0
 924 2896 1106 2958 1332 2958 c 0
 1554 2958 1734 2896 1872 2772 c 0
 2010 2646 2080 2484 2080 2286 c 0
 2080 2128 2026 1988 1920 1864 c 0
 1812 1744 1650 1634 1434 1540 c 1
 2180 766 l 1
 2268 916 2342 1132 2404 1414 c 1
 2712 1332 l 1
 2640 1002 2530 742 2384 548 c 1
 2912 0 l 1
 2498 0 l 1
 2188 320 l 1
 2076 194 1940 98 1776 32 c 0
 1616 -36 1436 -70 1242 -70 c 0
606 770 m 0
 606 598 666 462 784 360 c 0
 902 258 1064 208 1266 208 c 0
 1568 208 1812 310 1998 512 c 1
 1122 1410 l 1
 942 1318 812 1222 728 1124 c 0
 648 1024 606 906 606 770 c 0
906 2294 m 0
 906 2196 934 2100 992 2008 c 0
 1048 1914 1142 1808 1274 1688 c 1
 1438 1778 1558 1870 1634 1964 c 0
 1710 2058 1748 2164 1748 2282 c 0
 1748 2408 1710 2508 1636 2580 c 0
 1562 2656 1462 2692 1336 2692 c 0
 1206 2692 1100 2656 1024 2584 c 0
 944 2512 906 2416 906 2294 c 0
EndSplineSet
EndChar

StartChar: quotesingle
Encoding: 39 39 9
Width: 1064
GlyphClass: 2
Flags: HW
LayerCount: 2
UndoRedoHistory
Layer: 1
Undoes
UndoOperation
Index: 0
Type: 1
WasModified: 0
WasOrder2: 0
Layer: 2
Width: 532
VWidth: 2048
LBearingChange: 0
UnicodeEnc: 0
InstructionsLength: 0
EndUndoOperation
UndoOperation
Index: 1
Type: 3
WasModified: 0
WasOrder2: 0
Layer: 2
EndUndoOperation
EndUndoes
Redoes
EndRedoes
EndUndoRedoHistory
Fore
SplineSet
398 1826 m 1
 356 2958 l 1
 708 2958 l 1
 668 1826 l 1
 398 1826 l 1
EndSplineSet
EndChar

StartChar: parenleft
Encoding: 40 40 10
Width: 1600
GlyphClass: 2
Flags: HW
LayerCount: 2
UndoRedoHistory
Layer: 1
Undoes
UndoOperation
Index: 0
Type: 1
WasModified: 0
WasOrder2: 0
Layer: 2
Width: 800
VWidth: 2048
LBearingChange: 0
UnicodeEnc: 0
InstructionsLength: 0
EndUndoOperation
UndoOperation
Index: 1
Type: 3
WasModified: 0
WasOrder2: 0
Layer: 2
EndUndoOperation
EndUndoes
Redoes
EndRedoes
EndUndoRedoHistory
Fore
SplineSet
446 1212 m 0
 446 1882 650 2506 1056 3080 c 1
 1364 3080 l 1
 990 2496 802 1874 802 1212 c 0
 802 550 990 -72 1364 -656 c 1
 1056 -656 l 1
 650 -82 446 542 446 1212 c 0
EndSplineSet
Substitution2: "'case' Case-Sensitive Forms in Latin lookup 23 subtable" parenleft.case
Substitution2: "'sups' Superscript in Latin lookup 13 subtable" uni207D
Substitution2: "'sinf' Scientific Inferiors in Latin lookup 12 subtable" uni208D
Substitution2: "'subs' Subscript in Latin lookup 11 subtable" uni208D
AlternateSubs2: "'aalt' Access All Alternates in Latin lookup 1 subtable" uni208D uni207D parenleft.case
EndChar

StartChar: parenright
Encoding: 41 41 11
Width: 1600
GlyphClass: 2
Flags: HW
LayerCount: 2
UndoRedoHistory
Layer: 1
Undoes
UndoOperation
Index: 0
Type: 1
WasModified: 0
WasOrder2: 0
Layer: 2
Width: 800
VWidth: 2048
LBearingChange: 0
UnicodeEnc: 0
InstructionsLength: 0
EndUndoOperation
UndoOperation
Index: 1
Type: 3
WasModified: 0
WasOrder2: 0
Layer: 2
EndUndoOperation
EndUndoes
Redoes
EndRedoes
EndUndoRedoHistory
Fore
SplineSet
1150 1212 m 0
 1150 538 948 -86 544 -656 c 1
 238 -656 l 1
 612 -74 798 550 798 1212 c 0
 798 1874 612 2498 238 3080 c 1
 544 3080 l 1
 948 2510 1150 1886 1150 1212 c 0
EndSplineSet
Substitution2: "'case' Case-Sensitive Forms in Latin lookup 23 subtable" parenright.case
Substitution2: "'sups' Superscript in Latin lookup 13 subtable" uni207E
Substitution2: "'sinf' Scientific Inferiors in Latin lookup 12 subtable" uni208E
Substitution2: "'subs' Subscript in Latin lookup 11 subtable" uni208E
AlternateSubs2: "'aalt' Access All Alternates in Latin lookup 1 subtable" uni208E uni207E parenright.case
EndChar

StartChar: asterisk
Encoding: 42 42 12
Width: 2034
GlyphClass: 2
Flags: HW
LayerCount: 2
UndoRedoHistory
Layer: 1
Undoes
UndoOperation
Index: 0
Type: 1
WasModified: 0
WasOrder2: 0
Layer: 2
Width: 1017
VWidth: 2048
LBearingChange: 0
UnicodeEnc: 0
InstructionsLength: 0
EndUndoOperation
UndoOperation
Index: 1
Type: 3
WasModified: 0
WasOrder2: 0
Layer: 2
EndUndoOperation
EndUndoes
Redoes
EndRedoes
EndUndoRedoHistory
Fore
SplineSet
880 2888 m 1
 1160 2888 l 1
 1130 2260 l 1
 1658 2596 l 1
 1798 2360 l 1
 1242 2068 l 1
 1798 1778 l 1
 1658 1540 l 1
 1130 1876 l 1
 1160 1250 l 1
 880 1250 l 1
 910 1876 l 1
 376 1540 l 1
 238 1778 l 1
 794 2068 l 1
 238 2360 l 1
 376 2596 l 1
 910 2260 l 1
 880 2888 l 1
EndSplineSet
EndChar

StartChar: plus
Encoding: 43 43 13
Width: 2784
GlyphClass: 2
Flags: HW
LayerCount: 2
UndoRedoHistory
Layer: 1
Undoes
UndoOperation
Index: 0
Type: 1
WasModified: 0
WasOrder2: 0
Layer: 2
Width: 1392
VWidth: 2048
LBearingChange: 0
UnicodeEnc: 0
InstructionsLength: 0
EndUndoOperation
UndoOperation
Index: 1
Type: 3
WasModified: 0
WasOrder2: 0
Layer: 2
EndUndoOperation
EndUndoes
Redoes
EndRedoes
EndUndoRedoHistory
Fore
SplineSet
2338 1258 m 1
 2338 966 l 1
 1540 966 l 1
 1540 148 l 1
 1246 148 l 1
 1246 966 l 1
 446 966 l 1
 446 1258 l 1
 1246 1258 l 1
 1246 2076 l 1
 1540 2076 l 1
 1540 1258 l 1
 2338 1258 l 1
EndSplineSet
Substitution2: "Single Substitution lookup 34 subtable" plus.case
Substitution2: "'case' Case-Sensitive Forms in Latin lookup 23 subtable" plus.case
Substitution2: "'sups' Superscript in Latin lookup 13 subtable" uni207A
Substitution2: "'sinf' Scientific Inferiors in Latin lookup 12 subtable" uni208A
Substitution2: "'subs' Subscript in Latin lookup 11 subtable" uni208A
AlternateSubs2: "'aalt' Access All Alternates in Latin lookup 1 subtable" uni208A uni207A plus.case
EndChar

StartChar: comma
Encoding: 44 44 14
Width: 1228
GlyphClass: 2
Flags: HW
LayerCount: 2
UndoRedoHistory
Layer: 1
Undoes
UndoOperation
Index: 0
Type: 1
WasModified: 0
WasOrder2: 0
Layer: 2
Width: 614
VWidth: 2048
LBearingChange: 0
UnicodeEnc: 0
InstructionsLength: 0
EndUndoOperation
UndoOperation
Index: 1
Type: 3
WasModified: 0
WasOrder2: 0
Layer: 2
EndUndoOperation
EndUndoes
Redoes
EndRedoes
EndUndoRedoHistory
Fore
SplineSet
290 -762 m 1
 552 422 l 1
 930 422 l 1
 562 -762 l 1
 290 -762 l 1
EndSplineSet
EndChar

StartChar: hyphen
Encoding: 45 45 15
Width: 1830
GlyphClass: 2
Flags: HW
LayerCount: 2
UndoRedoHistory
Layer: 1
Undoes
UndoOperation
Index: 0
Type: 1
WasModified: 0
WasOrder2: 0
Layer: 2
Width: 915
VWidth: 2048
LBearingChange: 0
UnicodeEnc: 0
InstructionsLength: 0
EndUndoOperation
UndoOperation
Index: 1
Type: 3
WasModified: 0
WasOrder2: 0
Layer: 2
EndUndoOperation
EndUndoes
Redoes
EndRedoes
EndUndoRedoHistory
Fore
SplineSet
316 1032 m 1
 316 1336 l 1
 1516 1336 l 1
 1516 1032 l 1
 316 1032 l 1
EndSplineSet
Substitution2: "'case' Case-Sensitive Forms in Latin lookup 23 subtable" hyphen.case
Substitution2: "'aalt' Access All Alternates in Latin lookup 0 subtable" hyphen.case
EndChar

StartChar: period
Encoding: 46 46 16
Width: 1224
GlyphClass: 2
Flags: HW
LayerCount: 2
UndoRedoHistory
Layer: 1
Undoes
UndoOperation
Index: 0
Type: 1
WasModified: 0
WasOrder2: 0
Layer: 2
Width: 612
VWidth: 2048
LBearingChange: 0
UnicodeEnc: 0
InstructionsLength: 0
EndUndoOperation
UndoOperation
Index: 1
Type: 3
WasModified: 0
WasOrder2: 0
Layer: 2
EndUndoOperation
EndUndoes
Redoes
EndRedoes
EndUndoRedoHistory
Fore
SplineSet
610 -20 m 0
 540 -20 480 6 432 56 c 0
 380 106 356 168 356 238 c 0
 356 308 380 370 432 420 c 0
 480 470 540 496 610 496 c 0
 684 496 744 470 794 420 c 0
 844 370 868 308 868 238 c 0
 868 168 844 106 794 56 c 0
 744 6 684 -20 610 -20 c 0
EndSplineSet
EndChar

StartChar: slash
Encoding: 47 47 17
Width: 1448
GlyphClass: 2
Flags: HW
LayerCount: 2
UndoRedoHistory
Layer: 1
Undoes
UndoOperation
Index: 0
Type: 1
WasModified: 0
WasOrder2: 0
Layer: 2
Width: 724
VWidth: 2048
LBearingChange: 0
UnicodeEnc: 0
InstructionsLength: 0
EndUndoOperation
UndoOperation
Index: 1
Type: 3
WasModified: 0
WasOrder2: 0
Layer: 2
EndUndoOperation
EndUndoes
Redoes
EndRedoes
EndUndoRedoHistory
Fore
SplineSet
70 -492 m 1
 1044 2958 l 1
 1380 2958 l 1
 406 -492 l 1
 70 -492 l 1
EndSplineSet
Substitution2: "'case' Case-Sensitive Forms in Latin lookup 23 subtable" slash.case
Substitution2: "'frac' Diagonal Fractions in Latin lookup 16 subtable" fraction
AlternateSubs2: "'aalt' Access All Alternates in Latin lookup 1 subtable" fraction slash.case
EndChar

StartChar: zero
Encoding: 48 48 18
Width: 2580
GlyphClass: 2
Flags: HW
LayerCount: 2
UndoRedoHistory
Layer: 1
Undoes
UndoOperation
Index: 0
Type: 1
WasModified: 0
WasOrder2: 0
Layer: 2
Width: 1290
VWidth: 2048
LBearingChange: 0
UnicodeEnc: 0
InstructionsLength: 0
EndUndoOperation
UndoOperation
Index: 1
Type: 3
WasModified: 0
WasOrder2: 0
Layer: 2
EndUndoOperation
EndUndoes
Redoes
EndRedoes
EndUndoRedoHistory
Fore
SplineSet
1290 2950 m 0
 1500 2950 1684 2888 1844 2764 c 0
 2000 2638 2122 2462 2208 2236 c 0
 2292 2008 2334 1744 2334 1442 c 0
 2334 1140 2292 876 2208 648 c 0
 2122 422 2000 246 1844 120 c 0
 1684 -4 1500 -66 1290 -66 c 0
 974 -66 720 72 532 346 c 0
 340 620 246 986 246 1442 c 0
 246 1898 340 2264 532 2538 c 0
 720 2812 974 2950 1290 2950 c 0
614 1442 m 0
 614 1082 676 792 802 572 c 0
 928 352 1090 242 1290 242 c 0
 1492 242 1654 352 1780 572 c 0
 1904 790 1966 1080 1966 1442 c 0
 1966 1804 1904 2094 1780 2312 c 0
 1654 2532 1492 2642 1290 2642 c 0
 1090 2642 928 2532 802 2312 c 0
 676 2092 614 1802 614 1442 c 0
EndSplineSet
Substitution2: "'ss04' Style Set 4 in Latin lookup 28 subtable" zero.ss01
Substitution2: "'ss01' Style Set 1 in Latin lookup 25 subtable" zero.ss01
Substitution2: "'zero' Slashed Zero in Latin lookup 24 subtable" zero.zero
Substitution2: "'tnum' Tabular Numbers in Latin lookup 21 subtable" zero.tf
Substitution2: "'frac' Diagonal Fractions in Latin lookup 17 subtable" zero.numr
Substitution2: "'dnom' Denominators in Latin lookup 15 subtable" zero.dnom
Substitution2: "'numr' Numerators in Latin lookup 14 subtable" zero.numr
Substitution2: "'sups' Superscript in Latin lookup 13 subtable" uni2070
Substitution2: "'sinf' Scientific Inferiors in Latin lookup 12 subtable" uni2080
Substitution2: "'subs' Subscript in Latin lookup 11 subtable" uni2080
AlternateSubs2: "'aalt' Access All Alternates in Latin lookup 1 subtable" uni2080 uni2070 zero.numr zero.dnom zero.tf zero.zero zero.ss01
EndChar

StartChar: one
Encoding: 49 49 19
Width: 1834
GlyphClass: 2
Flags: HW
LayerCount: 2
UndoRedoHistory
Layer: 1
Undoes
UndoOperation
Index: 0
Type: 1
WasModified: 0
WasOrder2: 0
Layer: 2
Width: 917
VWidth: 2048
LBearingChange: 0
UnicodeEnc: 0
InstructionsLength: 0
EndUndoOperation
UndoOperation
Index: 1
Type: 3
WasModified: 0
WasOrder2: 0
Layer: 2
EndUndoOperation
EndUndoes
Redoes
EndRedoes
EndUndoRedoHistory
Fore
SplineSet
958 0 m 1
 958 2572 l 1
 938 2572 l 1
 156 1848 l 1
 156 2248 l 1
 860 2888 l 1
 1314 2888 l 1
 1314 0 l 1
 958 0 l 1
EndSplineSet
Substitution2: "'tnum' Tabular Numbers in Latin lookup 21 subtable" one.tf
Substitution2: "'frac' Diagonal Fractions in Latin lookup 17 subtable" one.numr
Substitution2: "'dnom' Denominators in Latin lookup 15 subtable" one.dnom
Substitution2: "'numr' Numerators in Latin lookup 14 subtable" one.numr
Substitution2: "'sups' Superscript in Latin lookup 13 subtable" uni00B9
Substitution2: "'sinf' Scientific Inferiors in Latin lookup 12 subtable" uni2081
Substitution2: "'subs' Subscript in Latin lookup 11 subtable" uni2081
AlternateSubs2: "'aalt' Access All Alternates in Latin lookup 1 subtable" uni2081 uni00B9 one.numr one.dnom one.tf
EndChar

StartChar: two
Encoding: 50 50 20
Width: 2486
GlyphClass: 2
Flags: HW
LayerCount: 2
UndoRedoHistory
Layer: 1
Undoes
UndoOperation
Index: 0
Type: 1
WasModified: 0
WasOrder2: 0
Layer: 2
Width: 1243
VWidth: 2048
LBearingChange: 0
UnicodeEnc: 0
InstructionsLength: 0
EndUndoOperation
UndoOperation
Index: 1
Type: 3
WasModified: 0
WasOrder2: 0
Layer: 2
EndUndoOperation
EndUndoes
Redoes
EndRedoes
EndUndoRedoHistory
Fore
SplineSet
308 0 m 1
 308 394 l 1
 1298 1290 l 2
 1476 1454 1600 1598 1672 1722 c 0
 1742 1846 1778 1976 1778 2110 c 0
 1778 2274 1728 2404 1628 2500 c 0
 1530 2598 1392 2646 1216 2646 c 0
 1042 2646 900 2596 788 2496 c 0
 674 2394 600 2250 562 2064 c 1
 226 2126 l 1
 266 2384 372 2586 548 2732 c 0
 720 2880 946 2954 1224 2954 c 0
 1514 2954 1740 2880 1904 2736 c 0
 2064 2588 2146 2384 2146 2122 c 0
 2146 1948 2096 1780 1996 1616 c 0
 1894 1450 1734 1268 1512 1070 c 2
 700 344 l 1
 700 324 l 1
 2294 324 l 1
 2294 0 l 1
 308 0 l 1
EndSplineSet
Substitution2: "'tnum' Tabular Numbers in Latin lookup 21 subtable" two.tf
Substitution2: "'frac' Diagonal Fractions in Latin lookup 17 subtable" two.numr
Substitution2: "'dnom' Denominators in Latin lookup 15 subtable" two.dnom
Substitution2: "'numr' Numerators in Latin lookup 14 subtable" two.numr
Substitution2: "'sups' Superscript in Latin lookup 13 subtable" uni00B2
Substitution2: "'sinf' Scientific Inferiors in Latin lookup 12 subtable" uni2082
Substitution2: "'subs' Subscript in Latin lookup 11 subtable" uni2082
AlternateSubs2: "'aalt' Access All Alternates in Latin lookup 1 subtable" uni2082 uni00B2 two.numr two.dnom two.tf
EndChar

StartChar: three
Encoding: 51 51 21
Width: 2542
GlyphClass: 2
Flags: HW
LayerCount: 2
UndoRedoHistory
Layer: 1
Undoes
UndoOperation
Index: 0
Type: 1
WasModified: 0
WasOrder2: 0
Layer: 2
Width: 1271
VWidth: 2048
LBearingChange: 0
UnicodeEnc: 0
InstructionsLength: 0
EndUndoOperation
UndoOperation
Index: 1
Type: 3
WasModified: 0
WasOrder2: 0
Layer: 2
EndUndoOperation
EndUndoes
Redoes
EndRedoes
EndUndoRedoHistory
Fore
SplineSet
1246 -70 m 0
 964 -70 732 -8 548 114 c 0
 362 236 234 422 160 672 c 1
 488 786 l 1
 582 420 836 238 1250 238 c 0
 1454 238 1614 296 1728 416 c 0
 1842 532 1900 682 1900 864 c 0
 1900 1050 1838 1192 1714 1292 c 0
 1590 1388 1418 1438 1196 1438 c 2
 864 1438 l 1
 864 1724 l 1
 1754 2556 l 1
 1754 2572 l 1
 332 2572 l 1
 332 2888 l 1
 2138 2888 l 1
 2138 2528 l 1
 1270 1732 l 1
 1270 1712 l 1
 1590 1712 1836 1636 2008 1484 c 0
 2180 1334 2266 1126 2266 860 c 0
 2266 584 2172 360 1986 188 c 0
 1800 16 1552 -70 1246 -70 c 0
EndSplineSet
Substitution2: "'tnum' Tabular Numbers in Latin lookup 21 subtable" three.tf
Substitution2: "'frac' Diagonal Fractions in Latin lookup 17 subtable" three.numr
Substitution2: "'dnom' Denominators in Latin lookup 15 subtable" three.dnom
Substitution2: "'numr' Numerators in Latin lookup 14 subtable" three.numr
Substitution2: "'sups' Superscript in Latin lookup 13 subtable" uni00B3
Substitution2: "'sinf' Scientific Inferiors in Latin lookup 12 subtable" uni2083
Substitution2: "'subs' Subscript in Latin lookup 11 subtable" uni2083
AlternateSubs2: "'aalt' Access All Alternates in Latin lookup 1 subtable" uni2083 uni00B3 three.numr three.dnom three.tf
EndChar

StartChar: four
Encoding: 52 52 22
Width: 2722
GlyphClass: 2
Flags: HW
LayerCount: 2
UndoRedoHistory
Layer: 1
Undoes
UndoOperation
Index: 0
Type: 1
WasModified: 0
WasOrder2: 0
Layer: 2
Width: 1361
VWidth: 2048
LBearingChange: 0
UnicodeEnc: 0
InstructionsLength: 0
EndUndoOperation
UndoOperation
Index: 1
Type: 3
WasModified: 0
WasOrder2: 0
Layer: 2
EndUndoOperation
EndUndoes
Redoes
EndRedoes
EndUndoRedoHistory
Fore
SplineSet
1712 0 m 1
 1712 692 l 1
 208 692 l 1
 208 1032 l 1
 1602 2888 l 1
 2076 2888 l 1
 2076 996 l 1
 2506 996 l 1
 2506 692 l 1
 2076 692 l 1
 2076 0 l 1
 1712 0 l 1
540 992 m 1
 1728 992 l 1
 1728 2560 l 1
 1708 2560 l 1
 540 1008 l 1
 540 992 l 1
EndSplineSet
Substitution2: "'tnum' Tabular Numbers in Latin lookup 21 subtable" four.tf
Substitution2: "'frac' Diagonal Fractions in Latin lookup 17 subtable" four.numr
Substitution2: "'dnom' Denominators in Latin lookup 15 subtable" four.dnom
Substitution2: "'numr' Numerators in Latin lookup 14 subtable" four.numr
Substitution2: "'sups' Superscript in Latin lookup 13 subtable" uni2074
Substitution2: "'sinf' Scientific Inferiors in Latin lookup 12 subtable" uni2084
Substitution2: "'subs' Subscript in Latin lookup 11 subtable" uni2084
AlternateSubs2: "'aalt' Access All Alternates in Latin lookup 1 subtable" uni2084 uni2074 four.numr four.dnom four.tf
EndChar

StartChar: five
Encoding: 53 53 23
Width: 2416
GlyphClass: 2
Flags: HW
LayerCount: 2
UndoRedoHistory
Layer: 1
Undoes
UndoOperation
Index: 0
Type: 1
WasModified: 0
WasOrder2: 0
Layer: 2
Width: 1208
VWidth: 2048
LBearingChange: 0
UnicodeEnc: 0
InstructionsLength: 0
EndUndoOperation
UndoOperation
Index: 1
Type: 3
WasModified: 0
WasOrder2: 0
Layer: 2
EndUndoOperation
EndUndoes
Redoes
EndRedoes
EndUndoRedoHistory
Fore
SplineSet
1176 -70 m 0
 634 -70 290 174 144 664 c 1
 462 774 l 1
 524 588 614 452 732 368 c 0
 848 280 998 238 1180 238 c 0
 1370 238 1520 296 1632 408 c 0
 1746 524 1802 674 1802 860 c 0
 1802 1058 1738 1212 1610 1320 c 0
 1482 1432 1298 1486 1056 1486 c 2
 376 1486 l 1
 462 2888 l 1
 2102 2888 l 1
 2102 2572 l 1
 754 2572 l 1
 704 1782 l 1
 1098 1782 l 2
 1432 1782 1694 1702 1880 1542 c 0
 2068 1382 2162 1160 2162 876 c 0
 2162 584 2074 354 1896 184 c 0
 1720 14 1480 -70 1176 -70 c 0
EndSplineSet
Substitution2: "'tnum' Tabular Numbers in Latin lookup 21 subtable" five.tf
Substitution2: "'frac' Diagonal Fractions in Latin lookup 17 subtable" five.numr
Substitution2: "'dnom' Denominators in Latin lookup 15 subtable" five.dnom
Substitution2: "'numr' Numerators in Latin lookup 14 subtable" five.numr
Substitution2: "'sups' Superscript in Latin lookup 13 subtable" uni2075
Substitution2: "'sinf' Scientific Inferiors in Latin lookup 12 subtable" uni2085
Substitution2: "'subs' Subscript in Latin lookup 11 subtable" uni2085
AlternateSubs2: "'aalt' Access All Alternates in Latin lookup 1 subtable" uni2085 uni2075 five.numr five.dnom five.tf
EndChar

StartChar: six
Encoding: 54 54 24
Width: 2478
GlyphClass: 2
Flags: HW
LayerCount: 2
UndoRedoHistory
Layer: 1
Undoes
UndoOperation
Index: 0
Type: 1
WasModified: 0
WasOrder2: 0
Layer: 2
Width: 1239
VWidth: 2048
LBearingChange: 0
UnicodeEnc: 0
InstructionsLength: 0
EndUndoOperation
UndoOperation
Index: 1
Type: 3
WasModified: 0
WasOrder2: 0
Layer: 2
EndUndoOperation
EndUndoes
Redoes
EndRedoes
EndUndoRedoHistory
Fore
SplineSet
1236 -66 m 0
 936 -66 688 28 496 214 c 0
 300 400 204 642 204 938 c 0
 204 1172 256 1396 358 1614 c 0
 460 1832 624 2064 848 2314 c 2
 1376 2888 l 1
 1836 2888 l 1
 1216 2244 l 2
 1050 2072 928 1936 848 1834 c 0
 768 1732 702 1636 648 1544 c 1
 668 1544 l 1
 758 1652 856 1734 960 1788 c 0
 1068 1844 1190 1872 1328 1872 c 0
 1612 1872 1840 1786 2012 1614 c 0
 2184 1442 2270 1214 2270 930 c 0
 2270 640 2172 400 1978 214 c 0
 1784 28 1536 -66 1236 -66 c 0
566 910 m 0
 566 714 630 552 756 428 c 0
 882 300 1042 238 1236 238 c 0
 1430 238 1588 300 1716 428 c 0
 1840 552 1904 714 1904 910 c 0
 1904 1104 1840 1264 1716 1388 c 0
 1588 1514 1430 1576 1236 1576 c 0
 1042 1576 880 1514 756 1388 c 0
 628 1264 566 1104 566 910 c 0
EndSplineSet
Substitution2: "'tnum' Tabular Numbers in Latin lookup 21 subtable" six.tf
Substitution2: "'frac' Diagonal Fractions in Latin lookup 17 subtable" six.numr
Substitution2: "'dnom' Denominators in Latin lookup 15 subtable" six.dnom
Substitution2: "'numr' Numerators in Latin lookup 14 subtable" six.numr
Substitution2: "'sups' Superscript in Latin lookup 13 subtable" uni2076
Substitution2: "'sinf' Scientific Inferiors in Latin lookup 12 subtable" uni2086
Substitution2: "'subs' Subscript in Latin lookup 11 subtable" uni2086
AlternateSubs2: "'aalt' Access All Alternates in Latin lookup 1 subtable" uni2086 uni2076 six.numr six.dnom six.tf
EndChar

StartChar: seven
Encoding: 55 55 25
Width: 2162
GlyphClass: 2
Flags: HW
LayerCount: 2
UndoRedoHistory
Layer: 1
Undoes
UndoOperation
Index: 0
Type: 1
WasModified: 0
WasOrder2: 0
Layer: 2
Width: 1081
VWidth: 2048
LBearingChange: 0
UnicodeEnc: 0
InstructionsLength: 0
EndUndoOperation
UndoOperation
Index: 1
Type: 3
WasModified: 0
WasOrder2: 0
Layer: 2
EndUndoOperation
EndUndoes
Redoes
EndRedoes
EndUndoRedoHistory
Fore
SplineSet
360 0 m 1
 1688 2572 l 1
 152 2572 l 1
 152 2888 l 1
 2016 2888 l 1
 2016 2506 l 1
 742 0 l 1
 360 0 l 1
EndSplineSet
Substitution2: "'tnum' Tabular Numbers in Latin lookup 21 subtable" seven.tf
Substitution2: "'frac' Diagonal Fractions in Latin lookup 17 subtable" seven.numr
Substitution2: "'dnom' Denominators in Latin lookup 15 subtable" seven.dnom
Substitution2: "'numr' Numerators in Latin lookup 14 subtable" seven.numr
Substitution2: "'sups' Superscript in Latin lookup 13 subtable" uni2077
Substitution2: "'sinf' Scientific Inferiors in Latin lookup 12 subtable" uni2087
Substitution2: "'subs' Subscript in Latin lookup 11 subtable" uni2087
AlternateSubs2: "'aalt' Access All Alternates in Latin lookup 1 subtable" uni2087 uni2077 seven.numr seven.dnom seven.tf
EndChar

StartChar: eight
Encoding: 56 56 26
Width: 2612
GlyphClass: 2
Flags: HW
LayerCount: 2
UndoRedoHistory
Layer: 1
Undoes
UndoOperation
Index: 0
Type: 1
WasModified: 0
WasOrder2: 0
Layer: 2
Width: 1306
VWidth: 2048
LBearingChange: 0
UnicodeEnc: 0
InstructionsLength: 0
EndUndoOperation
UndoOperation
Index: 1
Type: 3
WasModified: 0
WasOrder2: 0
Layer: 2
EndUndoOperation
EndUndoes
Redoes
EndRedoes
EndUndoRedoHistory
Fore
SplineSet
1306 -70 m 0
 990 -70 734 10 540 168 c 0
 344 328 246 536 246 794 c 0
 246 986 306 1150 426 1286 c 0
 546 1422 692 1506 864 1536 c 1
 864 1552 l 1
 732 1572 616 1642 520 1764 c 0
 420 1886 372 2024 372 2180 c 0
 372 2408 458 2594 632 2738 c 0
 806 2882 1030 2954 1306 2954 c 0
 1582 2954 1806 2882 1980 2738 c 0
 2154 2594 2240 2408 2240 2180 c 0
 2240 2022 2192 1884 2096 1764 c 0
 2000 1642 1886 1572 1754 1552 c 1
 1754 1536 l 1
 1924 1506 2070 1422 2188 1286 c 0
 2308 1150 2368 986 2368 794 c 0
 2368 536 2270 328 2074 168 c 0
 1878 10 1622 -70 1306 -70 c 0
618 806 m 0
 618 634 680 496 808 388 c 0
 932 284 1100 230 1306 230 c 0
 1512 230 1680 284 1808 388 c 0
 1934 496 1998 634 1998 806 c 0
 1998 982 1934 1124 1808 1228 c 0
 1682 1336 1514 1388 1306 1388 c 0
 1100 1388 932 1336 808 1228 c 0
 680 1124 618 982 618 806 c 0
730 2166 m 0
 730 2016 782 1894 888 1800 c 0
 994 1708 1132 1662 1306 1662 c 0
 1480 1662 1620 1708 1728 1800 c 0
 1834 1894 1888 2016 1888 2166 c 0
 1888 2312 1834 2432 1728 2522 c 0
 1620 2612 1480 2658 1306 2658 c 0
 1132 2658 994 2612 888 2524 c 0
 782 2432 730 2314 730 2166 c 0
EndSplineSet
Substitution2: "'tnum' Tabular Numbers in Latin lookup 21 subtable" eight.tf
Substitution2: "'frac' Diagonal Fractions in Latin lookup 17 subtable" eight.numr
Substitution2: "'dnom' Denominators in Latin lookup 15 subtable" eight.dnom
Substitution2: "'numr' Numerators in Latin lookup 14 subtable" eight.numr
Substitution2: "'sups' Superscript in Latin lookup 13 subtable" uni2078
Substitution2: "'sinf' Scientific Inferiors in Latin lookup 12 subtable" uni2088
Substitution2: "'subs' Subscript in Latin lookup 11 subtable" uni2088
AlternateSubs2: "'aalt' Access All Alternates in Latin lookup 1 subtable" uni2088 uni2078 eight.numr eight.dnom eight.tf
EndChar

StartChar: nine
Encoding: 57 57 27
Width: 2478
GlyphClass: 2
Flags: HW
LayerCount: 2
UndoRedoHistory
Layer: 1
Undoes
UndoOperation
Index: 0
Type: 1
WasModified: 0
WasOrder2: 0
Layer: 2
Width: 1239
VWidth: 2048
LBearingChange: 0
UnicodeEnc: 0
InstructionsLength: 0
EndUndoOperation
UndoOperation
Index: 1
Type: 3
WasModified: 0
WasOrder2: 0
Layer: 2
EndUndoOperation
EndUndoes
Redoes
EndRedoes
EndUndoRedoHistory
Fore
SplineSet
1262 644 m 2
 1424 814 1546 950 1626 1052 c 0
 1706 1152 1772 1250 1826 1344 c 1
 1806 1344 l 1
 1630 1126 1410 1016 1146 1016 c 0
 864 1016 638 1102 466 1274 c 0
 294 1446 208 1674 208 1958 c 0
 208 2248 304 2488 498 2674 c 0
 692 2860 938 2954 1236 2954 c 0
 1538 2954 1788 2860 1982 2674 c 0
 2176 2488 2274 2246 2274 1950 c 0
 2274 1718 2222 1494 2120 1276 c 0
 2016 1058 1852 824 1630 574 c 2
 1102 0 l 1
 638 0 l 1
 1262 644 l 2
574 1978 m 0
 574 1784 636 1624 764 1498 c 0
 888 1372 1048 1310 1242 1310 c 0
 1436 1310 1596 1372 1722 1498 c 0
 1848 1624 1912 1784 1912 1978 c 0
 1912 2174 1848 2336 1722 2460 c 0
 1596 2588 1436 2650 1242 2650 c 0
 1048 2650 888 2588 762 2462 c 0
 636 2336 574 2176 574 1978 c 0
EndSplineSet
Substitution2: "'tnum' Tabular Numbers in Latin lookup 21 subtable" nine.tf
Substitution2: "'frac' Diagonal Fractions in Latin lookup 17 subtable" nine.numr
Substitution2: "'dnom' Denominators in Latin lookup 15 subtable" nine.dnom
Substitution2: "'numr' Numerators in Latin lookup 14 subtable" nine.numr
Substitution2: "'sups' Superscript in Latin lookup 13 subtable" uni2079
Substitution2: "'sinf' Scientific Inferiors in Latin lookup 12 subtable" uni2089
Substitution2: "'subs' Subscript in Latin lookup 11 subtable" uni2089
AlternateSubs2: "'aalt' Access All Alternates in Latin lookup 1 subtable" uni2089 uni2079 nine.numr nine.dnom nine.tf
EndChar

StartChar: colon
Encoding: 58 58 28
Width: 1224
GlyphClass: 2
Flags: HW
LayerCount: 2
UndoRedoHistory
Layer: 1
Undoes
UndoOperation
Index: 0
Type: 1
WasModified: 0
WasOrder2: 0
Layer: 2
Width: 612
VWidth: 2048
LBearingChange: 0
UnicodeEnc: 0
InstructionsLength: 0
EndUndoOperation
UndoOperation
Index: 1
Type: 3
WasModified: 0
WasOrder2: 0
Layer: 2
EndUndoOperation
EndUndoes
Redoes
EndRedoes
EndUndoRedoHistory
Fore
SplineSet
610 -20 m 0
 540 -20 480 6 432 56 c 0
 380 106 356 168 356 238 c 0
 356 308 380 370 432 420 c 0
 480 470 540 496 610 496 c 0
 684 496 744 470 794 420 c 0
 844 370 868 308 868 238 c 0
 868 168 844 106 794 56 c 0
 744 6 684 -20 610 -20 c 0
356 1672 m 0
 356 1740 380 1800 432 1850 c 0
 480 1900 540 1926 610 1926 c 0
 684 1926 744 1900 794 1852 c 0
 844 1800 868 1742 868 1672 c 0
 868 1602 844 1540 794 1490 c 0
 744 1440 684 1414 610 1414 c 0
 540 1414 480 1440 432 1490 c 0
 380 1540 356 1602 356 1672 c 0
EndSplineSet
Substitution2: "Single Substitution lookup 34 subtable" colon.calt
Substitution2: "'case' Case-Sensitive Forms in Latin lookup 23 subtable" colon.case
AlternateSubs2: "'aalt' Access All Alternates in Latin lookup 1 subtable" colon.calt colon.case
EndChar

StartChar: semicolon
Encoding: 59 59 29
Width: 1384
GlyphClass: 2
Flags: HW
LayerCount: 2
UndoRedoHistory
Layer: 1
Undoes
UndoOperation
Index: 0
Type: 1
WasModified: 0
WasOrder2: 0
Layer: 2
Width: 692
VWidth: 2048
LBearingChange: 0
UnicodeEnc: 0
InstructionsLength: 0
EndUndoOperation
UndoOperation
Index: 1
Type: 3
WasModified: 0
WasOrder2: 0
Layer: 2
EndUndoOperation
EndUndoes
Redoes
EndRedoes
EndUndoRedoHistory
Fore
SplineSet
290 -762 m 1
 552 422 l 1
 922 422 l 1
 548 -762 l 1
 290 -762 l 1
512 1672 m 0
 512 1740 538 1800 588 1850 c 0
 640 1900 700 1926 770 1926 c 0
 840 1926 902 1900 952 1852 c 0
 1002 1800 1028 1742 1028 1672 c 0
 1028 1602 1004 1540 952 1490 c 0
 904 1440 842 1414 770 1414 c 0
 700 1414 638 1440 588 1492 c 0
 538 1542 512 1602 512 1672 c 0
EndSplineSet
Substitution2: "'case' Case-Sensitive Forms in Latin lookup 23 subtable" semicolon.case
Substitution2: "'aalt' Access All Alternates in Latin lookup 0 subtable" semicolon.case
EndChar

StartChar: less
Encoding: 60 60 30
Width: 2784
GlyphClass: 2
Flags: HW
LayerCount: 2
UndoRedoHistory
Layer: 1
Undoes
UndoOperation
Index: 0
Type: 1
WasModified: 0
WasOrder2: 0
Layer: 2
Width: 1392
VWidth: 2048
LBearingChange: 0
UnicodeEnc: 0
InstructionsLength: 0
EndUndoOperation
UndoOperation
Index: 1
Type: 3
WasModified: 0
WasOrder2: 0
Layer: 2
EndUndoOperation
EndUndoes
Redoes
EndRedoes
EndUndoRedoHistory
Fore
SplineSet
446 954 m 1
 446 1318 l 1
 2338 2208 l 1
 2338 1868 l 1
 742 1138 l 1
 2338 406 l 1
 2338 66 l 1
 446 954 l 1
EndSplineSet
Substitution2: "Single Substitution lookup 34 subtable" less.case
Substitution2: "'case' Case-Sensitive Forms in Latin lookup 23 subtable" less.case
Substitution2: "'aalt' Access All Alternates in Latin lookup 0 subtable" less.case
EndChar

StartChar: equal
Encoding: 61 61 31
Width: 2784
GlyphClass: 2
Flags: HW
LayerCount: 2
UndoRedoHistory
Layer: 1
Undoes
UndoOperation
Index: 0
Type: 1
WasModified: 0
WasOrder2: 0
Layer: 2
Width: 1392
VWidth: 2048
LBearingChange: 0
UnicodeEnc: 0
InstructionsLength: 0
EndUndoOperation
UndoOperation
Index: 1
Type: 3
WasModified: 0
WasOrder2: 0
Layer: 2
EndUndoOperation
EndUndoes
Redoes
EndRedoes
EndUndoRedoHistory
Fore
SplineSet
2338 1712 m 1
 2338 1414 l 1
 446 1414 l 1
 446 1712 l 1
 2338 1712 l 1
446 512 m 1
 446 812 l 1
 2338 812 l 1
 2338 512 l 1
 446 512 l 1
EndSplineSet
Substitution2: "Single Substitution lookup 34 subtable" equal.case
Substitution2: "'case' Case-Sensitive Forms in Latin lookup 23 subtable" equal.case
Substitution2: "'aalt' Access All Alternates in Latin lookup 0 subtable" equal.case
EndChar

StartChar: greater
Encoding: 62 62 32
Width: 2784
GlyphClass: 2
Flags: HW
LayerCount: 2
UndoRedoHistory
Layer: 1
Undoes
UndoOperation
Index: 0
Type: 1
WasModified: 0
WasOrder2: 0
Layer: 2
Width: 1392
VWidth: 2048
LBearingChange: 0
UnicodeEnc: 0
InstructionsLength: 0
EndUndoOperation
UndoOperation
Index: 1
Type: 3
WasModified: 0
WasOrder2: 0
Layer: 2
EndUndoOperation
EndUndoes
Redoes
EndRedoes
EndUndoRedoHistory
Fore
SplineSet
446 66 m 1
 446 406 l 1
 2044 1138 l 1
 446 1868 l 1
 446 2208 l 1
 2338 1318 l 1
 2338 954 l 1
 446 66 l 1
EndSplineSet
Substitution2: "Single Substitution lookup 34 subtable" greater.case
Substitution2: "'case' Case-Sensitive Forms in Latin lookup 23 subtable" greater.case
Substitution2: "'aalt' Access All Alternates in Latin lookup 0 subtable" greater.case
EndChar

StartChar: question
Encoding: 63 63 33
Width: 2334
GlyphClass: 2
Flags: HW
LayerCount: 2
UndoRedoHistory
Layer: 1
Undoes
UndoOperation
Index: 0
Type: 1
WasModified: 0
WasOrder2: 0
Layer: 2
Width: 1167
VWidth: 2048
LBearingChange: 0
UnicodeEnc: 0
InstructionsLength: 0
EndUndoOperation
UndoOperation
Index: 1
Type: 3
WasModified: 0
WasOrder2: 0
Layer: 2
EndUndoOperation
EndUndoes
Redoes
EndRedoes
EndUndoRedoHistory
Fore
SplineSet
922 876 m 1
 922 1576 l 1
 1134 1598 l 2
 1314 1616 1454 1672 1556 1764 c 0
 1658 1860 1708 1980 1708 2126 c 0
 1708 2286 1656 2414 1556 2508 c 0
 1452 2602 1316 2650 1142 2650 c 0
 792 2650 582 2480 512 2138 c 1
 164 2208 l 1
 210 2452 322 2638 496 2766 c 0
 670 2894 894 2958 1164 2958 c 0
 1446 2958 1672 2882 1842 2732 c 0
 2012 2582 2098 2380 2098 2130 c 0
 2098 1920 2022 1744 1872 1598 c 0
 1722 1452 1524 1366 1278 1336 c 1
 1278 876 l 1
 922 876 l 1
816 254 m 0
 816 332 842 396 896 452 c 0
 950 504 1014 532 1090 532 c 0
 1170 532 1236 506 1288 452 c 0
 1342 398 1368 332 1368 254 c 0
 1368 178 1342 114 1288 60 c 0
 1234 6 1168 -20 1090 -20 c 0
 1014 -20 950 6 896 60 c 0
 842 114 816 178 816 254 c 0
EndSplineSet
EndChar

StartChar: at
Encoding: 64 64 34
Width: 3968
GlyphClass: 2
Flags: HW
LayerCount: 2
UndoRedoHistory
Layer: 1
Undoes
UndoOperation
Index: 0
Type: 1
WasModified: 0
WasOrder2: 0
Layer: 2
Width: 1984
VWidth: 2048
LBearingChange: 0
UnicodeEnc: 0
InstructionsLength: 0
EndUndoOperation
UndoOperation
Index: 1
Type: 3
WasModified: 0
WasOrder2: 0
Layer: 2
EndUndoOperation
EndUndoes
Redoes
EndRedoes
EndUndoRedoHistory
Fore
SplineSet
2040 -630 m 2
 1488 -630 1048 -476 720 -168 c 0
 394 138 230 550 230 1064 c 0
 230 1418 304 1728 452 2000 c 0
 602 2268 812 2478 1080 2624 c 0
 1352 2772 1662 2846 2012 2846 c 0
 2352 2846 2652 2782 2912 2656 c 0
 3174 2530 3376 2346 3522 2108 c 0
 3668 1868 3740 1588 3740 1270 c 0
 3740 1080 3712 910 3656 760 c 0
 3602 610 3516 490 3396 400 c 0
 3280 308 3136 262 2970 262 c 0
 2838 262 2728 286 2644 336 c 0
 2556 386 2502 460 2478 562 c 1
 2424 464 2348 388 2248 336 c 0
 2146 280 2030 254 1896 254 c 0
 1660 254 1470 332 1328 484 c 0
 1186 640 1114 844 1114 1098 c 0
 1114 1348 1186 1548 1328 1704 c 0
 1470 1856 1658 1934 1888 1934 c 0
 2016 1934 2128 1908 2228 1858 c 0
 2324 1808 2400 1736 2454 1646 c 1
 2454 1896 l 1
 2764 1896 l 1
 2764 774 l 2
 2764 618 2844 540 3006 540 c 0
 3134 540 3234 608 3304 744 c 0
 3376 882 3412 1052 3412 1254 c 0
 3412 1660 3284 1982 3032 2216 c 0
 2776 2450 2442 2568 2024 2568 c 0
 1736 2568 1480 2506 1260 2382 c 0
 1036 2258 864 2082 742 1856 c 0
 620 1628 558 1366 558 1070 c 0
 558 636 692 294 964 40 c 0
 1232 -214 1600 -340 2064 -340 c 2
 3018 -340 l 1
 3018 -630 l 1
 2040 -630 l 2
1438 1098 m 0
 1438 922 1484 782 1576 680 c 0
 1670 576 1796 524 1954 524 c 0
 2114 524 2240 576 2334 680 c 0
 2428 782 2474 922 2474 1098 c 0
 2474 1272 2428 1412 2334 1514 c 0
 2240 1616 2114 1668 1954 1668 c 0
 1796 1668 1672 1616 1578 1514 c 0
 1484 1412 1438 1272 1438 1098 c 0
EndSplineSet
Substitution2: "'case' Case-Sensitive Forms in Latin lookup 23 subtable" at.case
Substitution2: "'aalt' Access All Alternates in Latin lookup 0 subtable" at.case
EndChar

StartChar: A
Encoding: 65 65 35
Width: 2756
GlyphClass: 2
Flags: HW
AnchorPoint: "Anchor-2" 1376 2888 basechar 0
AnchorPoint: "Anchor-1" 2650 0 basechar 0
AnchorPoint: "Anchor-0" 1380 0 basechar 0
LayerCount: 2
UndoRedoHistory
Layer: 1
Undoes
UndoOperation
Index: 0
Type: 1
WasModified: 0
WasOrder2: 0
Layer: 2
Width: 1378
VWidth: 2048
LBearingChange: 0
UnicodeEnc: 0
InstructionsLength: 0
EndUndoOperation
UndoOperation
Index: 1
Type: 3
WasModified: 0
WasOrder2: 0
Layer: 2
EndUndoOperation
EndUndoes
Redoes
EndRedoes
EndUndoRedoHistory
Fore
SplineSet
106 0 m 1
 1098 2888 l 1
 1658 2888 l 1
 2650 0 l 1
 2266 0 l 1
 1990 844 l 1
 766 844 l 1
 492 0 l 1
 106 0 l 1
864 1146 m 1
 1892 1146 l 1
 1388 2682 l 1
 1368 2682 l 1
 864 1146 l 1
EndSplineSet
Substitution2: "Single Substitution lookup 33 subtable" ordfeminine
Substitution2: "'aalt' Access All Alternates in Latin lookup 0 subtable" ordfeminine
EndChar

StartChar: B
Encoding: 66 66 36
Width: 2632
GlyphClass: 2
Flags: HW
LayerCount: 2
UndoRedoHistory
Layer: 1
Undoes
UndoOperation
Index: 0
Type: 1
WasModified: 0
WasOrder2: 0
Layer: 2
Width: 1316
VWidth: 2048
LBearingChange: 0
UnicodeEnc: 0
InstructionsLength: 0
EndUndoOperation
UndoOperation
Index: 1
Type: 3
WasModified: 0
WasOrder2: 0
Layer: 2
EndUndoOperation
EndUndoes
Redoes
EndRedoes
EndUndoRedoHistory
Fore
SplineSet
336 0 m 1
 336 2888 l 1
 1414 2888 l 2
 1686 2888 1898 2824 2048 2698 c 0
 2198 2572 2274 2396 2274 2170 c 0
 2274 2004 2222 1864 2118 1750 c 0
 2014 1636 1874 1568 1700 1548 c 1
 1700 1528 l 1
 1912 1510 2084 1438 2212 1312 c 0
 2344 1186 2408 1016 2408 798 c 0
 2408 550 2318 356 2140 212 c 0
 1960 72 1714 0 1404 0 c 2
 336 0 l 1
696 282 m 1
 1384 282 l 2
 1818 282 2036 462 2036 824 c 0
 2036 1190 1816 1372 1376 1372 c 2
 696 1372 l 1
 696 282 l 1
696 1650 m 1
 1318 1650 l 2
 1506 1650 1652 1692 1754 1776 c 0
 1856 1858 1908 1978 1908 2134 c 0
 1908 2284 1862 2400 1772 2482 c 0
 1680 2564 1552 2606 1388 2606 c 2
 696 2606 l 1
 696 1650 l 1
EndSplineSet
EndChar

StartChar: C
Encoding: 67 67 37
Width: 2870
GlyphClass: 2
Flags: HW
AnchorPoint: "Anchor-2" 1548 2888 basechar 0
AnchorPoint: "Anchor-0" 1564 0 basechar 0
LayerCount: 2
UndoRedoHistory
Layer: 1
Undoes
UndoOperation
Index: 0
Type: 1
WasModified: 0
WasOrder2: 0
Layer: 2
Width: 1435
VWidth: 2048
LBearingChange: 0
UnicodeEnc: 0
InstructionsLength: 0
EndUndoOperation
UndoOperation
Index: 1
Type: 3
WasModified: 0
WasOrder2: 0
Layer: 2
EndUndoOperation
EndUndoes
Redoes
EndRedoes
EndUndoRedoHistory
Fore
SplineSet
1516 -70 m 0
 1326 -70 1152 -34 992 38 c 0
 834 110 698 212 586 340 c 0
 474 472 386 630 324 820 c 0
 262 1008 230 1216 230 1442 c 0
 230 1900 348 2268 582 2542 c 0
 816 2816 1126 2954 1512 2954 c 0
 2110 2954 2496 2692 2674 2170 c 1
 2326 2052 l 1
 2200 2442 1928 2638 1512 2638 c 0
 1232 2638 1012 2532 848 2316 c 0
 688 2104 606 1812 606 1442 c 0
 606 1072 688 782 850 568 c 0
 1012 356 1234 250 1516 250 c 0
 1926 250 2198 446 2330 840 c 1
 2674 724 l 1
 2584 462 2440 264 2248 130 c 0
 2052 -4 1810 -70 1516 -70 c 0
EndSplineSet
EndChar

StartChar: D
Encoding: 68 68 38
Width: 2870
GlyphClass: 2
Flags: HW
AnchorPoint: "Anchor-2" 1278 2888 basechar 0
AnchorPoint: "Anchor-0" 1434 0 basechar 0
LayerCount: 2
UndoRedoHistory
Layer: 1
Undoes
UndoOperation
Index: 0
Type: 1
WasModified: 0
WasOrder2: 0
Layer: 2
Width: 1435
VWidth: 2048
LBearingChange: 0
UnicodeEnc: 0
InstructionsLength: 0
EndUndoOperation
UndoOperation
Index: 1
Type: 3
WasModified: 0
WasOrder2: 0
Layer: 2
EndUndoOperation
EndUndoes
Redoes
EndRedoes
EndUndoRedoHistory
Fore
SplineSet
336 0 m 1
 336 2888 l 1
 1168 2888 l 2
 1628 2888 1988 2760 2250 2506 c 0
 2512 2252 2642 1898 2642 1446 c 0
 2642 990 2512 636 2252 380 c 0
 1990 128 1630 0 1168 0 c 2
 336 0 l 1
696 312 m 1
 1160 312 l 2
 1514 312 1788 410 1980 606 c 0
 2170 802 2266 1080 2266 1442 c 0
 2266 1804 2170 2082 1980 2280 c 0
 1788 2478 1514 2576 1160 2576 c 2
 696 2576 l 1
 696 312 l 1
EndSplineSet
EndChar

StartChar: E
Encoding: 69 69 39
Width: 2314
GlyphClass: 2
Flags: HW
AnchorPoint: "Anchor-2" 1258 2888 basechar 0
AnchorPoint: "Anchor-1" 2080 0 basechar 0
AnchorPoint: "Anchor-0" 1270 0 basechar 0
LayerCount: 2
UndoRedoHistory
Layer: 1
Undoes
UndoOperation
Index: 0
Type: 1
WasModified: 0
WasOrder2: 0
Layer: 2
Width: 1157
VWidth: 2048
LBearingChange: 0
UnicodeEnc: 0
InstructionsLength: 0
EndUndoOperation
UndoOperation
Index: 1
Type: 3
WasModified: 0
WasOrder2: 0
Layer: 2
EndUndoOperation
EndUndoes
Redoes
EndRedoes
EndUndoRedoHistory
Fore
SplineSet
336 0 m 1
 336 2888 l 1
 2080 2888 l 1
 2080 2580 l 1
 696 2580 l 1
 696 1680 l 1
 1872 1680 l 1
 1872 1376 l 1
 696 1376 l 1
 696 308 l 1
 2080 308 l 1
 2080 0 l 1
 336 0 l 1
EndSplineSet
EndChar

StartChar: F
Encoding: 70 70 40
Width: 2154
GlyphClass: 2
Flags: HW
LayerCount: 2
UndoRedoHistory
Layer: 1
Undoes
UndoOperation
Index: 0
Type: 1
WasModified: 0
WasOrder2: 0
Layer: 2
Width: 1077
VWidth: 2048
LBearingChange: 0
UnicodeEnc: 0
InstructionsLength: 0
EndUndoOperation
UndoOperation
Index: 1
Type: 3
WasModified: 0
WasOrder2: 0
Layer: 2
EndUndoOperation
EndUndoes
Redoes
EndRedoes
EndUndoRedoHistory
Fore
SplineSet
336 0 m 1
 336 2888 l 1
 2002 2888 l 1
 2002 2580 l 1
 696 2580 l 1
 696 1618 l 1
 1864 1618 l 1
 1864 1310 l 1
 696 1310 l 1
 696 0 l 1
 336 0 l 1
EndSplineSet
EndChar

StartChar: G
Encoding: 71 71 41
Width: 2984
GlyphClass: 2
Flags: HW
AnchorPoint: "Anchor-2" 1544 2888 basechar 0
AnchorPoint: "Anchor-0" 1544 0 basechar 0
LayerCount: 2
UndoRedoHistory
Layer: 1
Undoes
UndoOperation
Index: 0
Type: 1
WasModified: 0
WasOrder2: 0
Layer: 2
Width: 1492
VWidth: 2048
LBearingChange: 0
UnicodeEnc: 0
InstructionsLength: 0
EndUndoOperation
UndoOperation
Index: 1
Type: 3
WasModified: 0
WasOrder2: 0
Layer: 2
EndUndoOperation
EndUndoes
Redoes
EndRedoes
EndUndoRedoHistory
Fore
SplineSet
1548 -70 m 0
 1146 -70 826 68 588 342 c 0
 350 616 230 984 230 1442 c 0
 230 1904 348 2270 584 2544 c 0
 818 2818 1134 2954 1532 2954 c 0
 2122 2954 2510 2702 2696 2200 c 1
 2356 2068 l 1
 2290 2254 2188 2396 2050 2492 c 0
 1912 2590 1742 2638 1540 2638 c 0
 1250 2638 1024 2532 858 2318 c 0
 692 2104 610 1812 610 1442 c 0
 610 1072 694 780 862 566 c 0
 1030 352 1258 246 1548 246 c 0
 1818 246 2028 326 2178 486 c 0
 2328 646 2410 874 2420 1172 c 1
 1496 1172 l 1
 1496 1474 l 1
 2756 1474 l 1
 2756 1208 l 2
 2756 816 2646 504 2428 276 c 0
 2208 44 1914 -70 1548 -70 c 0
EndSplineSet
EndChar

StartChar: H
Encoding: 72 72 42
Width: 2924
GlyphClass: 2
Flags: HW
AnchorPoint: "Anchor-2" 1462 2888 basechar 0
AnchorPoint: "Anchor-0" 1462 0 basechar 0
LayerCount: 2
UndoRedoHistory
Layer: 1
Undoes
UndoOperation
Index: 0
Type: 1
WasModified: 0
WasOrder2: 0
Layer: 2
Width: 1462
VWidth: 2048
LBearingChange: 0
UnicodeEnc: 0
InstructionsLength: 0
EndUndoOperation
UndoOperation
Index: 1
Type: 3
WasModified: 0
WasOrder2: 0
Layer: 2
EndUndoOperation
EndUndoes
Redoes
EndRedoes
EndUndoRedoHistory
Fore
SplineSet
2228 0 m 1
 2228 1364 l 1
 696 1364 l 1
 696 0 l 1
 336 0 l 1
 336 2888 l 1
 696 2888 l 1
 696 1676 l 1
 2228 1676 l 1
 2228 2888 l 1
 2588 2888 l 1
 2588 0 l 1
 2228 0 l 1
EndSplineSet
EndChar

StartChar: I
Encoding: 73 73 43
Width: 1032
GlyphClass: 2
Flags: HW
AnchorPoint: "Anchor-2" 516 2888 basechar 0
AnchorPoint: "Anchor-1" 696 0 basechar 0
AnchorPoint: "Anchor-0" 516 0 basechar 0
LayerCount: 2
UndoRedoHistory
Layer: 1
Undoes
UndoOperation
Index: 0
Type: 1
WasModified: 0
WasOrder2: 0
Layer: 2
Width: 516
VWidth: 2048
LBearingChange: 0
UnicodeEnc: 0
InstructionsLength: 0
EndUndoOperation
UndoOperation
Index: 1
Type: 3
WasModified: 0
WasOrder2: 0
Layer: 2
EndUndoOperation
EndUndoes
Redoes
EndRedoes
EndUndoRedoHistory
Fore
SplineSet
336 0 m 1
 336 2888 l 1
 696 2888 l 1
 696 0 l 1
 336 0 l 1
EndSplineSet
Substitution2: "'ss02' Style Set 2 in Latin lookup 26 subtable" I.ss01
Substitution2: "'ss01' Style Set 1 in Latin lookup 25 subtable" I.ss01
Substitution2: "'aalt' Access All Alternates in Latin lookup 0 subtable" I.ss01
EndChar

StartChar: J
Encoding: 74 74 44
Width: 2112
GlyphClass: 2
Flags: HW
AnchorPoint: "Anchor-2" 1070 2888 basechar 0
AnchorPoint: "Anchor-0" 1070 0 basechar 0
LayerCount: 2
UndoRedoHistory
Layer: 1
Undoes
UndoOperation
Index: 0
Type: 1
WasModified: 0
WasOrder2: 0
Layer: 2
Width: 1056
VWidth: 2048
LBearingChange: 0
UnicodeEnc: 0
InstructionsLength: 0
EndUndoOperation
UndoOperation
Index: 1
Type: 3
WasModified: 0
WasOrder2: 0
Layer: 2
EndUndoOperation
EndUndoes
Redoes
EndRedoes
EndUndoRedoHistory
Fore
SplineSet
950 -70 m 0
 690 -70 486 0 340 140 c 0
 192 278 118 488 118 766 c 2
 118 984 l 1
 480 1082 l 1
 480 778 l 2
 480 424 636 246 950 246 c 0
 1262 246 1418 444 1418 840 c 2
 1418 2888 l 1
 1782 2888 l 1
 1782 836 l 2
 1782 530 1708 304 1562 154 c 0
 1416 4 1212 -70 950 -70 c 0
EndSplineSet
Substitution2: "Single Substitution lookup 31 subtable" uni004A0301
Substitution2: "'aalt' Access All Alternates in Latin lookup 0 subtable" uni004A0301
EndChar

StartChar: K
Encoding: 75 75 45
Width: 2658
GlyphClass: 2
Flags: HW
AnchorPoint: "Anchor-2" 1332 2888 basechar 0
AnchorPoint: "Anchor-0" 1332 0 basechar 0
LayerCount: 2
UndoRedoHistory
Layer: 1
Undoes
UndoOperation
Index: 0
Type: 1
WasModified: 0
WasOrder2: 0
Layer: 2
Width: 1329
VWidth: 2048
LBearingChange: 0
UnicodeEnc: 0
InstructionsLength: 0
EndUndoOperation
UndoOperation
Index: 1
Type: 3
WasModified: 0
WasOrder2: 0
Layer: 2
EndUndoOperation
EndUndoes
Redoes
EndRedoes
EndUndoRedoHistory
Fore
SplineSet
336 0 m 1
 336 2888 l 1
 696 2888 l 1
 696 1512 l 1
 712 1512 l 1
 2008 2888 l 1
 2478 2888 l 1
 1380 1744 l 1
 2552 0 l 1
 2130 0 l 1
 1118 1504 l 1
 696 1064 l 1
 696 0 l 1
 336 0 l 1
EndSplineSet
EndChar

StartChar: L
Encoding: 76 76 46
Width: 2190
GlyphClass: 2
Flags: HW
AnchorPoint: "Anchor-3" 1180 2888 basechar 0
AnchorPoint: "Anchor-2" 516 2888 basechar 0
AnchorPoint: "Anchor-0" 1098 0 basechar 0
LayerCount: 2
UndoRedoHistory
Layer: 1
Undoes
UndoOperation
Index: 0
Type: 1
WasModified: 0
WasOrder2: 0
Layer: 2
Width: 1095
VWidth: 2048
LBearingChange: 0
UnicodeEnc: 0
InstructionsLength: 0
EndUndoOperation
UndoOperation
Index: 1
Type: 3
WasModified: 0
WasOrder2: 0
Layer: 2
EndUndoOperation
EndUndoes
Redoes
EndRedoes
EndUndoRedoHistory
Fore
SplineSet
336 0 m 1
 336 2888 l 1
 696 2888 l 1
 696 316 l 1
 2040 316 l 1
 2040 0 l 1
 336 0 l 1
EndSplineSet
EndChar

StartChar: M
Encoding: 77 77 47
Width: 3514
GlyphClass: 2
Flags: HW
LayerCount: 2
UndoRedoHistory
Layer: 1
Undoes
UndoOperation
Index: 0
Type: 1
WasModified: 0
WasOrder2: 0
Layer: 2
Width: 1757
VWidth: 2048
LBearingChange: 0
UnicodeEnc: 0
InstructionsLength: 0
EndUndoOperation
UndoOperation
Index: 1
Type: 3
WasModified: 0
WasOrder2: 0
Layer: 2
EndUndoOperation
EndUndoes
Redoes
EndRedoes
EndUndoRedoHistory
Fore
SplineSet
336 0 m 1
 336 2888 l 1
 978 2888 l 1
 1744 290 l 1
 1766 290 l 1
 2536 2888 l 1
 3178 2888 l 1
 3178 0 l 1
 2834 0 l 1
 2834 2670 l 1
 2818 2670 l 1
 1998 0 l 1
 1516 0 l 1
 696 2670 l 1
 676 2670 l 1
 676 0 l 1
 336 0 l 1
EndSplineSet
EndChar

StartChar: N
Encoding: 78 78 48
Width: 2882
GlyphClass: 2
Flags: HW
AnchorPoint: "Anchor-2" 1576 2888 basechar 0
AnchorPoint: "Anchor-0" 1442 0 basechar 0
LayerCount: 2
UndoRedoHistory
Layer: 1
Undoes
UndoOperation
Index: 0
Type: 1
WasModified: 0
WasOrder2: 0
Layer: 2
Width: 1441
VWidth: 2048
LBearingChange: 0
UnicodeEnc: 0
InstructionsLength: 0
EndUndoOperation
UndoOperation
Index: 1
Type: 3
WasModified: 0
WasOrder2: 0
Layer: 2
EndUndoOperation
EndUndoes
Redoes
EndRedoes
EndUndoRedoHistory
Fore
SplineSet
336 0 m 1
 336 2888 l 1
 958 2888 l 1
 2188 230 l 1
 2204 230 l 1
 2204 2888 l 1
 2548 2888 l 1
 2548 0 l 1
 1926 0 l 1
 696 2658 l 1
 680 2658 l 1
 680 0 l 1
 336 0 l 1
EndSplineSet
EndChar

StartChar: O
Encoding: 79 79 49
Width: 3136
GlyphClass: 2
Flags: HW
AnchorPoint: "Anchor-3" 2012 2888 basechar 0
AnchorPoint: "Anchor-2" 1568 2888 basechar 0
AnchorPoint: "Anchor-1" 2174 0 basechar 0
AnchorPoint: "Anchor-0" 1568 0 basechar 0
LayerCount: 2
UndoRedoHistory
Layer: 1
Undoes
UndoOperation
Index: 0
Type: 1
WasModified: 0
WasOrder2: 0
Layer: 2
Width: 1568
VWidth: 2048
LBearingChange: 0
UnicodeEnc: 0
InstructionsLength: 0
EndUndoOperation
UndoOperation
Index: 1
Type: 3
WasModified: 0
WasOrder2: 0
Layer: 2
EndUndoOperation
EndUndoes
Redoes
EndRedoes
EndUndoRedoHistory
Fore
SplineSet
1568 -70 m 0
 1166 -70 842 68 596 344 c 0
 352 622 230 988 230 1442 c 0
 230 1742 286 2008 396 2236 c 0
 506 2468 664 2644 866 2770 c 0
 1068 2896 1302 2958 1568 2958 c 0
 1970 2958 2294 2820 2540 2540 c 0
 2786 2264 2908 1896 2908 1442 c 0
 2908 988 2786 622 2540 344 c 0
 2294 68 1970 -70 1568 -70 c 0
606 1442 m 0
 606 1088 694 800 872 580 c 0
 1050 360 1282 250 1568 250 c 0
 1854 250 2086 360 2264 580 c 0
 2440 800 2528 1088 2528 1442 c 0
 2528 1796 2440 2084 2264 2306 c 0
 2086 2528 1854 2638 1568 2638 c 0
 1282 2638 1050 2528 872 2306 c 0
 694 2084 606 1796 606 1442 c 0
EndSplineSet
Substitution2: "Single Substitution lookup 33 subtable" ordmasculine
Substitution2: "'aalt' Access All Alternates in Latin lookup 0 subtable" ordmasculine
EndChar

StartChar: P
Encoding: 80 80 50
Width: 2554
GlyphClass: 2
Flags: HW
LayerCount: 2
UndoRedoHistory
Layer: 1
Undoes
UndoOperation
Index: 0
Type: 1
WasModified: 0
WasOrder2: 0
Layer: 2
Width: 1277
VWidth: 2048
LBearingChange: 0
UnicodeEnc: 0
InstructionsLength: 0
EndUndoOperation
UndoOperation
Index: 1
Type: 3
WasModified: 0
WasOrder2: 0
Layer: 2
EndUndoOperation
EndUndoes
Redoes
EndRedoes
EndUndoRedoHistory
Fore
SplineSet
336 0 m 1
 336 2888 l 1
 1372 2888 l 2
 1676 2888 1920 2810 2106 2654 c 0
 2292 2498 2384 2286 2384 2016 c 0
 2384 1746 2292 1532 2106 1374 c 0
 1920 1216 1676 1138 1372 1138 c 2
 696 1138 l 1
 696 0 l 1
 336 0 l 1
696 1442 m 1
 1318 1442 l 2
 1540 1442 1712 1490 1834 1584 c 0
 1956 1680 2016 1824 2016 2016 c 0
 2016 2206 1956 2348 1834 2444 c 0
 1712 2536 1540 2584 1318 2584 c 2
 696 2584 l 1
 696 1442 l 1
EndSplineSet
EndChar

StartChar: Q
Encoding: 81 81 51
Width: 3136
GlyphClass: 2
Flags: HW
AnchorPoint: "Anchor-3" 2012 2888 basechar 0
AnchorPoint: "Anchor-2" 1568 2888 basechar 0
AnchorPoint: "Anchor-1" 2174 0 basechar 0
AnchorPoint: "Anchor-0" 1568 0 basechar 0
LayerCount: 2
UndoRedoHistory
Layer: 1
Undoes
UndoOperation
Index: 0
Type: 1
WasModified: 0
WasOrder2: 0
Layer: 2
Width: 1568
VWidth: 2048
LBearingChange: 0
UnicodeEnc: 0
InstructionsLength: 0
EndUndoOperation
UndoOperation
Index: 1
Type: 3
WasModified: 0
WasOrder2: 0
Layer: 2
EndUndoOperation
EndUndoes
Redoes
EndRedoes
EndUndoRedoHistory
Fore
SplineSet
1568 -70 m 0
 1166 -70 842 68 596 344 c 0
 352 622 230 988 230 1442 c 0
 230 1742 286 2008 396 2236 c 0
 506 2468 664 2644 866 2770 c 0
 1068 2896 1302 2958 1568 2958 c 0
 1970 2958 2294 2820 2540 2540 c 0
 2786 2264 2908 1896 2908 1442 c 0
 2908 1212 2876 1004 2810 814 c 0
 2744 624 2650 464 2528 332 c 1
 2936 -66 l 1
 2936 -500 l 1
 2286 126 l 1
 2078 -4 1838 -70 1568 -70 c 0
606 1442 m 0
 606 1088 694 800 872 580 c 0
 1050 360 1282 250 1568 250 c 0
 1738 250 1890 290 2028 372 c 1
 1762 630 l 1
 1762 1074 l 1
 2266 586 l 1
 2440 802 2528 1088 2528 1442 c 0
 2528 1796 2440 2084 2264 2306 c 0
 2086 2528 1854 2638 1568 2638 c 0
 1282 2638 1050 2528 872 2306 c 0
 694 2084 606 1796 606 1442 c 0
EndSplineSet
EndChar

StartChar: R
Encoding: 82 82 52
Width: 2646
GlyphClass: 2
Flags: HW
AnchorPoint: "Anchor-2" 1258 2888 basechar 0
AnchorPoint: "Anchor-0" 1328 0 basechar 0
LayerCount: 2
UndoRedoHistory
Layer: 1
Undoes
UndoOperation
Index: 0
Type: 1
WasModified: 0
WasOrder2: 0
Layer: 2
Width: 1323
VWidth: 2048
LBearingChange: 0
UnicodeEnc: 0
InstructionsLength: 0
EndUndoOperation
UndoOperation
Index: 1
Type: 3
WasModified: 0
WasOrder2: 0
Layer: 2
EndUndoOperation
EndUndoes
Redoes
EndRedoes
EndUndoRedoHistory
Fore
SplineSet
336 0 m 1
 336 2888 l 1
 1404 2888 l 2
 1698 2888 1936 2814 2116 2668 c 0
 2294 2520 2384 2318 2384 2064 c 0
 2384 1846 2316 1668 2180 1524 c 0
 2044 1384 1862 1296 1634 1262 c 1
 2450 0 l 1
 2032 0 l 1
 1250 1236 l 1
 696 1236 l 1
 696 0 l 1
 336 0 l 1
696 1524 m 1
 1352 1524 l 2
 1564 1524 1728 1568 1844 1654 c 0
 1958 1740 2016 1874 2016 2056 c 0
 2016 2408 1794 2584 1352 2584 c 2
 696 2584 l 1
 696 1524 l 1
EndSplineSet
EndChar

StartChar: S
Encoding: 83 83 53
Width: 2542
GlyphClass: 2
Flags: HW
AnchorPoint: "Anchor-2" 1360 2888 basechar 0
AnchorPoint: "Anchor-0" 1344 0 basechar 0
LayerCount: 2
UndoRedoHistory
Layer: 1
Undoes
UndoOperation
Index: 0
Type: 1
WasModified: 0
WasOrder2: 0
Layer: 2
Width: 1271
VWidth: 2048
LBearingChange: 0
UnicodeEnc: 0
InstructionsLength: 0
EndUndoOperation
UndoOperation
Index: 1
Type: 3
WasModified: 0
WasOrder2: 0
Layer: 2
EndUndoOperation
EndUndoes
Redoes
EndRedoes
EndUndoRedoHistory
Fore
SplineSet
1310 -70 m 0
 1020 -70 780 -2 584 132 c 0
 392 266 258 462 184 720 c 1
 536 840 l 1
 650 436 914 234 1332 234 c 0
 1538 234 1696 282 1804 376 c 0
 1916 470 1970 604 1970 774 c 0
 1970 914 1932 1024 1856 1104 c 0
 1778 1184 1666 1244 1516 1282 c 2
 1056 1400 l 2
 584 1522 348 1770 348 2146 c 0
 348 2392 438 2590 616 2736 c 0
 794 2884 1036 2958 1340 2958 c 0
 1590 2958 1802 2906 1978 2804 c 0
 2154 2700 2278 2550 2348 2356 c 1
 2016 2220 l 1
 1954 2370 1866 2482 1756 2552 c 0
 1644 2622 1502 2658 1328 2658 c 0
 1138 2658 992 2616 888 2534 c 0
 786 2452 734 2338 734 2192 c 0
 734 2066 772 1966 848 1896 c 0
 926 1824 1046 1766 1208 1720 c 2
 1680 1590 l 2
 1894 1530 2062 1432 2180 1300 c 0
 2300 1164 2360 998 2360 798 c 0
 2360 534 2266 324 2078 166 c 0
 1890 8 1634 -70 1310 -70 c 0
EndSplineSet
EndChar

StartChar: T
Encoding: 84 84 54
Width: 2416
GlyphClass: 2
Flags: HW
AnchorPoint: "Anchor-2" 1208 2888 basechar 0
AnchorPoint: "Anchor-0" 1208 0 basechar 0
LayerCount: 2
UndoRedoHistory
Layer: 1
Undoes
UndoOperation
Index: 0
Type: 1
WasModified: 0
WasOrder2: 0
Layer: 2
Width: 1208
VWidth: 2048
LBearingChange: 0
UnicodeEnc: 0
InstructionsLength: 0
EndUndoOperation
UndoOperation
Index: 1
Type: 3
WasModified: 0
WasOrder2: 0
Layer: 2
EndUndoOperation
EndUndoes
Redoes
EndRedoes
EndUndoRedoHistory
Fore
SplineSet
1028 0 m 1
 1028 2572 l 1
 136 2572 l 1
 136 2888 l 1
 2282 2888 l 1
 2282 2572 l 1
 1388 2572 l 1
 1388 0 l 1
 1028 0 l 1
EndSplineSet
EndChar

StartChar: U
Encoding: 85 85 55
Width: 2882
GlyphClass: 2
Flags: HW
AnchorPoint: "Anchor-3" 2166 2888 basechar 0
AnchorPoint: "Anchor-2" 1442 2888 basechar 0
AnchorPoint: "Anchor-1" 2016 0 basechar 0
AnchorPoint: "Anchor-0" 1442 0 basechar 0
LayerCount: 2
UndoRedoHistory
Layer: 1
Undoes
UndoOperation
Index: 0
Type: 1
WasModified: 0
WasOrder2: 0
Layer: 2
Width: 1441
VWidth: 2048
LBearingChange: 0
UnicodeEnc: 0
InstructionsLength: 0
EndUndoOperation
UndoOperation
Index: 1
Type: 3
WasModified: 0
WasOrder2: 0
Layer: 2
EndUndoOperation
EndUndoes
Redoes
EndRedoes
EndUndoRedoHistory
Fore
SplineSet
1450 -70 m 0
 1106 -70 834 30 636 228 c 0
 436 426 336 686 336 1004 c 2
 336 2888 l 1
 716 2888 l 1
 716 1032 l 2
 716 802 782 616 912 476 c 0
 1042 332 1222 262 1450 262 c 0
 1674 262 1850 332 1976 474 c 0
 2102 616 2166 802 2166 1032 c 2
 2166 2888 l 1
 2548 2888 l 1
 2548 1004 l 2
 2548 686 2450 426 2252 228 c 0
 2056 30 1788 -70 1450 -70 c 0
EndSplineSet
EndChar

StartChar: V
Encoding: 86 86 56
Width: 2658
GlyphClass: 2
Flags: HW
LayerCount: 2
UndoRedoHistory
Layer: 1
Undoes
UndoOperation
Index: 0
Type: 1
WasModified: 0
WasOrder2: 0
Layer: 2
Width: 1329
VWidth: 2048
LBearingChange: 0
UnicodeEnc: 0
InstructionsLength: 0
EndUndoOperation
UndoOperation
Index: 1
Type: 3
WasModified: 0
WasOrder2: 0
Layer: 2
EndUndoOperation
EndUndoes
Redoes
EndRedoes
EndUndoRedoHistory
Fore
SplineSet
1060 0 m 1
 106 2888 l 1
 508 2888 l 1
 1324 242 l 1
 1340 242 l 1
 2158 2888 l 1
 2556 2888 l 1
 1602 0 l 1
 1060 0 l 1
EndSplineSet
EndChar

StartChar: W
Encoding: 87 87 57
Width: 3944
GlyphClass: 2
Flags: HW
AnchorPoint: "Anchor-2" 1974 2888 basechar 0
AnchorPoint: "Anchor-0" 1974 0 basechar 0
LayerCount: 2
UndoRedoHistory
Layer: 1
Undoes
UndoOperation
Index: 0
Type: 1
WasModified: 0
WasOrder2: 0
Layer: 2
Width: 1972
VWidth: 2048
LBearingChange: 0
UnicodeEnc: 0
InstructionsLength: 0
EndUndoOperation
UndoOperation
Index: 1
Type: 3
WasModified: 0
WasOrder2: 0
Layer: 2
EndUndoOperation
EndUndoes
Redoes
EndRedoes
EndUndoRedoHistory
Fore
SplineSet
828 0 m 1
 140 2888 l 1
 524 2888 l 1
 1094 254 l 1
 1114 254 l 1
 1672 2888 l 1
 2274 2888 l 1
 2834 254 l 1
 2850 254 l 1
 3420 2888 l 1
 3806 2888 l 1
 3118 0 l 1
 2568 0 l 1
 1982 2634 l 1
 1962 2634 l 1
 1376 0 l 1
 828 0 l 1
EndSplineSet
EndChar

StartChar: X
Encoding: 88 88 58
Width: 2800
GlyphClass: 2
Flags: HW
LayerCount: 2
UndoRedoHistory
Layer: 1
Undoes
UndoOperation
Index: 0
Type: 1
WasModified: 0
WasOrder2: 0
Layer: 2
Width: 1400
VWidth: 2048
LBearingChange: 0
UnicodeEnc: 0
InstructionsLength: 0
EndUndoOperation
UndoOperation
Index: 1
Type: 3
WasModified: 0
WasOrder2: 0
Layer: 2
EndUndoOperation
EndUndoes
Redoes
EndRedoes
EndUndoRedoHistory
Fore
SplineSet
2274 0 m 1
 1404 1364 l 1
 1384 1364 l 1
 528 0 l 1
 106 0 l 1
 1138 1564 l 1
 254 2888 l 1
 688 2888 l 1
 1384 1778 l 1
 1404 1778 l 1
 2106 2888 l 1
 2540 2888 l 1
 1650 1572 l 1
 2696 0 l 1
 2274 0 l 1
EndSplineSet
EndChar

StartChar: Y
Encoding: 89 89 59
Width: 2592
GlyphClass: 2
Flags: HW
AnchorPoint: "Anchor-2" 1298 2888 basechar 0
AnchorPoint: "Anchor-0" 1298 0 basechar 0
LayerCount: 2
UndoRedoHistory
Layer: 1
Undoes
UndoOperation
Index: 0
Type: 1
WasModified: 0
WasOrder2: 0
Layer: 2
Width: 1296
VWidth: 2048
LBearingChange: 0
UnicodeEnc: 0
InstructionsLength: 0
EndUndoOperation
UndoOperation
Index: 1
Type: 3
WasModified: 0
WasOrder2: 0
Layer: 2
EndUndoOperation
EndUndoes
Redoes
EndRedoes
EndUndoRedoHistory
Fore
SplineSet
1114 0 m 1
 1114 1192 l 1
 98 2888 l 1
 516 2888 l 1
 1286 1508 l 1
 1306 1508 l 1
 2076 2888 l 1
 2494 2888 l 1
 1478 1192 l 1
 1478 0 l 1
 1114 0 l 1
EndSplineSet
EndChar

StartChar: Z
Encoding: 90 90 60
Width: 2550
GlyphClass: 2
Flags: HW
AnchorPoint: "Anchor-2" 1278 2888 basechar 0
AnchorPoint: "Anchor-0" 1278 0 basechar 0
LayerCount: 2
UndoRedoHistory
Layer: 1
Undoes
UndoOperation
Index: 0
Type: 1
WasModified: 0
WasOrder2: 0
Layer: 2
Width: 1275
VWidth: 2048
LBearingChange: 0
UnicodeEnc: 0
InstructionsLength: 0
EndUndoOperation
UndoOperation
Index: 1
Type: 3
WasModified: 0
WasOrder2: 0
Layer: 2
EndUndoOperation
EndUndoes
Redoes
EndRedoes
EndUndoRedoHistory
Fore
SplineSet
212 0 m 1
 212 406 l 1
 1896 2556 l 1
 1896 2572 l 1
 242 2572 l 1
 242 2888 l 1
 2252 2888 l 1
 2252 2482 l 1
 566 332 l 1
 566 316 l 1
 2342 316 l 1
 2342 0 l 1
 212 0 l 1
EndSplineSet
EndChar

StartChar: bracketleft
Encoding: 91 91 61
Width: 1444
GlyphClass: 2
Flags: HW
LayerCount: 2
UndoRedoHistory
Layer: 1
Undoes
UndoOperation
Index: 0
Type: 1
WasModified: 0
WasOrder2: 0
Layer: 2
Width: 722
VWidth: 2048
LBearingChange: 0
UnicodeEnc: 0
InstructionsLength: 0
EndUndoOperation
UndoOperation
Index: 1
Type: 3
WasModified: 0
WasOrder2: 0
Layer: 2
EndUndoOperation
EndUndoes
Redoes
EndRedoes
EndUndoRedoHistory
Fore
SplineSet
1250 3080 m 1
 1250 2802 l 1
 668 2802 l 1
 668 -372 l 1
 1250 -372 l 1
 1250 -656 l 1
 336 -656 l 1
 336 3080 l 1
 1250 3080 l 1
EndSplineSet
Substitution2: "'case' Case-Sensitive Forms in Latin lookup 23 subtable" bracketleft.case
Substitution2: "'aalt' Access All Alternates in Latin lookup 0 subtable" bracketleft.case
EndChar

StartChar: backslash
Encoding: 92 92 62
Width: 1448
GlyphClass: 2
Flags: HW
LayerCount: 2
UndoRedoHistory
Layer: 1
Undoes
UndoOperation
Index: 0
Type: 1
WasModified: 0
WasOrder2: 0
Layer: 2
Width: 724
VWidth: 2048
LBearingChange: 0
UnicodeEnc: 0
InstructionsLength: 0
EndUndoOperation
UndoOperation
Index: 1
Type: 3
WasModified: 0
WasOrder2: 0
Layer: 2
EndUndoOperation
EndUndoes
Redoes
EndRedoes
EndUndoRedoHistory
Fore
SplineSet
1380 -492 m 1
 1044 -492 l 1
 70 2958 l 1
 406 2958 l 1
 1380 -492 l 1
EndSplineSet
Substitution2: "'case' Case-Sensitive Forms in Latin lookup 23 subtable" backslash.case
Substitution2: "'aalt' Access All Alternates in Latin lookup 0 subtable" backslash.case
EndChar

StartChar: bracketright
Encoding: 93 93 63
Width: 1444
GlyphClass: 2
Flags: HW
LayerCount: 2
UndoRedoHistory
Layer: 1
Undoes
UndoOperation
Index: 0
Type: 1
WasModified: 0
WasOrder2: 0
Layer: 2
Width: 722
VWidth: 2048
LBearingChange: 0
UnicodeEnc: 0
InstructionsLength: 0
EndUndoOperation
UndoOperation
Index: 1
Type: 3
WasModified: 0
WasOrder2: 0
Layer: 2
EndUndoOperation
EndUndoes
Redoes
EndRedoes
EndUndoRedoHistory
Fore
SplineSet
192 -656 m 1
 192 -376 l 1
 778 -376 l 1
 778 2798 l 1
 192 2798 l 1
 192 3080 l 1
 1110 3080 l 1
 1110 -656 l 1
 192 -656 l 1
EndSplineSet
Substitution2: "'case' Case-Sensitive Forms in Latin lookup 23 subtable" bracketright.case
Substitution2: "'aalt' Access All Alternates in Latin lookup 0 subtable" bracketright.case
EndChar

StartChar: asciicircum
Encoding: 94 94 64
Width: 2154
GlyphClass: 2
Flags: HW
LayerCount: 2
UndoRedoHistory
Layer: 1
Undoes
UndoOperation
Index: 0
Type: 1
WasModified: 0
WasOrder2: 0
Layer: 2
Width: 1077
VWidth: 2048
LBearingChange: 0
UnicodeEnc: 0
InstructionsLength: 0
EndUndoOperation
UndoOperation
Index: 1
Type: 3
WasModified: 0
WasOrder2: 0
Layer: 2
EndUndoOperation
EndUndoes
Redoes
EndRedoes
EndUndoRedoHistory
Fore
SplineSet
884 2888 m 1
 1270 2888 l 1
 1938 1646 l 1
 1598 1646 l 1
 1086 2626 l 1
 1070 2626 l 1
 558 1646 l 1
 218 1646 l 1
 884 2888 l 1
EndSplineSet
EndChar

StartChar: underscore
Encoding: 95 95 65
Width: 1982
GlyphClass: 2
Flags: HW
LayerCount: 2
UndoRedoHistory
Layer: 1
Undoes
UndoOperation
Index: 0
Type: 1
WasModified: 0
WasOrder2: 0
Layer: 2
Width: 991
VWidth: 2048
LBearingChange: 0
UnicodeEnc: 0
InstructionsLength: 0
EndUndoOperation
UndoOperation
Index: 1
Type: 3
WasModified: 0
WasOrder2: 0
Layer: 2
EndUndoOperation
EndUndoes
Redoes
EndRedoes
EndUndoRedoHistory
Fore
SplineSet
28 -562 m 1
 28 -294 l 1
 1950 -294 l 1
 1950 -562 l 1
 28 -562 l 1
EndSplineSet
EndChar

StartChar: grave
Encoding: 96 96 66
Width: 1232
GlyphClass: 4
Flags: HW
AnchorPoint: "Anchor-5" 680 2924 basemark 0
LayerCount: 2
UndoRedoHistory
Layer: 1
Undoes
UndoOperation
Index: 0
Type: 1
WasModified: 0
WasOrder2: 0
Layer: 2
Width: 616
VWidth: 2048
LBearingChange: 0
UnicodeEnc: 0
InstructionsLength: 0
EndUndoOperation
UndoOperation
Index: 1
Type: 3
WasModified: 0
WasOrder2: 0
Layer: 2
EndUndoOperation
EndUndoes
Redoes
EndRedoes
EndUndoRedoHistory
Fore
SplineSet
578 3118 m 1
 1028 2442 l 1
 676 2442 l 1
 204 3118 l 1
 578 3118 l 1
EndSplineSet
EndChar

StartChar: a
Encoding: 97 97 67
Width: 2232
GlyphClass: 2
Flags: HW
AnchorPoint: "Anchor-2" 1106 2166 basechar 0
AnchorPoint: "Anchor-1" 2072 0 basechar 0
AnchorPoint: "Anchor-0" 1122 0 basechar 0
LayerCount: 2
UndoRedoHistory
Layer: 1
Undoes
UndoOperation
Index: 0
Type: 1
WasModified: 0
WasOrder2: 0
Layer: 2
Width: 1116
VWidth: 2048
LBearingChange: 0
UnicodeEnc: 0
InstructionsLength: 0
EndUndoOperation
UndoOperation
Index: 1
Type: 3
WasModified: 0
WasOrder2: 0
Layer: 2
EndUndoOperation
EndUndoes
Redoes
EndRedoes
EndUndoRedoHistory
Fore
SplineSet
1704 0 m 1
 1582 344 l 1
 1560 344 l 1
 1498 224 1410 128 1296 56 c 0
 1180 -14 1052 -50 910 -50 c 0
 694 -50 520 6 388 120 c 0
 258 234 192 384 192 570 c 0
 192 748 256 894 388 1008 c 0
 516 1124 702 1198 942 1232 c 2
 1564 1318 l 1
 1564 1470 l 2
 1564 1612 1524 1724 1444 1808 c 0
 1366 1888 1248 1930 1094 1930 c 0
 954 1930 842 1900 760 1842 c 0
 676 1784 616 1690 582 1564 c 1
 254 1658 l 1
 300 1832 400 1968 552 2068 c 0
 704 2166 886 2216 1098 2216 c 0
 1368 2216 1570 2150 1708 2020 c 0
 1844 1888 1912 1702 1912 1462 c 2
 1912 438 l 1
 2072 0 l 1
 1704 0 l 1
548 578 m 0
 548 468 586 384 660 322 c 0
 734 260 840 230 974 230 c 0
 1152 230 1296 292 1404 412 c 0
 1510 536 1564 698 1564 902 c 2
 1564 1064 l 1
 1032 992 l 2
 710 952 548 814 548 578 c 0
EndSplineSet
Substitution2: "Single Substitution lookup 33 subtable" ordfeminine
Substitution2: "'sups' Superscript in Latin lookup 13 subtable" a.sups
AlternateSubs2: "'aalt' Access All Alternates in Latin lookup 1 subtable" a.sups ordfeminine
EndChar

StartChar: b
Encoding: 98 98 68
Width: 2482
GlyphClass: 2
Flags: HW
AnchorPoint: "Anchor-2" 1242 2166 basechar 0
AnchorPoint: "Anchor-0" 1242 0 basechar 0
LayerCount: 2
UndoRedoHistory
Layer: 1
Undoes
UndoOperation
Index: 0
Type: 1
WasModified: 0
WasOrder2: 0
Layer: 2
Width: 1241
VWidth: 2048
LBearingChange: 0
UnicodeEnc: 0
InstructionsLength: 0
EndUndoOperation
UndoOperation
Index: 1
Type: 3
WasModified: 0
WasOrder2: 0
Layer: 2
EndUndoOperation
EndUndoes
Redoes
EndRedoes
EndUndoRedoHistory
Fore
SplineSet
1294 246 m 0
 1494 246 1652 322 1768 472 c 0
 1884 622 1942 828 1942 1086 c 0
 1942 1344 1884 1548 1768 1698 c 0
 1654 1848 1496 1922 1294 1922 c 0
 1100 1922 940 1844 816 1688 c 0
 692 1530 630 1330 630 1086 c 0
 630 828 690 622 808 472 c 0
 926 322 1088 246 1294 246 c 0
304 0 m 1
 304 3010 l 1
 652 3010 l 1
 652 1736 l 1
 672 1736 l 1
 718 1870 806 1984 932 2076 c 0
 1060 2170 1204 2216 1364 2216 c 0
 1650 2216 1876 2114 2048 1910 c 0
 2216 1706 2302 1432 2302 1086 c 0
 2302 740 2216 464 2046 260 c 0
 1876 52 1648 -50 1364 -50 c 0
 1200 -50 1052 -4 920 84 c 0
 786 176 696 286 648 418 c 1
 630 418 l 1
 630 0 l 1
 304 0 l 1
EndSplineSet
Substitution2: "'sups' Superscript in Latin lookup 13 subtable" b.sups
Substitution2: "'aalt' Access All Alternates in Latin lookup 0 subtable" b.sups
EndChar

StartChar: c
Encoding: 99 99 69
Width: 2124
GlyphClass: 2
Flags: HW
AnchorPoint: "Anchor-2" 1184 2166 basechar 0
AnchorPoint: "Anchor-0" 1160 0 basechar 0
LayerCount: 2
UndoRedoHistory
Layer: 1
Undoes
UndoOperation
Index: 0
Type: 1
WasModified: 0
WasOrder2: 0
Layer: 2
Width: 1062
VWidth: 2048
LBearingChange: 0
UnicodeEnc: 0
InstructionsLength: 0
EndUndoOperation
UndoOperation
Index: 1
Type: 3
WasModified: 0
WasOrder2: 0
Layer: 2
EndUndoOperation
EndUndoes
Redoes
EndRedoes
EndUndoRedoHistory
Fore
SplineSet
1184 -50 m 0
 894 -50 654 52 466 256 c 0
 278 458 184 736 184 1086 c 0
 184 1436 278 1712 464 1912 c 0
 650 2116 886 2216 1172 2216 c 0
 1598 2216 1880 2038 2020 1680 c 1
 1720 1548 l 1
 1662 1676 1588 1770 1500 1832 c 0
 1408 1892 1298 1922 1164 1922 c 0
 1082 1922 1006 1906 932 1872 c 0
 860 1840 794 1792 736 1728 c 0
 678 1662 630 1576 596 1464 c 0
 562 1356 544 1228 544 1086 c 0
 544 944 562 816 596 706 c 0
 632 596 680 508 740 442 c 0
 800 376 866 328 940 296 c 0
 1014 262 1092 246 1176 246 c 0
 1312 246 1424 276 1516 338 c 0
 1604 400 1678 496 1732 626 c 1
 2028 500 l 1
 1886 134 1606 -50 1184 -50 c 0
EndSplineSet
Substitution2: "'sups' Superscript in Latin lookup 13 subtable" c.sups
Substitution2: "'aalt' Access All Alternates in Latin lookup 0 subtable" c.sups
EndChar

StartChar: d
Encoding: 100 100 70
Width: 2482
GlyphClass: 2
Flags: HW
AnchorPoint: "Anchor-3" 2434 2888 basechar 0
AnchorPoint: "Anchor-2" 1242 3010 basechar 0
AnchorPoint: "Anchor-0" 1242 0 basechar 0
LayerCount: 2
UndoRedoHistory
Layer: 1
Undoes
UndoOperation
Index: 0
Type: 1
WasModified: 0
WasOrder2: 0
Layer: 2
Width: 1241
VWidth: 2048
LBearingChange: 0
UnicodeEnc: 0
InstructionsLength: 0
EndUndoOperation
UndoOperation
Index: 1
Type: 3
WasModified: 0
WasOrder2: 0
Layer: 2
EndUndoOperation
EndUndoes
Redoes
EndRedoes
EndUndoRedoHistory
Fore
SplineSet
1188 246 m 0
 1394 246 1558 322 1676 472 c 0
 1796 622 1856 828 1856 1086 c 0
 1856 1330 1794 1530 1668 1688 c 0
 1542 1844 1382 1922 1188 1922 c 0
 988 1922 830 1848 716 1698 c 0
 602 1548 544 1344 544 1086 c 0
 544 828 602 622 716 472 c 0
 830 322 988 246 1188 246 c 0
180 1086 m 0
 180 1432 264 1706 436 1910 c 0
 604 2114 832 2216 1118 2216 c 0
 1278 2216 1422 2170 1548 2076 c 0
 1676 1984 1764 1870 1810 1736 c 1
 1830 1736 l 1
 1830 3010 l 1
 2180 3010 l 1
 2180 0 l 1
 1856 0 l 1
 1856 418 l 1
 1836 418 l 1
 1788 284 1698 174 1564 84 c 0
 1432 -6 1284 -50 1118 -50 c 0
 834 -50 606 52 436 260 c 0
 266 464 180 740 180 1086 c 0
EndSplineSet
Substitution2: "'sups' Superscript in Latin lookup 13 subtable" d.sups
Substitution2: "'aalt' Access All Alternates in Latin lookup 0 subtable" d.sups
EndChar

StartChar: e
Encoding: 101 101 71
Width: 2326
GlyphClass: 2
Flags: HW
AnchorPoint: "Anchor-2" 1204 2166 basechar 0
AnchorPoint: "Anchor-1" 1728 0 basechar 0
AnchorPoint: "Anchor-0" 1168 0 basechar 0
LayerCount: 2
UndoRedoHistory
Layer: 1
Undoes
UndoOperation
Index: 0
Type: 1
WasModified: 0
WasOrder2: 0
Layer: 2
Width: 1163
VWidth: 2048
LBearingChange: 0
UnicodeEnc: 0
InstructionsLength: 0
EndUndoOperation
UndoOperation
Index: 1
Type: 3
WasModified: 0
WasOrder2: 0
Layer: 2
EndUndoOperation
EndUndoes
Redoes
EndRedoes
EndUndoRedoHistory
Fore
SplineSet
1208 -50 m 0
 890 -50 640 54 456 260 c 0
 276 468 184 746 184 1094 c 0
 184 1426 280 1696 468 1904 c 0
 660 2112 900 2216 1192 2216 c 0
 1484 2216 1716 2126 1890 1948 c 0
 2064 1768 2150 1524 2150 1216 c 0
 2150 1142 2148 1074 2142 1012 c 1
 544 1012 l 1
 554 762 618 572 732 440 c 0
 848 308 1014 242 1232 242 c 0
 1502 242 1696 352 1814 570 c 1
 2094 434 l 1
 1944 112 1650 -50 1208 -50 c 0
548 1270 m 1
 1806 1270 l 1
 1800 1480 1742 1644 1632 1762 c 0
 1520 1880 1372 1938 1188 1938 c 0
 1010 1938 862 1884 748 1774 c 0
 634 1664 566 1496 548 1270 c 1
EndSplineSet
Substitution2: "'sups' Superscript in Latin lookup 13 subtable" e.sups
Substitution2: "'aalt' Access All Alternates in Latin lookup 0 subtable" e.sups
EndChar

StartChar: f
Encoding: 102 102 72
Width: 1526
GlyphClass: 2
Flags: HW
LayerCount: 2
UndoRedoHistory
Layer: 1
Undoes
UndoOperation
Index: 0
Type: 1
WasModified: 0
WasOrder2: 0
Layer: 2
Width: 763
VWidth: 2048
LBearingChange: 0
UnicodeEnc: 0
InstructionsLength: 0
EndUndoOperation
UndoOperation
Index: 1
Type: 3
WasModified: 0
WasOrder2: 0
Layer: 2
EndUndoOperation
EndUndoes
Redoes
EndRedoes
EndUndoRedoHistory
Fore
SplineSet
532 2424 m 2
 532 2616 586 2768 692 2882 c 0
 800 2996 944 3052 1122 3052 c 0
 1204 3052 1298 3036 1400 3002 c 1
 1400 2728 l 1
 1306 2762 1232 2778 1176 2778 c 0
 1080 2778 1006 2748 956 2688 c 0
 906 2628 880 2542 880 2428 c 2
 880 2166 l 1
 1376 2166 l 1
 1376 1900 l 1
 880 1900 l 1
 880 0 l 1
 532 0 l 1
 532 1900 l 1
 132 1900 l 1
 132 2166 l 1
 532 2166 l 1
 532 2424 l 2
EndSplineSet
Substitution2: "'sups' Superscript in Latin lookup 13 subtable" f.sups
Substitution2: "'aalt' Access All Alternates in Latin lookup 0 subtable" f.sups
EndChar

StartChar: g
Encoding: 103 103 73
Width: 2468
GlyphClass: 2
Flags: HW
AnchorPoint: "Anchor-2" 1236 2166 basechar 0
AnchorPoint: "Anchor-0" 1236 -820 basechar 0
LayerCount: 2
UndoRedoHistory
Layer: 1
Undoes
UndoOperation
Index: 0
Type: 1
WasModified: 0
WasOrder2: 0
Layer: 2
Width: 1234
VWidth: 2048
LBearingChange: 0
UnicodeEnc: 0
InstructionsLength: 0
EndUndoOperation
UndoOperation
Index: 1
Type: 3
WasModified: 0
WasOrder2: 0
Layer: 2
EndUndoOperation
EndUndoes
Redoes
EndRedoes
EndUndoRedoHistory
Fore
SplineSet
1176 -868 m 0
 692 -868 378 -688 234 -328 c 1
 540 -200 l 1
 648 -460 860 -590 1176 -590 c 0
 1386 -590 1544 -528 1654 -404 c 0
 1764 -280 1818 -98 1818 144 c 2
 1818 480 l 1
 1802 480 l 1
 1728 344 1630 236 1508 156 c 0
 1384 76 1248 36 1102 36 c 0
 832 36 612 136 444 336 c 0
 276 536 192 800 192 1126 c 0
 192 1454 276 1718 444 1916 c 0
 614 2116 836 2216 1110 2216 c 0
 1270 2216 1412 2180 1536 2104 c 0
 1658 2032 1754 1926 1822 1790 c 1
 1840 1790 l 1
 1840 2166 l 1
 2162 2166 l 1
 2162 94 l 2
 2162 -208 2076 -444 1904 -614 c 0
 1730 -784 1488 -868 1176 -868 c 0
562 1126 m 0
 562 880 618 686 732 544 c 0
 846 400 1000 328 1196 328 c 0
 1394 328 1552 400 1668 544 c 0
 1782 690 1840 884 1840 1126 c 0
 1840 1368 1782 1562 1668 1706 c 0
 1552 1850 1394 1922 1196 1922 c 0
 1000 1922 846 1850 732 1708 c 0
 618 1566 562 1372 562 1126 c 0
EndSplineSet
Substitution2: "'sups' Superscript in Latin lookup 13 subtable" g.sups
Substitution2: "'aalt' Access All Alternates in Latin lookup 0 subtable" g.sups
EndChar

StartChar: h
Encoding: 104 104 74
Width: 2354
GlyphClass: 2
Flags: HW
AnchorPoint: "Anchor-2" 1220 2888 basechar 0
AnchorPoint: "Anchor-0" 1180 0 basechar 0
LayerCount: 2
UndoRedoHistory
Layer: 1
Undoes
UndoOperation
Index: 0
Type: 1
WasModified: 0
WasOrder2: 0
Layer: 2
Width: 1177
VWidth: 2048
LBearingChange: 0
UnicodeEnc: 0
InstructionsLength: 0
EndUndoOperation
UndoOperation
Index: 1
Type: 3
WasModified: 0
WasOrder2: 0
Layer: 2
EndUndoOperation
EndUndoes
Redoes
EndRedoes
EndUndoRedoHistory
Fore
SplineSet
304 0 m 1
 304 3010 l 1
 652 3010 l 1
 652 1822 l 1
 668 1822 l 1
 724 1944 808 2040 920 2112 c 0
 1034 2180 1166 2216 1318 2216 c 0
 1556 2216 1740 2148 1872 2014 c 0
 2006 1880 2072 1684 2072 1426 c 2
 2072 0 l 1
 1724 0 l 1
 1724 1384 l 2
 1724 1560 1680 1692 1588 1782 c 0
 1500 1872 1378 1916 1228 1916 c 0
 1050 1916 910 1864 808 1760 c 0
 704 1654 652 1504 652 1310 c 2
 652 0 l 1
 304 0 l 1
EndSplineSet
Substitution2: "'sups' Superscript in Latin lookup 13 subtable" h.sups
Substitution2: "'aalt' Access All Alternates in Latin lookup 0 subtable" h.sups
EndChar

StartChar: i
Encoding: 105 105 75
Width: 958
GlyphClass: 2
Flags: HW
AnchorPoint: "Anchor-2" 484 3026 basechar 0
AnchorPoint: "Anchor-1" 652 0 basechar 0
AnchorPoint: "Anchor-0" 512 0 basechar 0
LayerCount: 2
UndoRedoHistory
Layer: 1
Undoes
UndoOperation
Index: 0
Type: 1
WasModified: 0
WasOrder2: 0
Layer: 2
Width: 479
VWidth: 2048
LBearingChange: 0
UnicodeEnc: 0
InstructionsLength: 0
EndUndoOperation
UndoOperation
Index: 1
Type: 3
WasModified: 0
WasOrder2: 0
Layer: 2
EndUndoOperation
EndUndoes
Redoes
EndRedoes
EndUndoRedoHistory
Fore
SplineSet
304 0 m 1
 304 2166 l 1
 652 2166 l 1
 652 0 l 1
 304 0 l 1
254 2798 m 0
 254 2864 276 2920 320 2962 c 0
 366 3004 420 3026 484 3026 c 0
 548 3026 602 3004 644 2962 c 0
 686 2920 708 2864 708 2798 c 0
 708 2732 686 2678 644 2636 c 0
 602 2594 548 2572 484 2572 c 0
 420 2572 366 2594 320 2636 c 0
 276 2678 254 2732 254 2798 c 0
EndSplineSet
Substitution2: "Single Substitution lookup 29 subtable" dotlessi
Substitution2: "'sups' Superscript in Latin lookup 13 subtable" i.sups
Substitution2: "'locl' Localized Forms in Latin lookup 6 subtable" i.loclTRK
AlternateSubs2: "'aalt' Access All Alternates in Latin lookup 1 subtable" i.loclTRK i.sups
EndChar

StartChar: j
Encoding: 106 106 76
Width: 1002
GlyphClass: 2
Flags: HW
AnchorPoint: "Anchor-2" 524 3026 basechar 0
AnchorPoint: "Anchor-0" 496 -820 basechar 0
LayerCount: 2
UndoRedoHistory
Layer: 1
Undoes
UndoOperation
Index: 0
Type: 1
WasModified: 0
WasOrder2: 0
Layer: 2
Width: 501
VWidth: 2048
LBearingChange: 0
UnicodeEnc: 0
InstructionsLength: 0
EndUndoOperation
UndoOperation
Index: 1
Type: 3
WasModified: 0
WasOrder2: 0
Layer: 2
EndUndoOperation
EndUndoes
Redoes
EndRedoes
EndUndoRedoHistory
Fore
SplineSet
66 -820 m 1
 348 46 l 1
 348 2166 l 1
 696 2166 l 1
 696 40 l 1
 406 -820 l 1
 66 -820 l 1
294 2798 m 0
 294 2864 316 2920 360 2962 c 0
 406 3004 460 3026 524 3026 c 0
 588 3026 642 3004 684 2962 c 0
 728 2920 750 2864 750 2798 c 0
 750 2732 728 2678 684 2636 c 0
 642 2594 588 2572 524 2572 c 0
 460 2572 406 2594 360 2636 c 0
 316 2678 294 2732 294 2798 c 0
EndSplineSet
Substitution2: "Single Substitution lookup 31 subtable" uni006A0301
Substitution2: "Single Substitution lookup 29 subtable" uni0237
Substitution2: "'sups' Superscript in Latin lookup 13 subtable" j.sups
AlternateSubs2: "'aalt' Access All Alternates in Latin lookup 1 subtable" uni006A0301 j.sups
EndChar

StartChar: k
Encoding: 107 107 77
Width: 2166
GlyphClass: 2
Flags: HW
AnchorPoint: "Anchor-2" 1098 3010 basechar 0
AnchorPoint: "Anchor-0" 1098 0 basechar 0
LayerCount: 2
UndoRedoHistory
Layer: 1
Undoes
UndoOperation
Index: 0
Type: 1
WasModified: 0
WasOrder2: 0
Layer: 2
Width: 1083
VWidth: 2048
LBearingChange: 0
UnicodeEnc: 0
InstructionsLength: 0
EndUndoOperation
UndoOperation
Index: 1
Type: 3
WasModified: 0
WasOrder2: 0
Layer: 2
EndUndoOperation
EndUndoes
Redoes
EndRedoes
EndUndoRedoHistory
Fore
SplineSet
304 0 m 1
 304 3010 l 1
 652 3010 l 1
 652 1110 l 1
 672 1110 l 1
 1662 2166 l 1
 2064 2166 l 1
 1224 1270 l 1
 2106 0 l 1
 1712 0 l 1
 984 1060 l 1
 652 730 l 1
 652 0 l 1
 304 0 l 1
EndSplineSet
Substitution2: "'sups' Superscript in Latin lookup 13 subtable" k.sups
Substitution2: "'aalt' Access All Alternates in Latin lookup 0 subtable" k.sups
EndChar

StartChar: l
Encoding: 108 108 78
Width: 958
GlyphClass: 2
Flags: HW
AnchorPoint: "Anchor-3" 906 2888 basechar 0
AnchorPoint: "Anchor-2" 480 2888 basechar 0
AnchorPoint: "Anchor-0" 480 0 basechar 0
LayerCount: 2
UndoRedoHistory
Layer: 1
Undoes
UndoOperation
Index: 0
Type: 1
WasModified: 0
WasOrder2: 0
Layer: 2
Width: 479
VWidth: 2048
LBearingChange: 0
UnicodeEnc: 0
InstructionsLength: 0
EndUndoOperation
UndoOperation
Index: 1
Type: 3
WasModified: 0
WasOrder2: 0
Layer: 2
EndUndoOperation
EndUndoes
Redoes
EndRedoes
EndUndoRedoHistory
Fore
SplineSet
304 0 m 1
 304 3010 l 1
 652 3010 l 1
 652 0 l 1
 304 0 l 1
EndSplineSet
Substitution2: "'ss03' Style Set 3 in Latin lookup 27 subtable" l.ss01
Substitution2: "'ss01' Style Set 1 in Latin lookup 25 subtable" l.ss01
Substitution2: "'sups' Superscript in Latin lookup 13 subtable" l.sups
AlternateSubs2: "'aalt' Access All Alternates in Latin lookup 1 subtable" l.sups l.ss01
EndChar

StartChar: m
Encoding: 109 109 79
Width: 3502
GlyphClass: 2
Flags: HW
AnchorPoint: "Anchor-2" 1748 2166 basechar 0
AnchorPoint: "Anchor-0" 1748 0 basechar 0
LayerCount: 2
UndoRedoHistory
Layer: 1
Undoes
UndoOperation
Index: 0
Type: 1
WasModified: 0
WasOrder2: 0
Layer: 2
Width: 1751
VWidth: 2048
LBearingChange: 0
UnicodeEnc: 0
InstructionsLength: 0
EndUndoOperation
UndoOperation
Index: 1
Type: 3
WasModified: 0
WasOrder2: 0
Layer: 2
EndUndoOperation
EndUndoes
Redoes
EndRedoes
EndUndoRedoHistory
Fore
SplineSet
304 0 m 1
 304 2166 l 1
 622 2166 l 1
 622 1810 l 1
 644 1810 l 1
 698 1940 780 2040 886 2112 c 0
 992 2180 1118 2216 1262 2216 c 0
 1412 2216 1540 2180 1644 2112 c 0
 1750 2040 1828 1940 1880 1810 c 1
 1900 1810 l 1
 1954 1936 2038 2036 2150 2108 c 0
 2262 2180 2390 2216 2536 2216 c 0
 2738 2216 2902 2152 3028 2022 c 0
 3154 1892 3216 1704 3216 1454 c 2
 3216 0 l 1
 2868 0 l 1
 2868 1422 l 2
 2868 1580 2828 1700 2748 1788 c 0
 2670 1872 2558 1916 2412 1916 c 0
 2260 1916 2142 1868 2060 1770 c 0
 1976 1672 1934 1534 1934 1356 c 2
 1934 0 l 1
 1586 0 l 1
 1586 1422 l 2
 1586 1578 1548 1700 1468 1786 c 0
 1392 1872 1284 1916 1146 1916 c 0
 992 1916 872 1864 784 1758 c 0
 696 1652 652 1508 652 1324 c 2
 652 0 l 1
 304 0 l 1
EndSplineSet
Substitution2: "'sups' Superscript in Latin lookup 13 subtable" m.sups
Substitution2: "'aalt' Access All Alternates in Latin lookup 0 subtable" m.sups
EndChar

StartChar: n
Encoding: 110 110 80
Width: 2354
GlyphClass: 2
Flags: HW
AnchorPoint: "Anchor-2" 1180 2166 basechar 0
AnchorPoint: "Anchor-0" 1180 0 basechar 0
LayerCount: 2
UndoRedoHistory
Layer: 1
Undoes
UndoOperation
Index: 0
Type: 1
WasModified: 0
WasOrder2: 0
Layer: 2
Width: 1177
VWidth: 2048
LBearingChange: 0
UnicodeEnc: 0
InstructionsLength: 0
EndUndoOperation
UndoOperation
Index: 1
Type: 3
WasModified: 0
WasOrder2: 0
Layer: 2
EndUndoOperation
EndUndoes
Redoes
EndRedoes
EndUndoRedoHistory
Fore
SplineSet
1724 1384 m 2
 1724 1560 1680 1692 1588 1782 c 0
 1500 1872 1378 1916 1228 1916 c 0
 1054 1916 914 1860 808 1752 c 0
 704 1640 652 1494 652 1310 c 2
 652 0 l 1
 304 0 l 1
 304 2166 l 1
 626 2166 l 1
 626 1782 l 1
 638 1782 l 1
 696 1918 784 2024 900 2100 c 0
 1018 2178 1156 2216 1318 2216 c 0
 1556 2216 1740 2148 1872 2014 c 0
 2006 1880 2072 1684 2072 1426 c 2
 2072 0 l 1
 1724 0 l 1
 1724 1384 l 2
EndSplineSet
Substitution2: "'sups' Superscript in Latin lookup 13 subtable" n.sups
Substitution2: "'aalt' Access All Alternates in Latin lookup 0 subtable" n.sups
EndChar

StartChar: o
Encoding: 111 111 81
Width: 2432
GlyphClass: 2
Flags: HW
AnchorPoint: "Anchor-3" 1548 2166 basechar 0
AnchorPoint: "Anchor-2" 1216 2166 basechar 0
AnchorPoint: "Anchor-1" 1684 0 basechar 0
AnchorPoint: "Anchor-0" 1216 0 basechar 0
LayerCount: 2
UndoRedoHistory
Layer: 1
Undoes
UndoOperation
Index: 0
Type: 1
WasModified: 0
WasOrder2: 0
Layer: 2
Width: 1216
VWidth: 2048
LBearingChange: 0
UnicodeEnc: 0
InstructionsLength: 0
EndUndoOperation
UndoOperation
Index: 1
Type: 3
WasModified: 0
WasOrder2: 0
Layer: 2
EndUndoOperation
EndUndoes
Redoes
EndRedoes
EndUndoRedoHistory
Fore
SplineSet
1216 -50 m 0
 916 -50 668 52 476 260 c 0
 280 464 184 740 184 1082 c 0
 184 1424 280 1700 476 1906 c 0
 668 2112 916 2216 1216 2216 c 0
 1514 2216 1762 2112 1956 1904 c 0
 2150 1698 2248 1424 2248 1082 c 0
 2248 740 2150 466 1956 260 c 0
 1762 54 1514 -50 1216 -50 c 0
544 1082 m 0
 544 808 608 600 734 458 c 0
 860 316 1022 246 1216 246 c 0
 1410 246 1570 316 1696 458 c 0
 1822 600 1884 808 1884 1082 c 0
 1884 1356 1822 1566 1696 1708 c 0
 1570 1850 1410 1922 1216 1922 c 0
 1022 1922 860 1850 734 1708 c 0
 608 1566 544 1356 544 1082 c 0
EndSplineSet
Substitution2: "Single Substitution lookup 33 subtable" ordmasculine
Substitution2: "'sups' Superscript in Latin lookup 13 subtable" o.sups
AlternateSubs2: "'aalt' Access All Alternates in Latin lookup 1 subtable" o.sups ordmasculine
EndChar

StartChar: p
Encoding: 112 112 82
Width: 2482
GlyphClass: 2
Flags: HW
AnchorPoint: "Anchor-2" 1242 2166 basechar 0
AnchorPoint: "Anchor-0" 1242 0 basechar 0
LayerCount: 2
UndoRedoHistory
Layer: 1
Undoes
UndoOperation
Index: 0
Type: 1
WasModified: 0
WasOrder2: 0
Layer: 2
Width: 1241
VWidth: 2048
LBearingChange: 0
UnicodeEnc: 0
InstructionsLength: 0
EndUndoOperation
UndoOperation
Index: 1
Type: 3
WasModified: 0
WasOrder2: 0
Layer: 2
EndUndoOperation
EndUndoes
Redoes
EndRedoes
EndUndoRedoHistory
Fore
SplineSet
304 -820 m 1
 304 2166 l 1
 630 2166 l 1
 630 1748 l 1
 648 1748 l 1
 696 1880 786 1992 920 2080 c 0
 1052 2172 1200 2216 1364 2216 c 0
 1648 2216 1876 2114 2046 1908 c 0
 2216 1702 2302 1428 2302 1082 c 0
 2302 736 2216 462 2048 256 c 0
 1876 52 1650 -50 1364 -50 c 0
 1204 -50 1060 -4 932 88 c 0
 806 182 718 296 672 430 c 1
 652 430 l 1
 652 -820 l 1
 304 -820 l 1
630 1082 m 0
 630 838 692 638 816 480 c 0
 940 324 1100 246 1294 246 c 0
 1496 246 1654 320 1768 470 c 0
 1884 620 1942 824 1942 1082 c 0
 1942 1340 1884 1546 1768 1696 c 0
 1652 1846 1494 1922 1294 1922 c 0
 1088 1922 926 1846 808 1696 c 0
 690 1546 630 1340 630 1082 c 0
EndSplineSet
Substitution2: "'sups' Superscript in Latin lookup 13 subtable" p.sups
Substitution2: "'aalt' Access All Alternates in Latin lookup 0 subtable" p.sups
EndChar

StartChar: q
Encoding: 113 113 83
Width: 2482
GlyphClass: 2
Flags: HW
AnchorPoint: "Anchor-2" 1242 2166 basechar 0
AnchorPoint: "Anchor-0" 1242 0 basechar 0
LayerCount: 2
UndoRedoHistory
Layer: 1
Undoes
UndoOperation
Index: 0
Type: 1
WasModified: 0
WasOrder2: 0
Layer: 2
Width: 1241
VWidth: 2048
LBearingChange: 0
UnicodeEnc: 0
InstructionsLength: 0
EndUndoOperation
UndoOperation
Index: 1
Type: 3
WasModified: 0
WasOrder2: 0
Layer: 2
EndUndoOperation
EndUndoes
Redoes
EndRedoes
EndUndoRedoHistory
Fore
SplineSet
1830 -820 m 1
 1830 430 l 1
 1810 430 l 1
 1764 296 1676 182 1548 88 c 0
 1422 -4 1278 -50 1118 -50 c 0
 832 -50 604 52 436 256 c 0
 264 462 180 736 180 1082 c 0
 180 1428 266 1702 436 1908 c 0
 606 2114 834 2216 1118 2216 c 0
 1284 2216 1432 2172 1564 2082 c 0
 1698 1992 1788 1882 1836 1748 c 1
 1856 1748 l 1
 1856 2166 l 1
 2180 2166 l 1
 2180 -820 l 1
 1830 -820 l 1
544 1082 m 0
 544 824 602 620 716 470 c 0
 830 320 988 246 1188 246 c 0
 1382 246 1542 324 1668 480 c 0
 1794 638 1856 838 1856 1082 c 0
 1856 1340 1796 1546 1676 1696 c 0
 1558 1846 1394 1922 1188 1922 c 0
 988 1922 830 1846 716 1696 c 0
 602 1546 544 1340 544 1082 c 0
EndSplineSet
Substitution2: "'sups' Superscript in Latin lookup 13 subtable" q.sups
Substitution2: "'aalt' Access All Alternates in Latin lookup 0 subtable" q.sups
EndChar

StartChar: r
Encoding: 114 114 84
Width: 1428
GlyphClass: 2
Flags: HW
AnchorPoint: "Anchor-2" 860 2166 basechar 0
AnchorPoint: "Anchor-0" 480 0 basechar 0
LayerCount: 2
UndoRedoHistory
Layer: 1
Undoes
UndoOperation
Index: 0
Type: 1
WasModified: 0
WasOrder2: 0
Layer: 2
Width: 714
VWidth: 2048
LBearingChange: 0
UnicodeEnc: 0
InstructionsLength: 0
EndUndoOperation
UndoOperation
Index: 1
Type: 3
WasModified: 0
WasOrder2: 0
Layer: 2
EndUndoOperation
EndUndoes
Redoes
EndRedoes
EndUndoRedoHistory
Fore
SplineSet
304 0 m 1
 304 2166 l 1
 626 2166 l 1
 626 1748 l 1
 638 1748 l 1
 676 1890 746 2002 848 2088 c 0
 952 2174 1072 2216 1208 2216 c 0
 1266 2216 1312 2210 1348 2196 c 1
 1348 1880 l 1
 1312 1888 1262 1892 1196 1892 c 0
 1036 1892 906 1838 804 1728 c 0
 702 1618 652 1478 652 1306 c 2
 652 0 l 1
 304 0 l 1
EndSplineSet
Substitution2: "'sups' Superscript in Latin lookup 13 subtable" r.sups
Substitution2: "'aalt' Access All Alternates in Latin lookup 0 subtable" r.sups
EndChar

StartChar: s
Encoding: 115 115 85
Width: 1994
GlyphClass: 2
Flags: HW
AnchorPoint: "Anchor-2" 1060 2166 basechar 0
AnchorPoint: "Anchor-0" 1012 0 basechar 0
LayerCount: 2
UndoRedoHistory
Layer: 1
Undoes
UndoOperation
Index: 0
Type: 1
WasModified: 0
WasOrder2: 0
Layer: 2
Width: 997
VWidth: 2048
LBearingChange: 0
UnicodeEnc: 0
InstructionsLength: 0
EndUndoOperation
UndoOperation
Index: 1
Type: 3
WasModified: 0
WasOrder2: 0
Layer: 2
EndUndoOperation
EndUndoes
Redoes
EndRedoes
EndUndoRedoHistory
Fore
SplineSet
1040 -50 m 0
 810 -50 618 -2 464 92 c 0
 312 186 206 324 144 504 c 1
 454 626 l 1
 500 486 570 384 668 324 c 0
 764 260 890 230 1044 230 c 0
 1194 230 1310 260 1388 320 c 0
 1468 380 1508 468 1508 582 c 0
 1508 672 1482 742 1428 792 c 0
 1374 844 1290 886 1172 918 c 2
 794 1016 l 2
 434 1110 254 1304 254 1598 c 0
 254 1784 328 1932 476 2046 c 0
 624 2160 818 2216 1056 2216 c 0
 1258 2216 1428 2176 1564 2092 c 0
 1704 2012 1798 1894 1852 1744 c 1
 1556 1626 l 1
 1468 1834 1300 1938 1052 1938 c 0
 906 1938 792 1910 716 1854 c 0
 636 1798 598 1716 598 1610 c 0
 598 1534 624 1470 676 1420 c 0
 730 1368 816 1326 938 1294 c 2
 1336 1192 l 2
 1680 1106 1852 908 1852 594 c 0
 1852 398 1778 242 1632 124 c 0
 1484 8 1286 -50 1040 -50 c 0
EndSplineSet
Substitution2: "'sups' Superscript in Latin lookup 13 subtable" s.sups
Substitution2: "'aalt' Access All Alternates in Latin lookup 0 subtable" s.sups
EndChar

StartChar: t
Encoding: 116 116 86
Width: 1506
GlyphClass: 2
Flags: HW
AnchorPoint: "Anchor-3" 1044 2888 basechar 0
AnchorPoint: "Anchor-2" 758 2166 basechar 0
AnchorPoint: "Anchor-0" 954 0 basechar 0
LayerCount: 2
UndoRedoHistory
Layer: 1
Undoes
UndoOperation
Index: 0
Type: 1
WasModified: 0
WasOrder2: 0
Layer: 2
Width: 753
VWidth: 2048
LBearingChange: 0
UnicodeEnc: 0
InstructionsLength: 0
EndUndoOperation
UndoOperation
Index: 1
Type: 3
WasModified: 0
WasOrder2: 0
Layer: 2
EndUndoOperation
EndUndoes
Redoes
EndRedoes
EndUndoRedoHistory
Fore
SplineSet
1090 -40 m 0
 718 -40 532 162 532 566 c 2
 532 1900 l 1
 132 1900 l 1
 132 2166 l 1
 532 2166 l 1
 532 2654 l 1
 880 2876 l 1
 880 2166 l 1
 1380 2166 l 1
 1380 1900 l 1
 880 1900 l 1
 880 602 l 2
 880 370 976 254 1168 254 c 0
 1242 254 1312 270 1380 304 c 1
 1380 16 l 1
 1304 -22 1208 -40 1090 -40 c 0
EndSplineSet
Substitution2: "'sups' Superscript in Latin lookup 13 subtable" t.sups
Substitution2: "'aalt' Access All Alternates in Latin lookup 0 subtable" t.sups
EndChar

StartChar: u
Encoding: 117 117 87
Width: 2300
GlyphClass: 2
Flags: HW
AnchorPoint: "Anchor-3" 1672 2166 basechar 0
AnchorPoint: "Anchor-2" 1150 2166 basechar 0
AnchorPoint: "Anchor-1" 1606 0 basechar 0
AnchorPoint: "Anchor-0" 1150 0 basechar 0
LayerCount: 2
UndoRedoHistory
Layer: 1
Undoes
UndoOperation
Index: 0
Type: 1
WasModified: 0
WasOrder2: 0
Layer: 2
Width: 1150
VWidth: 2048
LBearingChange: 0
UnicodeEnc: 0
InstructionsLength: 0
EndUndoOperation
UndoOperation
Index: 1
Type: 3
WasModified: 0
WasOrder2: 0
Layer: 2
EndUndoOperation
EndUndoes
Redoes
EndRedoes
EndUndoRedoHistory
Fore
SplineSet
1150 -50 m 0
 868 -50 654 24 504 172 c 0
 356 320 282 544 282 844 c 2
 282 2166 l 1
 630 2166 l 1
 630 848 l 2
 630 646 676 496 768 398 c 0
 860 300 988 250 1150 250 c 0
 1312 250 1438 300 1532 398 c 0
 1626 496 1672 646 1672 848 c 2
 1672 2166 l 1
 2020 2166 l 1
 2020 844 l 2
 2020 546 1944 322 1796 172 c 0
 1644 24 1430 -50 1150 -50 c 0
EndSplineSet
Substitution2: "'sups' Superscript in Latin lookup 13 subtable" u.sups
Substitution2: "'aalt' Access All Alternates in Latin lookup 0 subtable" u.sups
EndChar

StartChar: v
Encoding: 118 118 88
Width: 2142
GlyphClass: 2
Flags: HW
AnchorPoint: "Anchor-2" 1074 2166 basechar 0
AnchorPoint: "Anchor-0" 1074 0 basechar 0
LayerCount: 2
UndoRedoHistory
Layer: 1
Undoes
UndoOperation
Index: 0
Type: 1
WasModified: 0
WasOrder2: 0
Layer: 2
Width: 1071
VWidth: 2048
LBearingChange: 0
UnicodeEnc: 0
InstructionsLength: 0
EndUndoOperation
UndoOperation
Index: 1
Type: 3
WasModified: 0
WasOrder2: 0
Layer: 2
EndUndoOperation
EndUndoes
Redoes
EndRedoes
EndUndoRedoHistory
Fore
SplineSet
824 0 m 1
 78 2166 l 1
 454 2166 l 1
 1060 230 l 1
 1082 230 l 1
 1688 2166 l 1
 2064 2166 l 1
 1318 0 l 1
 824 0 l 1
EndSplineSet
Substitution2: "'sups' Superscript in Latin lookup 13 subtable" v.sups
Substitution2: "'aalt' Access All Alternates in Latin lookup 0 subtable" v.sups
EndChar

StartChar: w
Encoding: 119 119 89
Width: 3148
GlyphClass: 2
Flags: HW
AnchorPoint: "Anchor-2" 1582 2166 basechar 0
AnchorPoint: "Anchor-0" 1582 0 basechar 0
LayerCount: 2
UndoRedoHistory
Layer: 1
Undoes
UndoOperation
Index: 0
Type: 1
WasModified: 0
WasOrder2: 0
Layer: 2
Width: 1574
VWidth: 2048
LBearingChange: 0
UnicodeEnc: 0
InstructionsLength: 0
EndUndoOperation
UndoOperation
Index: 1
Type: 3
WasModified: 0
WasOrder2: 0
Layer: 2
EndUndoOperation
EndUndoes
Redoes
EndRedoes
EndUndoRedoHistory
Fore
SplineSet
638 0 m 1
 102 2166 l 1
 450 2166 l 1
 876 238 l 1
 888 238 l 1
 1328 2166 l 1
 1826 2166 l 1
 2260 238 l 1
 2278 238 l 1
 2700 2166 l 1
 3048 2166 l 1
 2514 0 l 1
 2024 0 l 1
 1586 1934 l 1
 1564 1934 l 1
 1126 0 l 1
 638 0 l 1
EndSplineSet
Substitution2: "'sups' Superscript in Latin lookup 13 subtable" w.sups
Substitution2: "'aalt' Access All Alternates in Latin lookup 0 subtable" w.sups
EndChar

StartChar: x
Encoding: 120 120 90
Width: 2162
GlyphClass: 2
Flags: HW
AnchorPoint: "Anchor-2" 1082 2166 basechar 0
AnchorPoint: "Anchor-0" 1082 0 basechar 0
LayerCount: 2
UndoRedoHistory
Layer: 1
Undoes
UndoOperation
Index: 0
Type: 1
WasModified: 0
WasOrder2: 0
Layer: 2
Width: 1081
VWidth: 2048
LBearingChange: 0
UnicodeEnc: 0
InstructionsLength: 0
EndUndoOperation
UndoOperation
Index: 1
Type: 3
WasModified: 0
WasOrder2: 0
Layer: 2
EndUndoOperation
EndUndoes
Redoes
EndRedoes
EndUndoRedoHistory
Fore
SplineSet
1688 0 m 1
 1090 938 l 1
 1070 938 l 1
 476 0 l 1
 82 0 l 1
 844 1142 l 1
 172 2166 l 1
 566 2166 l 1
 1074 1348 l 1
 1090 1348 l 1
 1582 2166 l 1
 1974 2166 l 1
 1310 1146 l 1
 2080 0 l 1
 1688 0 l 1
EndSplineSet
Substitution2: "'sups' Superscript in Latin lookup 13 subtable" x.sups
Substitution2: "'aalt' Access All Alternates in Latin lookup 0 subtable" x.sups
EndChar

StartChar: y
Encoding: 121 121 91
Width: 2170
GlyphClass: 2
Flags: HW
AnchorPoint: "Anchor-2" 1056 2166 basechar 0
AnchorPoint: "Anchor-0" 1668 0 basechar 0
LayerCount: 2
UndoRedoHistory
Layer: 1
Undoes
UndoOperation
Index: 0
Type: 1
WasModified: 0
WasOrder2: 0
Layer: 2
Width: 1085
VWidth: 2048
LBearingChange: 0
UnicodeEnc: 0
InstructionsLength: 0
EndUndoOperation
UndoOperation
Index: 1
Type: 3
WasModified: 0
WasOrder2: 0
Layer: 2
EndUndoOperation
EndUndoes
Redoes
EndRedoes
EndUndoRedoHistory
Fore
SplineSet
652 -820 m 1
 930 -110 l 1
 78 2166 l 1
 450 2166 l 1
 1090 304 l 1
 1106 304 l 1
 1720 2166 l 1
 2094 2166 l 1
 1012 -820 l 1
 652 -820 l 1
EndSplineSet
Substitution2: "'sups' Superscript in Latin lookup 13 subtable" y.sups
Substitution2: "'aalt' Access All Alternates in Latin lookup 0 subtable" y.sups
EndChar

StartChar: z
Encoding: 122 122 92
Width: 2134
GlyphClass: 2
Flags: HW
AnchorPoint: "Anchor-2" 1064 2166 basechar 0
AnchorPoint: "Anchor-0" 1064 0 basechar 0
LayerCount: 2
UndoRedoHistory
Layer: 1
Undoes
UndoOperation
Index: 0
Type: 1
WasModified: 0
WasOrder2: 0
Layer: 2
Width: 1067
VWidth: 2048
LBearingChange: 0
UnicodeEnc: 0
InstructionsLength: 0
EndUndoOperation
UndoOperation
Index: 1
Type: 3
WasModified: 0
WasOrder2: 0
Layer: 2
EndUndoOperation
EndUndoes
Redoes
EndRedoes
EndUndoRedoHistory
Fore
SplineSet
188 0 m 1
 188 430 l 1
 1556 1856 l 1
 1556 1872 l 1
 234 1872 l 1
 234 2166 l 1
 1860 2166 l 1
 1860 1740 l 1
 492 312 l 1
 492 294 l 1
 1950 294 l 1
 1950 0 l 1
 188 0 l 1
EndSplineSet
Substitution2: "'sups' Superscript in Latin lookup 13 subtable" z.sups
Substitution2: "'aalt' Access All Alternates in Latin lookup 0 subtable" z.sups
EndChar

StartChar: braceleft
Encoding: 123 123 93
Width: 1662
GlyphClass: 2
Flags: HW
LayerCount: 2
UndoRedoHistory
Layer: 1
Undoes
UndoOperation
Index: 0
Type: 1
WasModified: 0
WasOrder2: 0
Layer: 2
Width: 831
VWidth: 2048
LBearingChange: 0
UnicodeEnc: 0
InstructionsLength: 0
EndUndoOperation
UndoOperation
Index: 1
Type: 3
WasModified: 0
WasOrder2: 0
Layer: 2
EndUndoOperation
EndUndoes
Redoes
EndRedoes
EndUndoRedoHistory
Fore
SplineSet
1012 -82 m 2
 1012 -184 1034 -256 1080 -304 c 0
 1124 -348 1192 -372 1286 -372 c 2
 1470 -372 l 1
 1470 -656 l 1
 1242 -656 l 2
 1060 -656 922 -610 824 -518 c 0
 728 -426 680 -290 680 -110 c 2
 680 668 l 2
 680 802 652 898 598 960 c 0
 544 1022 454 1052 332 1052 c 2
 230 1052 l 1
 230 1372 l 1
 332 1372 l 2
 454 1372 544 1404 598 1464 c 0
 652 1528 680 1624 680 1758 c 2
 680 2536 l 2
 680 2716 728 2852 824 2944 c 0
 920 3034 1060 3080 1242 3080 c 2
 1470 3080 l 1
 1470 2798 l 1
 1286 2798 l 2
 1192 2798 1124 2774 1080 2728 c 0
 1034 2682 1012 2608 1012 2506 c 2
 1012 1754 l 2
 1012 1588 980 1462 916 1376 c 0
 850 1292 750 1242 614 1228 c 1
 614 1196 l 1
 750 1182 850 1132 916 1048 c 0
 980 964 1012 838 1012 672 c 2
 1012 -82 l 2
EndSplineSet
Substitution2: "'case' Case-Sensitive Forms in Latin lookup 23 subtable" braceleft.case
Substitution2: "'aalt' Access All Alternates in Latin lookup 0 subtable" braceleft.case
EndChar

StartChar: bar
Encoding: 124 124 94
Width: 1048
GlyphClass: 2
Flags: HW
LayerCount: 2
UndoRedoHistory
Layer: 1
Undoes
UndoOperation
Index: 0
Type: 1
WasModified: 0
WasOrder2: 0
Layer: 2
Width: 524
VWidth: 2048
LBearingChange: 0
UnicodeEnc: 0
InstructionsLength: 0
EndUndoOperation
UndoOperation
Index: 1
Type: 3
WasModified: 0
WasOrder2: 0
Layer: 2
EndUndoOperation
EndUndoes
Redoes
EndRedoes
EndUndoRedoHistory
Fore
SplineSet
364 -492 m 1
 364 2958 l 1
 684 2958 l 1
 684 -492 l 1
 364 -492 l 1
EndSplineSet
Substitution2: "'case' Case-Sensitive Forms in Latin lookup 23 subtable" bar.case
Substitution2: "'aalt' Access All Alternates in Latin lookup 0 subtable" bar.case
EndChar

StartChar: braceright
Encoding: 125 125 95
Width: 1662
GlyphClass: 2
Flags: HW
LayerCount: 2
UndoRedoHistory
Layer: 1
Undoes
UndoOperation
Index: 0
Type: 1
WasModified: 0
WasOrder2: 0
Layer: 2
Width: 831
VWidth: 2048
LBearingChange: 0
UnicodeEnc: 0
InstructionsLength: 0
EndUndoOperation
UndoOperation
Index: 1
Type: 3
WasModified: 0
WasOrder2: 0
Layer: 2
EndUndoOperation
EndUndoes
Redoes
EndRedoes
EndUndoRedoHistory
Fore
SplineSet
1048 1228 m 1
 912 1242 812 1292 748 1376 c 0
 684 1462 652 1588 652 1754 c 2
 652 2506 l 2
 652 2608 630 2682 584 2728 c 0
 538 2774 470 2798 376 2798 c 2
 192 2798 l 1
 192 3080 l 1
 422 3080 l 2
 604 3080 744 3034 840 2944 c 0
 936 2852 984 2716 984 2536 c 2
 984 1758 l 2
 984 1624 1012 1528 1066 1464 c 0
 1120 1404 1210 1372 1332 1372 c 2
 1434 1372 l 1
 1434 1052 l 1
 1332 1052 l 2
 1210 1052 1120 1022 1066 960 c 0
 1012 898 984 802 984 668 c 2
 984 -110 l 2
 984 -290 936 -426 840 -518 c 0
 742 -610 604 -656 422 -656 c 2
 192 -656 l 1
 192 -372 l 1
 376 -372 l 2
 470 -372 538 -348 584 -302 c 0
 630 -256 652 -182 652 -82 c 2
 652 672 l 2
 652 838 684 964 748 1048 c 0
 812 1132 912 1182 1048 1196 c 1
 1048 1228 l 1
EndSplineSet
Substitution2: "'case' Case-Sensitive Forms in Latin lookup 23 subtable" braceright.case
Substitution2: "'aalt' Access All Alternates in Latin lookup 0 subtable" braceright.case
EndChar

StartChar: asciitilde
Encoding: 126 126 96
Width: 2784
GlyphClass: 2
Flags: HW
LayerCount: 2
UndoRedoHistory
Layer: 1
Undoes
UndoOperation
Index: 0
Type: 1
WasModified: 0
WasOrder2: 0
Layer: 2
Width: 1392
VWidth: 2048
LBearingChange: 0
UnicodeEnc: 0
InstructionsLength: 0
EndUndoOperation
UndoOperation
Index: 1
Type: 3
WasModified: 0
WasOrder2: 0
Layer: 2
EndUndoOperation
EndUndoes
Redoes
EndRedoes
EndUndoRedoHistory
Fore
SplineSet
2490 1446 m 1
 2464 1244 2398 1086 2290 972 c 0
 2182 858 2042 802 1872 802 c 0
 1720 802 1566 860 1410 974 c 2
 1216 1126 l 2
 1110 1208 1012 1250 926 1250 c 0
 840 1250 770 1218 712 1152 c 0
 654 1086 618 996 602 880 c 1
 294 880 l 1
 320 1082 388 1240 496 1354 c 0
 604 1468 744 1524 914 1524 c 0
 1000 1524 1080 1510 1152 1480 c 0
 1222 1452 1298 1410 1376 1352 c 2
 1568 1200 l 2
 1678 1118 1774 1078 1860 1078 c 0
 1946 1078 2020 1110 2076 1176 c 0
 2136 1240 2170 1330 2184 1446 c 1
 2490 1446 l 1
EndSplineSet
EndChar

StartChar: exclamdown
Encoding: 161 161 98
Width: 1404
GlyphClass: 2
Flags: HW
LayerCount: 2
UndoRedoHistory
Layer: 1
Undoes
UndoOperation
Index: 0
Type: 1
WasModified: 0
WasOrder2: 0
Layer: 2
Width: 702
VWidth: 2048
LBearingChange: 0
UnicodeEnc: 0
InstructionsLength: 0
EndUndoOperation
UndoOperation
Index: 1
Type: 3
WasModified: 0
WasOrder2: 0
Layer: 2
EndUndoOperation
EndUndoes
Redoes
EndRedoes
EndUndoRedoHistory
Fore
SplineSet
520 1242 m 1
 888 1242 l 1
 888 -766 l 1
 520 -766 l 1
 520 1242 l 1
426 1864 m 0
 426 1942 452 2008 506 2060 c 0
 560 2116 624 2142 700 2142 c 0
 780 2142 846 2116 900 2062 c 0
 952 2008 978 1942 978 1864 c 0
 978 1786 952 1720 900 1668 c 0
 846 1616 780 1590 700 1590 c 0
 624 1590 560 1616 506 1668 c 0
 452 1722 426 1786 426 1864 c 0
EndSplineSet
Substitution2: "'case' Case-Sensitive Forms in Latin lookup 23 subtable" exclamdown.case
Substitution2: "'aalt' Access All Alternates in Latin lookup 0 subtable" exclamdown.case
EndChar

StartChar: cent
Encoding: 162 162 99
Width: 2158
GlyphClass: 2
Flags: HW
LayerCount: 2
UndoRedoHistory
Layer: 1
Undoes
UndoOperation
Index: 0
Type: 1
WasModified: 0
WasOrder2: 0
Layer: 2
Width: 1079
VWidth: 2048
LBearingChange: 0
UnicodeEnc: 0
InstructionsLength: 0
EndUndoOperation
UndoOperation
Index: 1
Type: 3
WasModified: 0
WasOrder2: 0
Layer: 2
EndUndoOperation
EndUndoes
Redoes
EndRedoes
EndUndoRedoHistory
Fore
SplineSet
1762 1646 m 1
 1712 1772 1646 1866 1568 1930 c 0
 1488 1994 1390 2034 1274 2048 c 1
 1274 458 l 1
 1390 472 1488 512 1568 576 c 0
 1646 640 1712 734 1762 860 c 1
 2056 746 l 1
 1930 380 1668 184 1274 160 c 1
 1274 -196 l 1
 1036 -196 l 1
 1036 164 l 1
 784 198 580 312 420 504 c 0
 264 694 184 944 184 1254 c 0
 184 1564 262 1812 420 2002 c 0
 578 2192 782 2304 1036 2338 c 1
 1036 2674 l 1
 1274 2674 l 1
 1274 2342 l 1
 1670 2318 1930 2124 2056 1758 c 1
 1762 1646 l 1
536 1254 m 0
 536 1024 582 844 676 714 c 0
 768 584 888 502 1036 472 c 1
 1036 2036 l 1
 888 2006 768 1924 676 1794 c 0
 582 1664 536 1484 536 1254 c 0
EndSplineSet
Substitution2: "'tnum' Tabular Numbers in Latin lookup 21 subtable" cent.tf
Substitution2: "'aalt' Access All Alternates in Latin lookup 0 subtable" cent.tf
EndChar

StartChar: sterling
Encoding: 163 163 100
Width: 2486
GlyphClass: 2
Flags: HW
LayerCount: 2
UndoRedoHistory
Layer: 1
Undoes
UndoOperation
Index: 0
Type: 1
WasModified: 0
WasOrder2: 0
Layer: 2
Width: 1243
VWidth: 2048
LBearingChange: 0
UnicodeEnc: 0
InstructionsLength: 0
EndUndoOperation
UndoOperation
Index: 1
Type: 3
WasModified: 0
WasOrder2: 0
Layer: 2
EndUndoOperation
EndUndoes
Redoes
EndRedoes
EndUndoRedoHistory
Fore
SplineSet
300 308 m 1
 482 398 612 498 690 608 c 0
 768 718 806 850 806 1000 c 0
 806 1100 788 1212 750 1336 c 1
 300 1336 l 1
 300 1572 l 1
 664 1572 l 1
 578 1794 536 1982 536 2134 c 0
 536 2380 620 2580 784 2732 c 0
 952 2882 1168 2958 1438 2958 c 0
 1656 2958 1840 2908 1988 2808 c 0
 2134 2708 2238 2562 2298 2368 c 1
 1982 2260 l 1
 1940 2390 1872 2490 1780 2560 c 0
 1684 2628 1568 2662 1430 2662 c 0
 1256 2662 1122 2612 1028 2512 c 0
 932 2410 884 2280 884 2118 c 0
 884 2060 892 1996 908 1926 c 0
 924 1856 940 1800 954 1758 c 0
 968 1716 992 1654 1024 1572 c 1
 1942 1572 l 1
 1942 1336 l 1
 1106 1336 l 1
 1140 1220 1156 1116 1156 1024 c 0
 1156 870 1118 732 1040 616 c 0
 962 496 856 402 720 332 c 1
 720 316 l 1
 2282 316 l 1
 2282 0 l 1
 300 0 l 1
 300 308 l 1
EndSplineSet
Substitution2: "'tnum' Tabular Numbers in Latin lookup 21 subtable" sterling.tf
Substitution2: "'aalt' Access All Alternates in Latin lookup 0 subtable" sterling.tf
EndChar

StartChar: currency
Encoding: 164 164 101
Width: 2280
GlyphClass: 2
Flags: HW
LayerCount: 2
UndoRedoHistory
Layer: 1
Undoes
UndoOperation
Index: 0
Type: 1
WasModified: 0
WasOrder2: 0
Layer: 2
Width: 1140
VWidth: 2048
LBearingChange: 0
UnicodeEnc: 0
InstructionsLength: 0
EndUndoOperation
UndoOperation
Index: 1
Type: 3
WasModified: 0
WasOrder2: 0
Layer: 2
EndUndoOperation
EndUndoes
Redoes
EndRedoes
EndUndoRedoHistory
Fore
SplineSet
1134 590 m 0
 972 590 826 630 700 712 c 1
 426 438 l 1
 218 648 l 1
 492 922 l 1
 404 1052 360 1200 360 1364 c 0
 360 1530 402 1676 488 1802 c 1
 204 2080 l 1
 414 2294 l 1
 696 2012 l 1
 822 2096 968 2138 1134 2138 c 0
 1300 2138 1448 2094 1582 2008 c 1
 1852 2278 l 1
 2064 2068 l 1
 1790 1794 l 1
 1872 1672 1912 1528 1912 1364 c 0
 1912 1198 1870 1052 1786 926 c 1
 2076 634 l 1
 1864 422 l 1
 1568 716 l 1
 1442 632 1298 590 1134 590 c 0
648 1364 m 0
 648 1220 694 1100 786 1006 c 0
 878 912 994 864 1134 864 c 0
 1276 864 1394 912 1488 1006 c 0
 1580 1100 1626 1220 1626 1364 c 0
 1626 1508 1580 1628 1488 1722 c 0
 1394 1816 1276 1864 1134 1864 c 0
 994 1864 878 1816 786 1722 c 0
 694 1628 648 1508 648 1364 c 0
EndSplineSet
Substitution2: "'tnum' Tabular Numbers in Latin lookup 21 subtable" currency.tf
Substitution2: "'aalt' Access All Alternates in Latin lookup 0 subtable" currency.tf
EndChar

StartChar: yen
Encoding: 165 165 102
Width: 2502
GlyphClass: 2
Flags: HW
LayerCount: 2
UndoRedoHistory
Layer: 1
Undoes
UndoOperation
Index: 0
Type: 1
WasModified: 0
WasOrder2: 0
Layer: 2
Width: 1251
VWidth: 2048
LBearingChange: 0
UnicodeEnc: 0
InstructionsLength: 0
EndUndoOperation
UndoOperation
Index: 1
Type: 3
WasModified: 0
WasOrder2: 0
Layer: 2
EndUndoOperation
EndUndoes
Redoes
EndRedoes
EndUndoRedoHistory
Fore
SplineSet
1074 0 m 1
 1074 704 l 1
 344 704 l 1
 344 926 l 1
 1074 926 l 1
 1074 1208 l 1
 344 1208 l 1
 344 1430 l 1
 1004 1430 l 1
 98 2888 l 1
 488 2888 l 1
 1254 1576 l 1
 2016 2888 l 1
 2404 2888 l 1
 1500 1430 l 1
 2162 1430 l 1
 2162 1208 l 1
 1430 1208 l 1
 1430 926 l 1
 2162 926 l 1
 2162 704 l 1
 1430 704 l 1
 1430 0 l 1
 1074 0 l 1
EndSplineSet
Substitution2: "'tnum' Tabular Numbers in Latin lookup 21 subtable" yen.tf
Substitution2: "'aalt' Access All Alternates in Latin lookup 0 subtable" yen.tf
EndChar

StartChar: section
Encoding: 167 167 103
Width: 2018
GlyphClass: 2
Flags: HW
LayerCount: 2
UndoRedoHistory
Layer: 1
Undoes
UndoOperation
Index: 0
Type: 1
WasModified: 0
WasOrder2: 0
Layer: 2
Width: 1009
VWidth: 2048
LBearingChange: 0
UnicodeEnc: 0
InstructionsLength: 0
EndUndoOperation
UndoOperation
Index: 1
Type: 3
WasModified: 0
WasOrder2: 0
Layer: 2
EndUndoOperation
EndUndoes
Redoes
EndRedoes
EndUndoRedoHistory
Fore
SplineSet
1016 -390 m 0
 798 -390 618 -342 476 -248 c 0
 332 -154 238 -18 192 156 c 1
 492 250 l 1
 578 10 754 -110 1016 -110 c 0
 1162 -110 1272 -84 1350 -30 c 0
 1428 24 1466 102 1466 208 c 0
 1466 286 1440 350 1388 404 c 0
 1336 456 1248 504 1122 548 c 2
 668 712 l 2
 510 766 392 836 310 920 c 0
 228 1006 188 1126 188 1282 c 0
 188 1410 224 1520 294 1608 c 0
 364 1700 468 1764 602 1802 c 1
 602 1818 l 1
 342 1936 212 2114 212 2352 c 0
 212 2536 286 2684 434 2792 c 0
 582 2904 774 2958 1008 2958 c 0
 1216 2958 1390 2916 1532 2832 c 0
 1672 2750 1768 2632 1818 2482 c 1
 1516 2376 l 1
 1426 2578 1258 2678 1008 2678 c 0
 862 2678 752 2652 674 2598 c 0
 596 2544 558 2466 558 2360 c 0
 558 2282 584 2218 636 2164 c 0
 690 2112 778 2064 902 2020 c 2
 1356 1860 l 2
 1514 1802 1632 1732 1714 1648 c 0
 1796 1562 1836 1444 1836 1290 c 0
 1836 1160 1800 1050 1730 960 c 0
 1660 870 1556 804 1422 766 c 1
 1422 750 l 1
 1554 692 1652 620 1716 534 c 0
 1782 448 1814 344 1814 222 c 0
 1814 36 1740 -112 1592 -224 c 0
 1444 -334 1252 -390 1016 -390 c 0
520 1318 m 0
 520 1236 544 1170 592 1120 c 0
 638 1068 718 1022 828 984 c 2
 1180 852 l 1
 1282 884 1362 934 1420 1004 c 0
 1476 1072 1504 1156 1504 1254 c 0
 1504 1336 1480 1402 1434 1452 c 0
 1388 1502 1308 1548 1196 1590 c 2
 840 1716 l 1
 738 1684 660 1634 604 1568 c 0
 548 1500 520 1416 520 1318 c 0
EndSplineSet
EndChar

StartChar: dieresis
Encoding: 168 168 104
Width: 1674
GlyphClass: 4
Flags: HW
AnchorPoint: "Anchor-5" 840 2966 basemark 0
LayerCount: 2
UndoRedoHistory
Layer: 1
Undoes
UndoOperation
Index: 0
Type: 1
WasModified: 0
WasOrder2: 0
Layer: 2
Width: 837
VWidth: 2048
LBearingChange: 0
UnicodeEnc: 0
InstructionsLength: 0
EndUndoOperation
UndoOperation
Index: 1
Type: 3
WasModified: 0
WasOrder2: 0
Layer: 2
EndUndoOperation
EndUndoes
Redoes
EndRedoes
EndUndoRedoHistory
Fore
SplineSet
1250 2580 m 0
 1190 2580 1138 2600 1096 2642 c 0
 1054 2684 1032 2736 1032 2798 c 0
 1032 2862 1054 2914 1096 2956 c 0
 1138 2998 1190 3018 1250 3018 c 0
 1312 3018 1364 2998 1408 2956 c 0
 1448 2916 1470 2864 1470 2798 c 0
 1470 2736 1448 2684 1406 2642 c 0
 1364 2600 1312 2580 1250 2580 c 0
204 2798 m 0
 204 2864 226 2916 268 2956 c 0
 310 2998 364 3018 426 3018 c 0
 486 3018 538 2998 580 2956 c 0
 622 2914 644 2862 644 2798 c 0
 644 2736 622 2684 580 2642 c 0
 538 2600 486 2580 426 2580 c 0
 364 2580 312 2600 268 2642 c 0
 226 2684 204 2736 204 2798 c 0
EndSplineSet
EndChar

StartChar: copyright
Encoding: 169 169 105
Width: 4258
GlyphClass: 2
Flags: HW
LayerCount: 2
UndoRedoHistory
Layer: 1
Undoes
UndoOperation
Index: 0
Type: 1
WasModified: 0
WasOrder2: 0
Layer: 2
Width: 2129
VWidth: 2048
LBearingChange: 0
UnicodeEnc: 0
InstructionsLength: 0
EndUndoOperation
UndoOperation
Index: 1
Type: 3
WasModified: 0
WasOrder2: 0
Layer: 2
EndUndoOperation
EndUndoes
Redoes
EndRedoes
EndUndoRedoHistory
Fore
SplineSet
2130 -450 m 0
 1860 -450 1608 -402 1374 -308 c 0
 1140 -212 938 -80 772 86 c 0
 604 252 472 454 376 690 c 0
 278 926 230 1180 230 1450 c 0
 230 1720 278 1974 376 2210 c 0
 472 2446 604 2648 772 2814 c 0
 938 2980 1140 3112 1374 3208 c 0
 1608 3302 1860 3350 2130 3350 c 0
 2398 3350 2650 3302 2884 3208 c 0
 3118 3112 3320 2980 3488 2814 c 0
 3656 2648 3788 2446 3884 2210 c 0
 3982 1974 4030 1720 4030 1450 c 0
 4030 1180 3982 926 3884 690 c 0
 3788 454 3656 252 3488 86 c 0
 3320 -80 3118 -212 2884 -308 c 0
 2650 -402 2398 -450 2130 -450 c 0
552 1450 m 0
 552 1140 620 860 754 614 c 0
 888 368 1076 174 1316 36 c 0
 1556 -102 1828 -172 2130 -172 c 0
 2432 -172 2702 -102 2942 36 c 0
 3182 174 3370 368 3504 616 c 0
 3638 862 3706 1140 3706 1450 c 0
 3706 1760 3638 2038 3504 2284 c 0
 3370 2532 3182 2726 2942 2864 c 0
 2702 3002 2432 3072 2130 3072 c 0
 1828 3072 1556 3002 1316 2864 c 0
 1076 2726 888 2532 754 2286 c 0
 620 2040 552 1760 552 1450 c 0
1294 1454 m 0
 1294 1754 1374 1996 1534 2180 c 0
 1694 2362 1904 2454 2162 2454 c 0
 2568 2454 2826 2280 2940 1934 c 1
 2650 1830 l 1
 2572 2072 2408 2192 2162 2192 c 0
 1992 2192 1860 2126 1764 1992 c 0
 1670 1860 1622 1680 1622 1454 c 0
 1622 1228 1670 1048 1768 912 c 0
 1864 780 1996 712 2162 712 c 0
 2410 712 2574 836 2654 1086 c 1
 2946 996 l 1
 2828 634 2568 454 2166 454 c 0
 1908 454 1698 546 1536 728 c 0
 1374 912 1294 1154 1294 1454 c 0
EndSplineSet
EndChar

StartChar: ordfeminine
Encoding: 170 170 106
Width: 2134
GlyphClass: 2
Flags: HW
LayerCount: 2
UndoRedoHistory
Layer: 1
Undoes
UndoOperation
Index: 0
Type: 1
WasModified: 0
WasOrder2: 0
Layer: 2
Width: 1067
VWidth: 2048
LBearingChange: 0
UnicodeEnc: 0
InstructionsLength: 0
EndUndoOperation
UndoOperation
Index: 1
Type: 3
WasModified: 0
WasOrder2: 0
Layer: 2
EndUndoOperation
EndUndoes
Redoes
EndRedoes
EndUndoRedoHistory
Fore
SplineSet
1508 1344 m 1
 1414 1590 l 1
 1392 1590 l 1
 1344 1504 1274 1434 1184 1384 c 0
 1094 1332 992 1306 880 1306 c 0
 708 1306 570 1348 464 1436 c 0
 360 1520 308 1634 308 1774 c 0
 308 1908 360 2018 466 2104 c 0
 572 2192 722 2248 918 2274 c 2
 1396 2330 l 1
 1396 2438 l 2
 1396 2532 1366 2608 1306 2664 c 0
 1246 2720 1158 2748 1044 2748 c 0
 838 2748 708 2664 656 2494 c 1
 356 2572 l 1
 396 2704 478 2806 604 2880 c 0
 728 2954 876 2990 1048 2990 c 0
 1268 2990 1434 2940 1548 2840 c 0
 1660 2740 1716 2600 1716 2420 c 2
 1716 1662 l 1
 1844 1344 l 1
 1508 1344 l 1
626 1786 m 0
 626 1712 656 1652 714 1612 c 0
 772 1568 852 1548 954 1548 c 0
 1088 1548 1194 1588 1276 1668 c 0
 1356 1750 1396 1860 1396 1998 c 2
 1396 2122 l 1
 1000 2072 l 2
 750 2044 626 1948 626 1786 c 0
EndSplineSet
EndChar

StartChar: guillemotleft
Encoding: 171 171 107
Width: 2534
GlyphClass: 2
Flags: HW
LayerCount: 2
UndoRedoHistory
Layer: 1
Undoes
UndoOperation
Index: 0
Type: 1
WasModified: 0
WasOrder2: 0
Layer: 2
Width: 1267
VWidth: 2048
LBearingChange: 0
UnicodeEnc: 0
InstructionsLength: 0
EndUndoOperation
UndoOperation
Index: 1
Type: 3
WasModified: 0
WasOrder2: 0
Layer: 2
EndUndoOperation
EndUndoes
Redoes
EndRedoes
EndUndoRedoHistory
Fore
SplineSet
372 1150 m 1
 934 1990 l 1
 1266 1990 l 1
 700 1150 l 1
 1266 312 l 1
 934 312 l 1
 372 1150 l 1
1270 1150 m 1
 1830 1990 l 1
 2158 1990 l 1
 1598 1150 l 1
 2158 312 l 1
 1830 312 l 1
 1270 1150 l 1
EndSplineSet
Substitution2: "'case' Case-Sensitive Forms in Latin lookup 23 subtable" guillemotleft.case
Substitution2: "'aalt' Access All Alternates in Latin lookup 0 subtable" guillemotleft.case
EndChar

StartChar: registered
Encoding: 174 174 108
Width: 2546
GlyphClass: 2
Flags: HW
LayerCount: 2
UndoRedoHistory
Layer: 1
Undoes
UndoOperation
Index: 0
Type: 1
WasModified: 0
WasOrder2: 0
Layer: 2
Width: 1273
VWidth: 2048
LBearingChange: 0
UnicodeEnc: 0
InstructionsLength: 0
EndUndoOperation
UndoOperation
Index: 1
Type: 3
WasModified: 0
WasOrder2: 0
Layer: 2
EndUndoOperation
EndUndoes
Redoes
EndRedoes
EndUndoRedoHistory
Fore
SplineSet
1274 868 m 0
 976 868 728 968 528 1166 c 0
 330 1364 230 1614 230 1912 c 0
 230 2210 330 2460 528 2660 c 0
 728 2858 976 2958 1274 2958 c 0
 1572 2958 1820 2858 2020 2660 c 0
 2218 2460 2318 2210 2318 1912 c 0
 2318 1614 2218 1364 2020 1166 c 0
 1820 968 1572 868 1274 868 c 0
462 1912 m 0
 462 1672 538 1474 692 1316 c 0
 844 1160 1038 1082 1274 1082 c 0
 1508 1082 1700 1160 1854 1316 c 0
 2008 1474 2084 1672 2084 1912 c 0
 2084 2152 2008 2350 1854 2508 c 0
 1700 2666 1508 2744 1274 2744 c 0
 1038 2744 844 2666 692 2508 c 0
 538 2350 462 2152 462 1912 c 0
868 1372 m 1
 868 2482 l 1
 1310 2482 l 2
 1432 2482 1528 2452 1598 2394 c 0
 1668 2336 1704 2256 1704 2154 c 0
 1704 2072 1682 2004 1640 1950 c 0
 1596 1896 1536 1858 1458 1840 c 1
 1736 1372 l 1
 1486 1372 l 1
 1236 1814 l 1
 1090 1814 l 1
 1090 1372 l 1
 868 1372 l 1
1090 1974 m 1
 1278 1974 l 2
 1412 1974 1478 2030 1478 2142 c 0
 1478 2196 1460 2238 1426 2268 c 0
 1392 2296 1342 2310 1278 2310 c 2
 1090 2310 l 1
 1090 1974 l 1
EndSplineSet
EndChar

StartChar: macron
Encoding: 175 175 109
Width: 1608
GlyphClass: 4
Flags: HW
AnchorPoint: "Anchor-5" 806 2896 basemark 0
LayerCount: 2
UndoRedoHistory
Layer: 1
Undoes
UndoOperation
Index: 0
Type: 1
WasModified: 0
WasOrder2: 0
Layer: 2
Width: 804
VWidth: 2048
LBearingChange: 0
UnicodeEnc: 0
InstructionsLength: 0
EndUndoOperation
UndoOperation
Index: 1
Type: 3
WasModified: 0
WasOrder2: 0
Layer: 2
EndUndoOperation
EndUndoes
Redoes
EndRedoes
EndUndoRedoHistory
Fore
SplineSet
204 2892 m 1
 1404 2892 l 1
 1404 2618 l 1
 204 2618 l 1
 204 2892 l 1
EndSplineSet
EndChar

StartChar: degree
Encoding: 176 176 110
Width: 1842
GlyphClass: 2
Flags: HW
LayerCount: 2
UndoRedoHistory
Layer: 1
Undoes
UndoOperation
Index: 0
Type: 1
WasModified: 0
WasOrder2: 0
Layer: 2
Width: 921
VWidth: 2048
LBearingChange: 0
UnicodeEnc: 0
InstructionsLength: 0
EndUndoOperation
UndoOperation
Index: 1
Type: 3
WasModified: 0
WasOrder2: 0
Layer: 2
EndUndoOperation
EndUndoes
Redoes
EndRedoes
EndUndoRedoHistory
Fore
SplineSet
922 1400 m 0
 696 1400 510 1474 364 1622 c 0
 218 1770 144 1958 144 2184 c 0
 144 2406 218 2592 364 2738 c 0
 510 2884 696 2958 922 2958 c 0
 1148 2958 1334 2884 1480 2738 c 0
 1626 2592 1700 2406 1700 2184 c 0
 1700 1958 1626 1770 1480 1622 c 0
 1334 1474 1148 1400 922 1400 c 0
450 2184 m 0
 450 2038 494 1920 582 1824 c 0
 670 1732 784 1684 922 1684 c 0
 1060 1684 1172 1732 1260 1824 c 0
 1344 1920 1388 2038 1388 2184 c 0
 1388 2326 1344 2444 1258 2536 c 0
 1172 2628 1060 2674 922 2674 c 0
 784 2674 670 2628 582 2536 c 0
 494 2442 450 2326 450 2184 c 0
EndSplineSet
EndChar

StartChar: plusminus
Encoding: 177 177 111
Width: 2784
GlyphClass: 2
Flags: HW
LayerCount: 2
UndoRedoHistory
Layer: 1
Undoes
UndoOperation
Index: 0
Type: 1
WasModified: 0
WasOrder2: 0
Layer: 2
Width: 1392
VWidth: 2048
LBearingChange: 0
UnicodeEnc: 0
InstructionsLength: 0
EndUndoOperation
UndoOperation
Index: 1
Type: 3
WasModified: 0
WasOrder2: 0
Layer: 2
EndUndoOperation
EndUndoes
Redoes
EndRedoes
EndUndoRedoHistory
Fore
SplineSet
2338 1582 m 1
 2338 1290 l 1
 1540 1290 l 1
 1540 492 l 1
 1246 492 l 1
 1246 1290 l 1
 446 1290 l 1
 446 1582 l 1
 1246 1582 l 1
 1246 2376 l 1
 1540 2376 l 1
 1540 1582 l 1
 2338 1582 l 1
446 0 m 1
 446 300 l 1
 2338 300 l 1
 2338 0 l 1
 446 0 l 1
EndSplineSet
Substitution2: "Single Substitution lookup 34 subtable" plusminus.case
Substitution2: "'case' Case-Sensitive Forms in Latin lookup 23 subtable" plusminus.case
Substitution2: "'aalt' Access All Alternates in Latin lookup 0 subtable" plusminus.case
EndChar

StartChar: uni00B2
Encoding: 178 178 112
Width: 2354
GlyphClass: 2
Flags: HW
LayerCount: 2
UndoRedoHistory
Layer: 1
Undoes
UndoOperation
Index: 0
Type: 1
WasModified: 0
WasOrder2: 0
Layer: 2
Width: 1177
VWidth: 2048
LBearingChange: 0
UnicodeEnc: 0
InstructionsLength: 0
EndUndoOperation
UndoOperation
Index: 1
Type: 3
WasModified: 0
WasOrder2: 0
Layer: 2
EndUndoOperation
EndUndoes
Redoes
EndRedoes
EndUndoRedoHistory
Fore
SplineSet
410 1352 m 1
 410 1704 l 1
 1204 2342 l 2
 1338 2454 1434 2552 1488 2638 c 0
 1544 2724 1572 2812 1572 2904 c 0
 1572 3018 1534 3106 1460 3172 c 0
 1384 3236 1280 3268 1150 3268 c 0
 1016 3268 906 3232 820 3164 c 0
 734 3092 678 2992 652 2860 c 1
 344 2912 l 1
 374 3108 460 3262 604 3372 c 0
 750 3482 934 3538 1160 3538 c 0
 1394 3538 1576 3484 1708 3374 c 0
 1842 3264 1908 3114 1908 2920 c 0
 1908 2790 1870 2664 1792 2544 c 0
 1716 2426 1590 2296 1414 2154 c 2
 790 1650 l 1
 790 1634 l 1
 2020 1634 l 1
 2020 1352 l 1
 410 1352 l 1
EndSplineSet
EndChar

StartChar: uni00B3
Encoding: 179 179 113
Width: 2382
GlyphClass: 2
Flags: HW
LayerCount: 2
UndoRedoHistory
Layer: 1
Undoes
UndoOperation
Index: 0
Type: 1
WasModified: 0
WasOrder2: 0
Layer: 2
Width: 1191
VWidth: 2048
LBearingChange: 0
UnicodeEnc: 0
InstructionsLength: 0
EndUndoOperation
UndoOperation
Index: 1
Type: 3
WasModified: 0
WasOrder2: 0
Layer: 2
EndUndoOperation
EndUndoes
Redoes
EndRedoes
EndUndoRedoHistory
Fore
SplineSet
1156 1298 m 0
 932 1298 744 1344 596 1436 c 0
 444 1528 340 1664 282 1844 c 1
 582 1942 l 1
 656 1692 850 1568 1160 1568 c 0
 1314 1568 1436 1608 1524 1688 c 0
 1610 1768 1654 1870 1654 1994 c 0
 1654 2122 1608 2220 1512 2288 c 0
 1420 2358 1288 2392 1118 2392 c 2
 840 2392 l 1
 840 2626 l 1
 1544 3190 l 1
 1544 3212 l 1
 418 3212 l 1
 418 3490 l 1
 1880 3490 l 1
 1880 3182 l 1
 1208 2642 l 1
 1208 2630 l 1
 1458 2626 1648 2568 1782 2456 c 0
 1916 2344 1982 2190 1982 1994 c 0
 1982 1788 1908 1622 1756 1492 c 0
 1608 1362 1406 1298 1156 1298 c 0
EndSplineSet
EndChar

StartChar: acute
Encoding: 180 180 114
Width: 1232
GlyphClass: 4
Flags: HW
AnchorPoint: "Anchor-5" 552 2970 basemark 0
LayerCount: 2
UndoRedoHistory
Layer: 1
Undoes
UndoOperation
Index: 0
Type: 1
WasModified: 0
WasOrder2: 0
Layer: 2
Width: 616
VWidth: 2048
LBearingChange: 0
UnicodeEnc: 0
InstructionsLength: 0
EndUndoOperation
UndoOperation
Index: 1
Type: 3
WasModified: 0
WasOrder2: 0
Layer: 2
EndUndoOperation
EndUndoes
Redoes
EndRedoes
EndUndoRedoHistory
Fore
SplineSet
656 3118 m 1
 1028 3118 l 1
 558 2442 l 1
 204 2442 l 1
 656 3118 l 1
EndSplineSet
EndChar

StartChar: paragraph
Encoding: 182 182 115
Width: 2608
GlyphClass: 2
Flags: HW
LayerCount: 2
UndoRedoHistory
Layer: 1
Undoes
UndoOperation
Index: 0
Type: 1
WasModified: 0
WasOrder2: 0
Layer: 2
Width: 1304
VWidth: 2048
LBearingChange: 0
UnicodeEnc: 0
InstructionsLength: 0
EndUndoOperation
UndoOperation
Index: 1
Type: 3
WasModified: 0
WasOrder2: 0
Layer: 2
EndUndoOperation
EndUndoes
Redoes
EndRedoes
EndUndoRedoHistory
Fore
SplineSet
1212 -480 m 1
 1212 1282 l 1
 1196 1282 l 2
 908 1282 674 1352 492 1496 c 0
 312 1636 222 1832 222 2080 c 0
 222 2330 312 2528 492 2672 c 0
 674 2816 910 2888 1200 2888 c 2
 1500 2888 l 1
 1500 -480 l 1
 1212 -480 l 1
1958 -480 m 1
 1958 2888 l 1
 2244 2888 l 1
 2244 -480 l 1
 1958 -480 l 1
EndSplineSet
EndChar

StartChar: periodcentered
Encoding: 183 183 116
Width: 1224
GlyphClass: 2
Flags: HW
LayerCount: 2
UndoRedoHistory
Layer: 1
Undoes
UndoOperation
Index: 0
Type: 1
WasModified: 0
WasOrder2: 0
Layer: 2
Width: 612
VWidth: 2048
LBearingChange: 0
UnicodeEnc: 0
InstructionsLength: 0
EndUndoOperation
UndoOperation
Index: 1
Type: 3
WasModified: 0
WasOrder2: 0
Layer: 2
EndUndoOperation
EndUndoes
Redoes
EndRedoes
EndUndoRedoHistory
Fore
SplineSet
610 910 m 0
 540 910 480 936 432 986 c 0
 380 1036 356 1098 356 1168 c 0
 356 1238 380 1300 432 1350 c 0
 480 1400 540 1426 610 1426 c 0
 684 1426 744 1400 794 1350 c 0
 844 1300 868 1238 868 1168 c 0
 868 1098 844 1036 794 986 c 0
 744 936 684 910 610 910 c 0
EndSplineSet
Substitution2: "Single Substitution lookup 31 subtable" periodcentered.loclCAT.case
Substitution2: "Single Substitution lookup 30 subtable" periodcentered.loclCAT
Substitution2: "'case' Case-Sensitive Forms in Latin lookup 23 subtable" periodcentered.case
AlternateSubs2: "'aalt' Access All Alternates in Latin lookup 1 subtable" periodcentered.loclCAT periodcentered.loclCAT.case periodcentered.case
EndChar

StartChar: cedilla
Encoding: 184 184 117
Width: 1268
GlyphClass: 4
Flags: HW
AnchorPoint: "Anchor-4" 558 -868 basemark 0
LayerCount: 2
UndoRedoHistory
Layer: 1
Undoes
UndoOperation
Index: 0
Type: 1
WasModified: 0
WasOrder2: 0
Layer: 2
Width: 634
VWidth: 2048
LBearingChange: 0
UnicodeEnc: 0
InstructionsLength: 0
EndUndoOperation
UndoOperation
Index: 1
Type: 3
WasModified: 0
WasOrder2: 0
Layer: 2
EndUndoOperation
EndUndoes
Redoes
EndRedoes
EndUndoRedoHistory
Fore
SplineSet
566 -992 m 0
 440 -992 320 -970 204 -926 c 1
 204 -704 l 1
 324 -748 432 -770 528 -770 c 0
 692 -770 774 -712 774 -598 c 0
 774 -540 756 -498 718 -472 c 0
 680 -444 622 -430 540 -430 c 0
 484 -430 426 -434 368 -442 c 1
 418 86 l 1
 668 86 l 1
 634 -234 l 1
 668 -234 l 2
 792 -234 888 -264 960 -328 c 0
 1028 -388 1064 -476 1064 -590 c 0
 1064 -716 1020 -816 934 -886 c 0
 848 -956 724 -992 566 -992 c 0
EndSplineSet
EndChar

StartChar: uni00B9
Encoding: 185 185 118
Width: 1826
GlyphClass: 2
Flags: HW
LayerCount: 2
UndoRedoHistory
Layer: 1
Undoes
UndoOperation
Index: 0
Type: 1
WasModified: 0
WasOrder2: 0
Layer: 2
Width: 913
VWidth: 2048
LBearingChange: 0
UnicodeEnc: 0
InstructionsLength: 0
EndUndoOperation
UndoOperation
Index: 1
Type: 3
WasModified: 0
WasOrder2: 0
Layer: 2
EndUndoOperation
EndUndoes
Redoes
EndRedoes
EndUndoRedoHistory
Fore
SplineSet
922 1352 m 1
 922 3204 l 1
 906 3204 l 1
 278 2666 l 1
 278 3018 l 1
 844 3490 l 1
 1254 3490 l 1
 1254 1352 l 1
 922 1352 l 1
EndSplineSet
EndChar

StartChar: ordmasculine
Encoding: 186 186 119
Width: 2292
GlyphClass: 2
Flags: HW
LayerCount: 2
UndoRedoHistory
Layer: 1
Undoes
UndoOperation
Index: 0
Type: 1
WasModified: 0
WasOrder2: 0
Layer: 2
Width: 1146
VWidth: 2048
LBearingChange: 0
UnicodeEnc: 0
InstructionsLength: 0
EndUndoOperation
UndoOperation
Index: 1
Type: 3
WasModified: 0
WasOrder2: 0
Layer: 2
EndUndoOperation
EndUndoes
Redoes
EndRedoes
EndUndoRedoHistory
Fore
SplineSet
1146 1306 m 0
 900 1306 700 1384 544 1538 c 0
 386 1692 308 1896 308 2146 c 0
 308 2400 386 2604 544 2760 c 0
 700 2912 900 2990 1146 2990 c 0
 1392 2990 1592 2912 1750 2760 c 0
 1908 2604 1986 2400 1986 2146 c 0
 1986 1896 1908 1692 1750 1538 c 0
 1592 1384 1392 1306 1146 1306 c 0
638 2146 m 0
 638 1956 686 1810 780 1710 c 0
 874 1610 996 1560 1146 1560 c 0
 1296 1560 1418 1610 1512 1710 c 0
 1606 1810 1654 1956 1654 2146 c 0
 1654 2340 1606 2486 1512 2586 c 0
 1418 2686 1296 2736 1146 2736 c 0
 996 2736 874 2686 780 2586 c 0
 686 2486 638 2340 638 2146 c 0
EndSplineSet
EndChar

StartChar: guillemotright
Encoding: 187 187 120
Width: 2530
GlyphClass: 2
Flags: HW
LayerCount: 2
UndoRedoHistory
Layer: 1
Undoes
UndoOperation
Index: 0
Type: 1
WasModified: 0
WasOrder2: 0
Layer: 2
Width: 1265
VWidth: 2048
LBearingChange: 0
UnicodeEnc: 0
InstructionsLength: 0
EndUndoOperation
UndoOperation
Index: 1
Type: 3
WasModified: 0
WasOrder2: 0
Layer: 2
EndUndoOperation
EndUndoes
Redoes
EndRedoes
EndUndoRedoHistory
Fore
SplineSet
372 312 m 1
 938 1150 l 1
 372 1990 l 1
 704 1990 l 1
 1266 1150 l 1
 704 312 l 1
 372 312 l 1
1270 312 m 1
 1836 1150 l 1
 1270 1990 l 1
 1598 1990 l 1
 2158 1150 l 1
 1598 312 l 1
 1270 312 l 1
EndSplineSet
Substitution2: "'case' Case-Sensitive Forms in Latin lookup 23 subtable" guillemotright.case
Substitution2: "'aalt' Access All Alternates in Latin lookup 0 subtable" guillemotright.case
EndChar

StartChar: onequarter
Encoding: 188 188 121
Width: 3378
GlyphClass: 2
Flags: HW
LayerCount: 2
UndoRedoHistory
Layer: 1
Undoes
UndoOperation
Index: 0
Type: 1
WasModified: 0
WasOrder2: 0
Layer: 2
Width: 1689
VWidth: 2048
LBearingChange: 0
UnicodeEnc: 0
InstructionsLength: 0
EndUndoOperation
UndoOperation
Index: 1
Type: 3
WasModified: 0
WasOrder2: 0
Layer: 2
EndUndoOperation
EndUndoes
Redoes
EndRedoes
EndUndoRedoHistory
Fore
SplineSet
692 1298 m 1
 692 2630 l 1
 680 2630 l 1
 204 2232 l 1
 204 2544 l 1
 630 2888 l 1
 988 2888 l 1
 988 1298 l 1
 692 1298 l 1
536 0 m 1
 2356 2888 l 1
 2666 2888 l 1
 848 0 l 1
 536 0 l 1
1754 344 m 1
 1754 622 l 1
 2544 1590 l 1
 2932 1590 l 1
 2932 586 l 1
 3174 586 l 1
 3174 344 l 1
 2932 344 l 1
 2932 0 l 1
 2626 0 l 1
 2626 344 l 1
 1754 344 l 1
1994 574 m 1
 2650 574 l 1
 2650 1368 l 1
 2638 1368 l 1
 1994 586 l 1
 1994 574 l 1
EndSplineSet
EndChar

StartChar: onehalf
Encoding: 189 189 122
Width: 3502
GlyphClass: 2
Flags: HW
LayerCount: 2
UndoRedoHistory
Layer: 1
Undoes
UndoOperation
Index: 0
Type: 1
WasModified: 0
WasOrder2: 0
Layer: 2
Width: 1751
VWidth: 2048
LBearingChange: 0
UnicodeEnc: 0
InstructionsLength: 0
EndUndoOperation
UndoOperation
Index: 1
Type: 3
WasModified: 0
WasOrder2: 0
Layer: 2
EndUndoOperation
EndUndoes
Redoes
EndRedoes
EndUndoRedoHistory
Fore
SplineSet
692 1298 m 1
 692 2630 l 1
 680 2630 l 1
 204 2232 l 1
 204 2544 l 1
 630 2888 l 1
 988 2888 l 1
 988 1298 l 1
 692 1298 l 1
536 0 m 1
 2356 2888 l 1
 2666 2888 l 1
 848 0 l 1
 536 0 l 1
2016 1150 m 1
 2036 1296 2102 1412 2212 1498 c 0
 2322 1584 2466 1626 2642 1626 c 0
 2820 1626 2962 1584 3064 1502 c 0
 3168 1420 3220 1308 3220 1168 c 0
 3220 1066 3192 972 3134 884 c 0
 3076 800 2986 710 2864 618 c 2
 2388 262 l 1
 2388 250 l 1
 3298 250 l 1
 3298 0 l 1
 2064 0 l 1
 2064 316 l 1
 2666 770 l 2
 2758 840 2824 906 2862 964 c 0
 2900 1022 2920 1084 2920 1146 c 0
 2920 1218 2894 1276 2844 1324 c 0
 2792 1368 2720 1392 2630 1392 c 0
 2536 1392 2460 1368 2400 1316 c 0
 2344 1268 2306 1196 2290 1102 c 1
 2016 1150 l 1
EndSplineSet
EndChar

StartChar: threequarters
Encoding: 190 190 123
Width: 3686
GlyphClass: 2
Flags: HW
LayerCount: 2
UndoRedoHistory
Layer: 1
Undoes
UndoOperation
Index: 0
Type: 1
WasModified: 0
WasOrder2: 0
Layer: 2
Width: 1843
VWidth: 2048
LBearingChange: 0
UnicodeEnc: 0
InstructionsLength: 0
EndUndoOperation
UndoOperation
Index: 1
Type: 3
WasModified: 0
WasOrder2: 0
Layer: 2
EndUndoOperation
EndUndoes
Redoes
EndRedoes
EndUndoRedoHistory
Fore
SplineSet
860 1262 m 0
 694 1262 552 1296 440 1364 c 0
 324 1430 246 1530 204 1662 c 1
 472 1744 l 1
 522 1578 654 1496 864 1496 c 0
 970 1496 1054 1522 1116 1576 c 0
 1178 1630 1208 1698 1208 1782 c 0
 1208 1868 1176 1934 1108 1980 c 0
 1044 2028 950 2052 832 2052 c 2
 610 2052 l 1
 610 2244 l 1
 1118 2626 l 1
 1118 2642 l 1
 308 2642 l 1
 308 2888 l 1
 1414 2888 l 1
 1414 2626 l 1
 942 2260 l 1
 942 2248 l 1
 1120 2246 1258 2204 1356 2122 c 0
 1452 2040 1500 1926 1500 1782 c 0
 1500 1628 1444 1502 1328 1406 c 0
 1216 1310 1058 1262 860 1262 c 0
852 0 m 1
 2670 2888 l 1
 2982 2888 l 1
 1168 0 l 1
 852 0 l 1
2060 344 m 1
 2060 622 l 1
 2850 1590 l 1
 3240 1590 l 1
 3240 586 l 1
 3482 586 l 1
 3482 344 l 1
 3240 344 l 1
 3240 0 l 1
 2932 0 l 1
 2932 344 l 1
 2060 344 l 1
2302 574 m 1
 2958 574 l 1
 2958 1368 l 1
 2946 1368 l 1
 2302 586 l 1
 2302 574 l 1
EndSplineSet
EndChar

StartChar: questiondown
Encoding: 191 191 124
Width: 2334
GlyphClass: 2
Flags: HW
LayerCount: 2
UndoRedoHistory
Layer: 1
Undoes
UndoOperation
Index: 0
Type: 1
WasModified: 0
WasOrder2: 0
Layer: 2
Width: 1167
VWidth: 2048
LBearingChange: 0
UnicodeEnc: 0
InstructionsLength: 0
EndUndoOperation
UndoOperation
Index: 1
Type: 3
WasModified: 0
WasOrder2: 0
Layer: 2
EndUndoOperation
EndUndoes
Redoes
EndRedoes
EndUndoRedoHistory
Fore
SplineSet
1414 1242 m 1
 1414 544 l 1
 1200 524 l 2
 1020 504 880 448 778 356 c 0
 676 262 626 142 626 -4 c 0
 626 -166 676 -292 778 -388 c 0
 880 -480 1016 -528 1188 -528 c 0
 1536 -528 1748 -358 1822 -16 c 1
 2166 -86 l 1
 2120 -330 2008 -516 1836 -644 c 0
 1660 -772 1438 -836 1168 -836 c 0
 888 -836 664 -760 492 -610 c 0
 324 -460 238 -258 238 -8 c 0
 238 200 312 376 464 524 c 0
 612 668 810 756 1056 786 c 1
 1056 1242 l 1
 1414 1242 l 1
962 1864 m 0
 962 1942 988 2008 1044 2060 c 0
 1096 2116 1164 2142 1242 2142 c 0
 1318 2142 1382 2116 1436 2060 c 0
 1490 2008 1516 1942 1516 1864 c 0
 1516 1786 1490 1722 1436 1668 c 0
 1382 1616 1318 1590 1242 1590 c 0
 1164 1590 1096 1616 1044 1668 c 0
 988 1722 962 1786 962 1864 c 0
EndSplineSet
Substitution2: "'case' Case-Sensitive Forms in Latin lookup 23 subtable" questiondown.case
Substitution2: "'aalt' Access All Alternates in Latin lookup 0 subtable" questiondown.case
EndChar

StartChar: Agrave
Encoding: 192 192 125
Width: 2756
GlyphClass: 2
Flags: HW
AnchorPoint: "Anchor-2" 1168 3706 basechar 0
AnchorPoint: "Anchor-1" 2650 0 basechar 0
AnchorPoint: "Anchor-0" 1380 0 basechar 0
LayerCount: 2
UndoRedoHistory
Layer: 1
Undoes
UndoOperation
Index: 0
Type: 1
WasModified: 0
WasOrder2: 0
Layer: 2
Width: 1378
VWidth: 2048
LBearingChange: 0
UnicodeEnc: 0
InstructionsLength: 0
EndUndoOperation
UndoOperation
Index: 1
Type: 3
WasModified: 0
WasOrder2: 0
Layer: 2
EndUndoOperation
EndUndoes
Redoes
EndRedoes
EndUndoRedoHistory
Fore
SplineSet
106 0 m 1
 1098 2888 l 1
 1658 2888 l 1
 2650 0 l 1
 2266 0 l 1
 1990 844 l 1
 766 844 l 1
 492 0 l 1
 106 0 l 1
778 3706 m 1
 1150 3706 l 1
 1552 3130 l 1
 1200 3130 l 1
 778 3706 l 1
864 1146 m 1
 1892 1146 l 1
 1388 2682 l 1
 1368 2682 l 1
 864 1146 l 1
EndSplineSet
EndChar

StartChar: Aacute
Encoding: 193 193 126
Width: 2756
GlyphClass: 2
Flags: HW
AnchorPoint: "Anchor-2" 1590 3706 basechar 0
AnchorPoint: "Anchor-1" 2650 0 basechar 0
AnchorPoint: "Anchor-0" 1380 0 basechar 0
LayerCount: 2
UndoRedoHistory
Layer: 1
Undoes
UndoOperation
Index: 0
Type: 1
WasModified: 0
WasOrder2: 0
Layer: 2
Width: 1378
VWidth: 2048
LBearingChange: 0
UnicodeEnc: 0
InstructionsLength: 0
EndUndoOperation
UndoOperation
Index: 1
Type: 3
WasModified: 0
WasOrder2: 0
Layer: 2
EndUndoOperation
EndUndoes
Redoes
EndRedoes
EndUndoRedoHistory
Fore
SplineSet
106 0 m 1
 1098 2888 l 1
 1658 2888 l 1
 2650 0 l 1
 2266 0 l 1
 1990 844 l 1
 766 844 l 1
 492 0 l 1
 106 0 l 1
864 1146 m 1
 1892 1146 l 1
 1388 2682 l 1
 1368 2682 l 1
 864 1146 l 1
1200 3130 m 1
 1602 3706 l 1
 1974 3706 l 1
 1552 3130 l 1
 1200 3130 l 1
EndSplineSet
EndChar

StartChar: Acircumflex
Encoding: 194 194 127
Width: 2756
GlyphClass: 2
Flags: HW
AnchorPoint: "Anchor-2" 1376 3706 basechar 0
AnchorPoint: "Anchor-1" 2650 0 basechar 0
AnchorPoint: "Anchor-0" 1380 0 basechar 0
LayerCount: 2
UndoRedoHistory
Layer: 1
Undoes
UndoOperation
Index: 0
Type: 1
WasModified: 0
WasOrder2: 0
Layer: 2
Width: 1378
VWidth: 2048
LBearingChange: 0
UnicodeEnc: 0
InstructionsLength: 0
EndUndoOperation
UndoOperation
Index: 1
Type: 3
WasModified: 0
WasOrder2: 0
Layer: 2
EndUndoOperation
EndUndoes
Redoes
EndRedoes
EndUndoRedoHistory
Fore
SplineSet
106 0 m 1
 1098 2888 l 1
 1658 2888 l 1
 2650 0 l 1
 2266 0 l 1
 1990 844 l 1
 766 844 l 1
 492 0 l 1
 106 0 l 1
742 3130 m 1
 1172 3706 l 1
 1582 3706 l 1
 2012 3130 l 1
 1668 3130 l 1
 1376 3522 l 1
 1086 3130 l 1
 742 3130 l 1
864 1146 m 1
 1892 1146 l 1
 1388 2682 l 1
 1368 2682 l 1
 864 1146 l 1
EndSplineSet
EndChar

StartChar: Atilde
Encoding: 195 195 128
Width: 2756
GlyphClass: 2
Flags: HW
AnchorPoint: "Anchor-2" 1376 3666 basechar 0
AnchorPoint: "Anchor-1" 2650 0 basechar 0
AnchorPoint: "Anchor-0" 1380 0 basechar 0
LayerCount: 2
UndoRedoHistory
Layer: 1
Undoes
UndoOperation
Index: 0
Type: 1
WasModified: 0
WasOrder2: 0
Layer: 2
Width: 1378
VWidth: 2048
LBearingChange: 0
UnicodeEnc: 0
InstructionsLength: 0
EndUndoOperation
UndoOperation
Index: 1
Type: 3
WasModified: 0
WasOrder2: 0
Layer: 2
EndUndoOperation
EndUndoes
Redoes
EndRedoes
EndUndoRedoHistory
Fore
SplineSet
106 0 m 1
 1098 2888 l 1
 1658 2888 l 1
 2650 0 l 1
 2266 0 l 1
 1990 844 l 1
 766 844 l 1
 492 0 l 1
 106 0 l 1
656 3142 m 1
 656 3304 694 3432 772 3526 c 0
 850 3620 956 3666 1090 3666 c 0
 1148 3666 1208 3652 1268 3620 c 0
 1328 3592 1378 3558 1418 3524 c 0
 1458 3488 1500 3456 1544 3424 c 0
 1590 3396 1628 3380 1662 3380 c 0
 1716 3380 1756 3404 1786 3448 c 0
 1816 3496 1830 3560 1830 3642 c 1
 2098 3642 l 1
 2098 3482 2060 3356 1980 3262 c 0
 1904 3168 1796 3122 1662 3122 c 0
 1604 3122 1546 3136 1488 3166 c 0
 1430 3196 1380 3228 1340 3264 c 0
 1298 3298 1256 3330 1208 3360 c 0
 1164 3390 1124 3404 1090 3404 c 0
 1036 3404 996 3382 966 3336 c 0
 936 3290 922 3226 922 3142 c 1
 656 3142 l 1
864 1146 m 1
 1892 1146 l 1
 1388 2682 l 1
 1368 2682 l 1
 864 1146 l 1
EndSplineSet
EndChar

StartChar: Adieresis
Encoding: 196 196 129
Width: 2756
GlyphClass: 2
Flags: HW
AnchorPoint: "Anchor-2" 1380 3608 basechar 0
AnchorPoint: "Anchor-1" 2650 0 basechar 0
AnchorPoint: "Anchor-0" 1380 0 basechar 0
LayerCount: 2
UndoRedoHistory
Layer: 1
Undoes
UndoOperation
Index: 0
Type: 1
WasModified: 0
WasOrder2: 0
Layer: 2
Width: 1378
VWidth: 2048
LBearingChange: 0
UnicodeEnc: 0
InstructionsLength: 0
EndUndoOperation
UndoOperation
Index: 1
Type: 3
WasModified: 0
WasOrder2: 0
Layer: 2
EndUndoOperation
EndUndoes
Redoes
EndRedoes
EndUndoRedoHistory
Fore
SplineSet
106 0 m 1
 1098 2888 l 1
 1658 2888 l 1
 2650 0 l 1
 2266 0 l 1
 1990 844 l 1
 766 844 l 1
 492 0 l 1
 106 0 l 1
770 3392 m 0
 770 3456 792 3508 832 3548 c 0
 876 3588 926 3608 988 3608 c 0
 1050 3608 1100 3588 1142 3548 c 0
 1184 3508 1204 3456 1204 3392 c 0
 1204 3332 1184 3282 1140 3240 c 0
 1100 3198 1048 3178 988 3178 c 0
 928 3178 876 3198 834 3240 c 0
 792 3282 770 3332 770 3392 c 0
864 1146 m 1
 1892 1146 l 1
 1388 2682 l 1
 1368 2682 l 1
 864 1146 l 1
1552 3392 m 0
 1552 3454 1574 3504 1616 3546 c 0
 1658 3588 1710 3608 1770 3608 c 0
 1830 3608 1880 3588 1924 3548 c 0
 1964 3506 1986 3454 1986 3392 c 0
 1986 3332 1964 3282 1924 3240 c 0
 1880 3198 1830 3178 1770 3178 c 0
 1710 3178 1658 3198 1616 3240 c 0
 1574 3282 1552 3332 1552 3392 c 0
EndSplineSet
EndChar

StartChar: Aring
Encoding: 197 197 130
Width: 2756
GlyphClass: 2
Flags: HW
AnchorPoint: "Anchor-2" 1376 3932 basechar 0
AnchorPoint: "Anchor-1" 2650 0 basechar 0
AnchorPoint: "Anchor-0" 1380 0 basechar 0
LayerCount: 2
UndoRedoHistory
Layer: 1
Undoes
UndoOperation
Index: 0
Type: 1
WasModified: 0
WasOrder2: 0
Layer: 2
Width: 1378
VWidth: 2048
LBearingChange: 0
UnicodeEnc: 0
InstructionsLength: 0
EndUndoOperation
UndoOperation
Index: 1
Type: 3
WasModified: 0
WasOrder2: 0
Layer: 2
EndUndoOperation
EndUndoes
Redoes
EndRedoes
EndUndoRedoHistory
Fore
SplineSet
106 0 m 1
 1098 2888 l 1
 1658 2888 l 1
 2650 0 l 1
 2266 0 l 1
 1990 844 l 1
 766 844 l 1
 492 0 l 1
 106 0 l 1
864 1146 m 1
 1892 1146 l 1
 1388 2682 l 1
 1368 2682 l 1
 864 1146 l 1
906 3580 m 0
 906 3710 950 3816 1040 3900 c 0
 1130 3984 1242 4026 1376 4026 c 0
 1512 4026 1626 3984 1716 3900 c 0
 1806 3816 1852 3710 1852 3580 c 0
 1852 3448 1806 3340 1716 3256 c 0
 1626 3172 1512 3130 1376 3130 c 0
 1242 3130 1130 3172 1040 3256 c 0
 950 3340 906 3448 906 3580 c 0
1150 3580 m 0
 1150 3510 1172 3452 1216 3406 c 0
 1258 3360 1312 3338 1376 3338 c 0
 1442 3338 1498 3360 1540 3404 c 0
 1584 3450 1606 3508 1606 3580 c 0
 1606 3650 1584 3706 1540 3748 c 0
 1498 3792 1442 3814 1376 3814 c 0
 1312 3814 1258 3792 1216 3748 c 0
 1172 3706 1150 3650 1150 3580 c 0
EndSplineSet
EndChar

StartChar: AE
Encoding: 198 198 131
Width: 3698
GlyphClass: 2
Flags: HW
AnchorPoint: "Anchor-2" 2572 2888 basechar 0
AnchorPoint: "Anchor-0" 1860 0 basechar 0
LayerCount: 2
UndoRedoHistory
Layer: 1
Undoes
UndoOperation
Index: 0
Type: 1
WasModified: 0
WasOrder2: 0
Layer: 2
Width: 1849
VWidth: 2048
LBearingChange: 0
UnicodeEnc: 0
InstructionsLength: 0
EndUndoOperation
UndoOperation
Index: 1
Type: 3
WasModified: 0
WasOrder2: 0
Layer: 2
EndUndoOperation
EndUndoes
Redoes
EndRedoes
EndUndoRedoHistory
Fore
SplineSet
114 0 m 1
 1576 2888 l 1
 3462 2888 l 1
 3462 2580 l 1
 2236 2580 l 1
 2236 1680 l 1
 3314 1680 l 1
 3314 1376 l 1
 2236 1376 l 1
 2236 308 l 1
 3466 308 l 1
 3466 0 l 1
 1884 0 l 1
 1884 844 l 1
 934 844 l 1
 520 0 l 1
 114 0 l 1
1082 1146 m 1
 1884 1146 l 1
 1884 2736 l 1
 1864 2736 l 1
 1082 1146 l 1
EndSplineSet
EndChar

StartChar: Ccedilla
Encoding: 199 199 132
Width: 2870
GlyphClass: 2
Flags: HW
AnchorPoint: "Anchor-2" 1548 2888 basechar 0
AnchorPoint: "Anchor-0" 1590 -868 basechar 0
LayerCount: 2
UndoRedoHistory
Layer: 1
Undoes
UndoOperation
Index: 0
Type: 1
WasModified: 0
WasOrder2: 0
Layer: 2
Width: 1435
VWidth: 2048
LBearingChange: 0
UnicodeEnc: 0
InstructionsLength: 0
EndUndoOperation
UndoOperation
Index: 1
Type: 3
WasModified: 0
WasOrder2: 0
Layer: 2
EndUndoOperation
EndUndoes
Redoes
EndRedoes
EndUndoRedoHistory
Fore
SplineSet
1598 -992 m 0
 1472 -992 1352 -970 1236 -926 c 1
 1236 -704 l 1
 1356 -748 1464 -770 1560 -770 c 0
 1724 -770 1806 -712 1806 -598 c 0
 1806 -540 1788 -498 1750 -472 c 0
 1712 -444 1654 -430 1572 -430 c 0
 1516 -430 1458 -434 1400 -442 c 1
 1438 -66 l 1
 1074 -48 782 98 560 372 c 0
 340 646 230 1002 230 1442 c 0
 230 1900 348 2268 582 2542 c 0
 816 2816 1126 2954 1512 2954 c 0
 2110 2954 2496 2692 2674 2170 c 1
 2326 2052 l 1
 2200 2442 1928 2638 1512 2638 c 0
 1232 2638 1012 2532 848 2316 c 0
 688 2104 606 1812 606 1442 c 0
 606 1072 688 782 850 568 c 0
 1012 356 1234 250 1516 250 c 0
 1926 250 2198 446 2330 840 c 1
 2674 724 l 1
 2508 250 2180 -12 1688 -62 c 1
 1668 -234 l 1
 1700 -234 l 2
 1824 -234 1922 -264 1992 -328 c 0
 2062 -388 2098 -476 2098 -590 c 0
 2098 -716 2054 -814 1968 -884 c 0
 1880 -956 1756 -992 1598 -992 c 0
EndSplineSet
EndChar

StartChar: Egrave
Encoding: 200 200 133
Width: 2314
GlyphClass: 2
Flags: HW
AnchorPoint: "Anchor-2" 1048 3706 basechar 0
AnchorPoint: "Anchor-1" 2080 0 basechar 0
AnchorPoint: "Anchor-0" 1270 0 basechar 0
LayerCount: 2
UndoRedoHistory
Layer: 1
Undoes
UndoOperation
Index: 0
Type: 1
WasModified: 0
WasOrder2: 0
Layer: 2
Width: 1157
VWidth: 2048
LBearingChange: 0
UnicodeEnc: 0
InstructionsLength: 0
EndUndoOperation
UndoOperation
Index: 1
Type: 3
WasModified: 0
WasOrder2: 0
Layer: 2
EndUndoOperation
EndUndoes
Redoes
EndRedoes
EndUndoRedoHistory
Fore
SplineSet
336 0 m 1
 336 2888 l 1
 2080 2888 l 1
 2080 2580 l 1
 696 2580 l 1
 696 1680 l 1
 1872 1680 l 1
 1872 1376 l 1
 696 1376 l 1
 696 308 l 1
 2080 308 l 1
 2080 0 l 1
 336 0 l 1
660 3706 m 1
 1032 3706 l 1
 1434 3130 l 1
 1082 3130 l 1
 660 3706 l 1
EndSplineSet
EndChar

StartChar: Eacute
Encoding: 201 201 134
Width: 2314
GlyphClass: 2
Flags: HW
AnchorPoint: "Anchor-2" 1470 3706 basechar 0
AnchorPoint: "Anchor-1" 2080 0 basechar 0
AnchorPoint: "Anchor-0" 1270 0 basechar 0
LayerCount: 2
UndoRedoHistory
Layer: 1
Undoes
UndoOperation
Index: 0
Type: 1
WasModified: 0
WasOrder2: 0
Layer: 2
Width: 1157
VWidth: 2048
LBearingChange: 0
UnicodeEnc: 0
InstructionsLength: 0
EndUndoOperation
UndoOperation
Index: 1
Type: 3
WasModified: 0
WasOrder2: 0
Layer: 2
EndUndoOperation
EndUndoes
Redoes
EndRedoes
EndUndoRedoHistory
Fore
SplineSet
336 0 m 1
 336 2888 l 1
 2080 2888 l 1
 2080 2580 l 1
 696 2580 l 1
 696 1680 l 1
 1872 1680 l 1
 1872 1376 l 1
 696 1376 l 1
 696 308 l 1
 2080 308 l 1
 2080 0 l 1
 336 0 l 1
1082 3130 m 1
 1482 3706 l 1
 1856 3706 l 1
 1434 3130 l 1
 1082 3130 l 1
EndSplineSet
EndChar

StartChar: Ecircumflex
Encoding: 202 202 135
Width: 2314
GlyphClass: 2
Flags: HW
AnchorPoint: "Anchor-2" 1258 3706 basechar 0
AnchorPoint: "Anchor-1" 2080 0 basechar 0
AnchorPoint: "Anchor-0" 1270 0 basechar 0
LayerCount: 2
UndoRedoHistory
Layer: 1
Undoes
UndoOperation
Index: 0
Type: 1
WasModified: 0
WasOrder2: 0
Layer: 2
Width: 1157
VWidth: 2048
LBearingChange: 0
UnicodeEnc: 0
InstructionsLength: 0
EndUndoOperation
UndoOperation
Index: 1
Type: 3
WasModified: 0
WasOrder2: 0
Layer: 2
EndUndoOperation
EndUndoes
Redoes
EndRedoes
EndUndoRedoHistory
Fore
SplineSet
336 0 m 1
 336 2888 l 1
 2080 2888 l 1
 2080 2580 l 1
 696 2580 l 1
 696 1680 l 1
 1872 1680 l 1
 1872 1376 l 1
 696 1376 l 1
 696 308 l 1
 2080 308 l 1
 2080 0 l 1
 336 0 l 1
622 3130 m 1
 1052 3706 l 1
 1462 3706 l 1
 1892 3130 l 1
 1548 3130 l 1
 1258 3522 l 1
 966 3130 l 1
 622 3130 l 1
EndSplineSet
EndChar

StartChar: Edieresis
Encoding: 203 203 136
Width: 2314
GlyphClass: 2
Flags: HW
AnchorPoint: "Anchor-2" 1262 3608 basechar 0
AnchorPoint: "Anchor-1" 2080 0 basechar 0
AnchorPoint: "Anchor-0" 1270 0 basechar 0
LayerCount: 2
UndoRedoHistory
Layer: 1
Undoes
UndoOperation
Index: 0
Type: 1
WasModified: 0
WasOrder2: 0
Layer: 2
Width: 1157
VWidth: 2048
LBearingChange: 0
UnicodeEnc: 0
InstructionsLength: 0
EndUndoOperation
UndoOperation
Index: 1
Type: 3
WasModified: 0
WasOrder2: 0
Layer: 2
EndUndoOperation
EndUndoes
Redoes
EndRedoes
EndUndoRedoHistory
Fore
SplineSet
336 0 m 1
 336 2888 l 1
 2080 2888 l 1
 2080 2580 l 1
 696 2580 l 1
 696 1680 l 1
 1872 1680 l 1
 1872 1376 l 1
 696 1376 l 1
 696 308 l 1
 2080 308 l 1
 2080 0 l 1
 336 0 l 1
652 3392 m 0
 652 3456 672 3508 714 3548 c 0
 756 3588 806 3608 868 3608 c 0
 930 3608 980 3588 1024 3548 c 0
 1064 3508 1086 3456 1086 3392 c 0
 1086 3332 1064 3282 1022 3240 c 0
 980 3198 928 3178 868 3178 c 0
 808 3178 756 3198 716 3240 c 0
 672 3282 652 3332 652 3392 c 0
1434 3392 m 0
 1434 3454 1456 3506 1496 3548 c 0
 1540 3588 1590 3608 1650 3608 c 0
 1710 3608 1762 3588 1804 3546 c 0
 1846 3504 1868 3454 1868 3392 c 0
 1868 3332 1846 3282 1804 3240 c 0
 1762 3198 1710 3178 1650 3178 c 0
 1590 3178 1540 3198 1496 3240 c 0
 1456 3282 1434 3332 1434 3392 c 0
EndSplineSet
EndChar

StartChar: Igrave
Encoding: 204 204 137
Width: 1032
GlyphClass: 2
Flags: HW
AnchorPoint: "Anchor-2" 308 3706 basechar 0
AnchorPoint: "Anchor-1" 696 0 basechar 0
AnchorPoint: "Anchor-0" 516 0 basechar 0
LayerCount: 2
UndoRedoHistory
Layer: 1
Undoes
UndoOperation
Index: 0
Type: 1
WasModified: 0
WasOrder2: 0
Layer: 2
Width: 516
VWidth: 2048
LBearingChange: 0
UnicodeEnc: 0
InstructionsLength: 0
EndUndoOperation
UndoOperation
Index: 1
Type: 3
WasModified: 0
WasOrder2: 0
Layer: 2
EndUndoOperation
EndUndoes
Redoes
EndRedoes
EndUndoRedoHistory
Fore
SplineSet
336 0 m 1
 336 2888 l 1
 696 2888 l 1
 696 0 l 1
 336 0 l 1
-82 3706 m 1
 290 3706 l 1
 692 3130 l 1
 340 3130 l 1
 -82 3706 l 1
EndSplineSet
Substitution2: "'ss02' Style Set 2 in Latin lookup 26 subtable" Igrave.ss01
Substitution2: "'ss01' Style Set 1 in Latin lookup 25 subtable" Igrave.ss01
Substitution2: "'aalt' Access All Alternates in Latin lookup 0 subtable" Igrave.ss01
EndChar

StartChar: Iacute
Encoding: 205 205 138
Width: 1032
GlyphClass: 2
Flags: HW
AnchorPoint: "Anchor-2" 724 3706 basechar 0
AnchorPoint: "Anchor-1" 696 0 basechar 0
AnchorPoint: "Anchor-0" 516 0 basechar 0
LayerCount: 2
UndoRedoHistory
Layer: 1
Undoes
UndoOperation
Index: 0
Type: 1
WasModified: 0
WasOrder2: 0
Layer: 2
Width: 516
VWidth: 2048
LBearingChange: 0
UnicodeEnc: 0
InstructionsLength: 0
EndUndoOperation
UndoOperation
Index: 1
Type: 3
WasModified: 0
WasOrder2: 0
Layer: 2
EndUndoOperation
EndUndoes
Redoes
EndRedoes
EndUndoRedoHistory
Fore
SplineSet
336 0 m 1
 336 2888 l 1
 696 2888 l 1
 696 0 l 1
 336 0 l 1
336 3130 m 1
 738 3706 l 1
 1110 3706 l 1
 688 3130 l 1
 336 3130 l 1
EndSplineSet
Substitution2: "'ss02' Style Set 2 in Latin lookup 26 subtable" Iacute.ss01
Substitution2: "'ss01' Style Set 1 in Latin lookup 25 subtable" Iacute.ss01
Substitution2: "'aalt' Access All Alternates in Latin lookup 0 subtable" Iacute.ss01
EndChar

StartChar: Icircumflex
Encoding: 206 206 139
Width: 1032
GlyphClass: 2
Flags: HW
AnchorPoint: "Anchor-2" 516 3706 basechar 0
AnchorPoint: "Anchor-1" 696 0 basechar 0
AnchorPoint: "Anchor-0" 516 0 basechar 0
LayerCount: 2
UndoRedoHistory
Layer: 1
Undoes
UndoOperation
Index: 0
Type: 1
WasModified: 0
WasOrder2: 0
Layer: 2
Width: 516
VWidth: 2048
LBearingChange: 0
UnicodeEnc: 0
InstructionsLength: 0
EndUndoOperation
UndoOperation
Index: 1
Type: 3
WasModified: 0
WasOrder2: 0
Layer: 2
EndUndoOperation
EndUndoes
Redoes
EndRedoes
EndUndoRedoHistory
Fore
SplineSet
336 0 m 1
 336 2888 l 1
 696 2888 l 1
 696 0 l 1
 336 0 l 1
-118 3130 m 1
 312 3706 l 1
 720 3706 l 1
 1150 3130 l 1
 806 3130 l 1
 516 3522 l 1
 226 3130 l 1
 -118 3130 l 1
EndSplineSet
Substitution2: "'ss02' Style Set 2 in Latin lookup 26 subtable" Icircumflex.ss01
Substitution2: "'ss01' Style Set 1 in Latin lookup 25 subtable" Icircumflex.ss01
Substitution2: "'aalt' Access All Alternates in Latin lookup 0 subtable" Icircumflex.ss01
EndChar

StartChar: Idieresis
Encoding: 207 207 140
Width: 1032
GlyphClass: 2
Flags: HW
AnchorPoint: "Anchor-2" 516 3608 basechar 0
AnchorPoint: "Anchor-1" 696 0 basechar 0
AnchorPoint: "Anchor-0" 516 0 basechar 0
LayerCount: 2
UndoRedoHistory
Layer: 1
Undoes
UndoOperation
Index: 0
Type: 1
WasModified: 0
WasOrder2: 0
Layer: 2
Width: 516
VWidth: 2048
LBearingChange: 0
UnicodeEnc: 0
InstructionsLength: 0
EndUndoOperation
UndoOperation
Index: 1
Type: 3
WasModified: 0
WasOrder2: 0
Layer: 2
EndUndoOperation
EndUndoes
Redoes
EndRedoes
EndUndoRedoHistory
Fore
SplineSet
336 0 m 1
 336 2888 l 1
 696 2888 l 1
 696 0 l 1
 336 0 l 1
-94 3392 m 0
 -94 3456 -74 3508 -32 3548 c 0
 10 3588 60 3608 122 3608 c 0
 184 3608 236 3588 276 3548 c 0
 320 3508 340 3456 340 3392 c 0
 340 3332 318 3282 276 3240 c 0
 234 3198 182 3178 122 3178 c 0
 62 3178 12 3198 -32 3240 c 0
 -72 3282 -94 3332 -94 3392 c 0
688 3392 m 0
 688 3454 710 3504 752 3546 c 0
 794 3588 846 3608 906 3608 c 0
 966 3608 1016 3588 1060 3548 c 0
 1100 3506 1122 3454 1122 3392 c 0
 1122 3332 1100 3282 1060 3240 c 0
 1016 3198 966 3178 906 3178 c 0
 846 3178 794 3198 752 3240 c 0
 710 3282 688 3332 688 3392 c 0
EndSplineSet
Substitution2: "'ss02' Style Set 2 in Latin lookup 26 subtable" Idieresis.ss01
Substitution2: "'ss01' Style Set 1 in Latin lookup 25 subtable" Idieresis.ss01
Substitution2: "'aalt' Access All Alternates in Latin lookup 0 subtable" Idieresis.ss01
EndChar

StartChar: Eth
Encoding: 208 208 141
Width: 2870
GlyphClass: 2
Flags: HW
AnchorPoint: "Anchor-2" 1278 2888 basechar 0
AnchorPoint: "Anchor-0" 1434 0 basechar 0
LayerCount: 2
UndoRedoHistory
Layer: 1
Undoes
UndoOperation
Index: 0
Type: 1
WasModified: 0
WasOrder2: 0
Layer: 2
Width: 1435
VWidth: 2048
LBearingChange: 0
UnicodeEnc: 0
InstructionsLength: 0
EndUndoOperation
UndoOperation
Index: 1
Type: 3
WasModified: 0
WasOrder2: 0
Layer: 2
EndUndoOperation
EndUndoes
Redoes
EndRedoes
EndUndoRedoHistory
Fore
SplineSet
336 0 m 1
 336 1324 l 1
 32 1324 l 1
 32 1568 l 1
 336 1568 l 1
 336 2888 l 1
 1168 2888 l 2
 1628 2888 1988 2760 2250 2506 c 0
 2512 2252 2642 1898 2642 1446 c 0
 2642 990 2512 636 2252 380 c 0
 1990 128 1630 0 1168 0 c 2
 336 0 l 1
696 312 m 1
 1160 312 l 2
 1514 312 1788 410 1980 606 c 0
 2170 802 2266 1080 2266 1442 c 0
 2266 1804 2170 2082 1980 2280 c 0
 1788 2478 1514 2576 1160 2576 c 2
 696 2576 l 1
 696 1568 l 1
 1474 1568 l 1
 1474 1324 l 1
 696 1324 l 1
 696 312 l 1
EndSplineSet
EndChar

StartChar: Ntilde
Encoding: 209 209 142
Width: 2882
GlyphClass: 2
Flags: HW
AnchorPoint: "Anchor-2" 1576 3666 basechar 0
AnchorPoint: "Anchor-0" 1442 0 basechar 0
LayerCount: 2
UndoRedoHistory
Layer: 1
Undoes
UndoOperation
Index: 0
Type: 1
WasModified: 0
WasOrder2: 0
Layer: 2
Width: 1441
VWidth: 2048
LBearingChange: 0
UnicodeEnc: 0
InstructionsLength: 0
EndUndoOperation
UndoOperation
Index: 1
Type: 3
WasModified: 0
WasOrder2: 0
Layer: 2
EndUndoOperation
EndUndoes
Redoes
EndRedoes
EndUndoRedoHistory
Fore
SplineSet
336 0 m 1
 336 2888 l 1
 958 2888 l 1
 2188 230 l 1
 2204 230 l 1
 2204 2888 l 1
 2548 2888 l 1
 2548 0 l 1
 1926 0 l 1
 696 2658 l 1
 680 2658 l 1
 680 0 l 1
 336 0 l 1
856 3142 m 1
 856 3304 894 3432 972 3526 c 0
 1050 3620 1156 3666 1290 3666 c 0
 1348 3666 1408 3652 1468 3620 c 0
 1528 3592 1578 3558 1618 3524 c 0
 1658 3488 1700 3456 1746 3424 c 0
 1792 3396 1830 3380 1864 3380 c 0
 1918 3380 1958 3404 1988 3448 c 0
 2018 3496 2032 3560 2032 3642 c 1
 2298 3642 l 1
 2298 3482 2260 3356 2182 3262 c 0
 2104 3168 1998 3122 1864 3122 c 0
 1806 3122 1748 3136 1688 3166 c 0
 1630 3196 1580 3228 1540 3264 c 0
 1500 3298 1456 3330 1410 3360 c 0
 1364 3390 1324 3404 1290 3404 c 0
 1236 3404 1196 3382 1166 3336 c 0
 1136 3290 1122 3226 1122 3142 c 1
 856 3142 l 1
EndSplineSet
EndChar

StartChar: Ograve
Encoding: 210 210 143
Width: 3136
GlyphClass: 2
Flags: HW
AnchorPoint: "Anchor-3" 2012 2888 basechar 0
AnchorPoint: "Anchor-2" 1360 3706 basechar 0
AnchorPoint: "Anchor-1" 2174 0 basechar 0
AnchorPoint: "Anchor-0" 1568 0 basechar 0
LayerCount: 2
UndoRedoHistory
Layer: 1
Undoes
UndoOperation
Index: 0
Type: 1
WasModified: 0
WasOrder2: 0
Layer: 2
Width: 1568
VWidth: 2048
LBearingChange: 0
UnicodeEnc: 0
InstructionsLength: 0
EndUndoOperation
UndoOperation
Index: 1
Type: 3
WasModified: 0
WasOrder2: 0
Layer: 2
EndUndoOperation
EndUndoes
Redoes
EndRedoes
EndUndoRedoHistory
Fore
SplineSet
1568 -70 m 0
 1166 -70 842 68 596 344 c 0
 352 622 230 988 230 1442 c 0
 230 1742 286 2008 396 2236 c 0
 506 2468 664 2644 866 2770 c 0
 1068 2896 1302 2958 1568 2958 c 0
 1970 2958 2294 2820 2540 2540 c 0
 2786 2264 2908 1896 2908 1442 c 0
 2908 988 2786 622 2540 344 c 0
 2294 68 1970 -70 1568 -70 c 0
606 1442 m 0
 606 1088 694 800 872 580 c 0
 1050 360 1282 250 1568 250 c 0
 1854 250 2086 360 2264 580 c 0
 2440 800 2528 1088 2528 1442 c 0
 2528 1796 2440 2084 2264 2306 c 0
 2086 2528 1854 2638 1568 2638 c 0
 1282 2638 1050 2528 872 2306 c 0
 694 2084 606 1796 606 1442 c 0
970 3706 m 1
 1344 3706 l 1
 1744 3130 l 1
 1392 3130 l 1
 970 3706 l 1
EndSplineSet
EndChar

StartChar: Oacute
Encoding: 211 211 144
Width: 3136
GlyphClass: 2
Flags: HW
AnchorPoint: "Anchor-3" 2012 2888 basechar 0
AnchorPoint: "Anchor-2" 1782 3706 basechar 0
AnchorPoint: "Anchor-1" 2174 0 basechar 0
AnchorPoint: "Anchor-0" 1568 0 basechar 0
LayerCount: 2
UndoRedoHistory
Layer: 1
Undoes
UndoOperation
Index: 0
Type: 1
WasModified: 0
WasOrder2: 0
Layer: 2
Width: 1568
VWidth: 2048
LBearingChange: 0
UnicodeEnc: 0
InstructionsLength: 0
EndUndoOperation
UndoOperation
Index: 1
Type: 3
WasModified: 0
WasOrder2: 0
Layer: 2
EndUndoOperation
EndUndoes
Redoes
EndRedoes
EndUndoRedoHistory
Fore
SplineSet
1568 -70 m 0
 1166 -70 842 68 596 344 c 0
 352 622 230 988 230 1442 c 0
 230 1742 286 2008 396 2236 c 0
 506 2468 664 2644 866 2770 c 0
 1068 2896 1302 2958 1568 2958 c 0
 1970 2958 2294 2820 2540 2540 c 0
 2786 2264 2908 1896 2908 1442 c 0
 2908 988 2786 622 2540 344 c 0
 2294 68 1970 -70 1568 -70 c 0
606 1442 m 0
 606 1088 694 800 872 580 c 0
 1050 360 1282 250 1568 250 c 0
 1854 250 2086 360 2264 580 c 0
 2440 800 2528 1088 2528 1442 c 0
 2528 1796 2440 2084 2264 2306 c 0
 2086 2528 1854 2638 1568 2638 c 0
 1282 2638 1050 2528 872 2306 c 0
 694 2084 606 1796 606 1442 c 0
1392 3130 m 1
 1794 3706 l 1
 2166 3706 l 1
 1744 3130 l 1
 1392 3130 l 1
EndSplineSet
EndChar

StartChar: Ocircumflex
Encoding: 212 212 145
Width: 3136
GlyphClass: 2
Flags: HW
AnchorPoint: "Anchor-3" 2012 2888 basechar 0
AnchorPoint: "Anchor-2" 1568 3706 basechar 0
AnchorPoint: "Anchor-1" 2174 0 basechar 0
AnchorPoint: "Anchor-0" 1568 0 basechar 0
LayerCount: 2
UndoRedoHistory
Layer: 1
Undoes
UndoOperation
Index: 0
Type: 1
WasModified: 0
WasOrder2: 0
Layer: 2
Width: 1568
VWidth: 2048
LBearingChange: 0
UnicodeEnc: 0
InstructionsLength: 0
EndUndoOperation
UndoOperation
Index: 1
Type: 3
WasModified: 0
WasOrder2: 0
Layer: 2
EndUndoOperation
EndUndoes
Redoes
EndRedoes
EndUndoRedoHistory
Fore
SplineSet
1568 -70 m 0
 1166 -70 842 68 596 344 c 0
 352 622 230 988 230 1442 c 0
 230 1742 286 2008 396 2236 c 0
 506 2468 664 2644 866 2770 c 0
 1068 2896 1302 2958 1568 2958 c 0
 1970 2958 2294 2820 2540 2540 c 0
 2786 2264 2908 1896 2908 1442 c 0
 2908 988 2786 622 2540 344 c 0
 2294 68 1970 -70 1568 -70 c 0
606 1442 m 0
 606 1088 694 800 872 580 c 0
 1050 360 1282 250 1568 250 c 0
 1854 250 2086 360 2264 580 c 0
 2440 800 2528 1088 2528 1442 c 0
 2528 1796 2440 2084 2264 2306 c 0
 2086 2528 1854 2638 1568 2638 c 0
 1282 2638 1050 2528 872 2306 c 0
 694 2084 606 1796 606 1442 c 0
934 3130 m 1
 1364 3706 l 1
 1774 3706 l 1
 2204 3130 l 1
 1860 3130 l 1
 1568 3522 l 1
 1278 3130 l 1
 934 3130 l 1
EndSplineSet
EndChar

StartChar: Otilde
Encoding: 213 213 146
Width: 3136
GlyphClass: 2
Flags: HW
AnchorPoint: "Anchor-3" 2012 2888 basechar 0
AnchorPoint: "Anchor-2" 1568 3666 basechar 0
AnchorPoint: "Anchor-1" 2174 0 basechar 0
AnchorPoint: "Anchor-0" 1568 0 basechar 0
LayerCount: 2
UndoRedoHistory
Layer: 1
Undoes
UndoOperation
Index: 0
Type: 1
WasModified: 0
WasOrder2: 0
Layer: 2
Width: 1568
VWidth: 2048
LBearingChange: 0
UnicodeEnc: 0
InstructionsLength: 0
EndUndoOperation
UndoOperation
Index: 1
Type: 3
WasModified: 0
WasOrder2: 0
Layer: 2
EndUndoOperation
EndUndoes
Redoes
EndRedoes
EndUndoRedoHistory
Fore
SplineSet
1568 -70 m 0
 1166 -70 842 68 596 344 c 0
 352 622 230 988 230 1442 c 0
 230 1742 286 2008 396 2236 c 0
 506 2468 664 2644 866 2770 c 0
 1068 2896 1302 2958 1568 2958 c 0
 1970 2958 2294 2820 2540 2540 c 0
 2786 2264 2908 1896 2908 1442 c 0
 2908 988 2786 622 2540 344 c 0
 2294 68 1970 -70 1568 -70 c 0
606 1442 m 0
 606 1088 694 800 872 580 c 0
 1050 360 1282 250 1568 250 c 0
 1854 250 2086 360 2264 580 c 0
 2440 800 2528 1088 2528 1442 c 0
 2528 1796 2440 2084 2264 2306 c 0
 2086 2528 1854 2638 1568 2638 c 0
 1282 2638 1050 2528 872 2306 c 0
 694 2084 606 1796 606 1442 c 0
848 3142 m 1
 848 3304 886 3432 964 3526 c 0
 1042 3620 1148 3666 1282 3666 c 0
 1340 3666 1400 3652 1460 3620 c 0
 1520 3592 1570 3558 1610 3524 c 0
 1650 3488 1692 3456 1738 3424 c 0
 1784 3396 1822 3380 1856 3380 c 0
 1910 3380 1950 3404 1980 3448 c 0
 2010 3496 2024 3560 2024 3642 c 1
 2290 3642 l 1
 2290 3482 2252 3356 2174 3262 c 0
 2096 3168 1990 3122 1856 3122 c 0
 1798 3122 1740 3136 1680 3166 c 0
 1622 3196 1572 3228 1532 3264 c 0
 1492 3298 1448 3330 1402 3360 c 0
 1356 3390 1316 3404 1282 3404 c 0
 1228 3404 1188 3382 1158 3336 c 0
 1128 3290 1114 3226 1114 3142 c 1
 848 3142 l 1
EndSplineSet
EndChar

StartChar: Odieresis
Encoding: 214 214 147
Width: 3136
GlyphClass: 2
Flags: HW
AnchorPoint: "Anchor-3" 2012 2888 basechar 0
AnchorPoint: "Anchor-2" 1568 3608 basechar 0
AnchorPoint: "Anchor-1" 2174 0 basechar 0
AnchorPoint: "Anchor-0" 1568 0 basechar 0
LayerCount: 2
UndoRedoHistory
Layer: 1
Undoes
UndoOperation
Index: 0
Type: 1
WasModified: 0
WasOrder2: 0
Layer: 2
Width: 1568
VWidth: 2048
LBearingChange: 0
UnicodeEnc: 0
InstructionsLength: 0
EndUndoOperation
UndoOperation
Index: 1
Type: 3
WasModified: 0
WasOrder2: 0
Layer: 2
EndUndoOperation
EndUndoes
Redoes
EndRedoes
EndUndoRedoHistory
Fore
SplineSet
1568 -70 m 0
 1166 -70 842 68 596 344 c 0
 352 622 230 988 230 1442 c 0
 230 1742 286 2008 396 2236 c 0
 506 2468 664 2644 866 2770 c 0
 1068 2896 1302 2958 1568 2958 c 0
 1970 2958 2294 2820 2540 2540 c 0
 2786 2264 2908 1896 2908 1442 c 0
 2908 988 2786 622 2540 344 c 0
 2294 68 1970 -70 1568 -70 c 0
606 1442 m 0
 606 1088 694 800 872 580 c 0
 1050 360 1282 250 1568 250 c 0
 1854 250 2086 360 2264 580 c 0
 2440 800 2528 1088 2528 1442 c 0
 2528 1796 2440 2084 2264 2306 c 0
 2086 2528 1854 2638 1568 2638 c 0
 1282 2638 1050 2528 872 2306 c 0
 694 2084 606 1796 606 1442 c 0
958 3392 m 0
 958 3456 980 3508 1020 3548 c 0
 1064 3588 1114 3608 1176 3608 c 0
 1238 3608 1288 3588 1330 3548 c 0
 1372 3508 1392 3456 1392 3392 c 0
 1392 3332 1372 3282 1328 3240 c 0
 1288 3198 1236 3178 1176 3178 c 0
 1116 3178 1064 3198 1022 3240 c 0
 980 3282 958 3332 958 3392 c 0
1740 3392 m 0
 1740 3454 1762 3504 1804 3546 c 0
 1846 3588 1898 3608 1958 3608 c 0
 2018 3608 2068 3588 2112 3548 c 0
 2152 3506 2174 3454 2174 3392 c 0
 2174 3332 2152 3282 2112 3240 c 0
 2068 3198 2018 3178 1958 3178 c 0
 1898 3178 1846 3198 1804 3240 c 0
 1762 3282 1740 3332 1740 3392 c 0
EndSplineSet
EndChar

StartChar: multiply
Encoding: 215 215 148
Width: 2784
GlyphClass: 2
Flags: HW
LayerCount: 2
UndoRedoHistory
Layer: 1
Undoes
UndoOperation
Index: 0
Type: 1
WasModified: 0
WasOrder2: 0
Layer: 2
Width: 1392
VWidth: 2048
LBearingChange: 0
UnicodeEnc: 0
InstructionsLength: 0
EndUndoOperation
UndoOperation
Index: 1
Type: 3
WasModified: 0
WasOrder2: 0
Layer: 2
EndUndoOperation
EndUndoes
Redoes
EndRedoes
EndUndoRedoHistory
Fore
SplineSet
2094 2016 m 1
 2302 1802 l 1
 1606 1106 l 1
 2314 394 l 1
 2106 180 l 1
 1392 892 l 1
 692 196 l 1
 484 406 l 1
 1184 1106 l 1
 472 1814 l 1
 680 2032 l 1
 1392 1314 l 1
 2094 2016 l 1
EndSplineSet
Substitution2: "Single Substitution lookup 34 subtable" multiply.case
Substitution2: "'case' Case-Sensitive Forms in Latin lookup 23 subtable" multiply.case
Substitution2: "'aalt' Access All Alternates in Latin lookup 0 subtable" multiply.case
EndChar

StartChar: Oslash
Encoding: 216 216 149
Width: 3136
GlyphClass: 2
Flags: HW
AnchorPoint: "Anchor-3" 2012 2888 basechar 0
AnchorPoint: "Anchor-2" 1598 2888 basechar 0
AnchorPoint: "Anchor-1" 2174 0 basechar 0
AnchorPoint: "Anchor-0" 1598 0 basechar 0
LayerCount: 2
UndoRedoHistory
Layer: 1
Undoes
UndoOperation
Index: 0
Type: 1
WasModified: 0
WasOrder2: 0
Layer: 2
Width: 1568
VWidth: 2048
LBearingChange: 0
UnicodeEnc: 0
InstructionsLength: 0
EndUndoOperation
UndoOperation
Index: 1
Type: 3
WasModified: 0
WasOrder2: 0
Layer: 2
EndUndoOperation
EndUndoes
Redoes
EndRedoes
EndUndoRedoHistory
Fore
SplineSet
1568 -70 m 0
 1230 -70 942 32 704 238 c 1
 500 0 l 1
 140 0 l 1
 520 438 l 1
 326 704 230 1038 230 1442 c 0
 230 1742 286 2008 396 2236 c 0
 506 2468 664 2644 866 2770 c 0
 1068 2896 1302 2958 1568 2958 c 0
 1908 2958 2196 2856 2434 2650 c 1
 2638 2888 l 1
 2998 2888 l 1
 2618 2446 l 1
 2812 2176 2908 1840 2908 1442 c 0
 2908 988 2786 622 2540 344 c 0
 2294 68 1970 -70 1568 -70 c 0
606 1442 m 0
 606 1166 660 928 770 730 c 1
 2200 2380 l 1
 2028 2552 1818 2638 1568 2638 c 0
 1282 2638 1050 2528 872 2306 c 0
 694 2084 606 1796 606 1442 c 0
938 508 m 1
 1110 336 1320 250 1568 250 c 0
 1854 250 2086 360 2264 580 c 0
 2440 800 2528 1088 2528 1442 c 0
 2528 1718 2474 1956 2364 2154 c 1
 938 508 l 1
EndSplineSet
EndChar

StartChar: Ugrave
Encoding: 217 217 150
Width: 2882
GlyphClass: 2
Flags: HW
AnchorPoint: "Anchor-3" 2166 2888 basechar 0
AnchorPoint: "Anchor-2" 1232 3706 basechar 0
AnchorPoint: "Anchor-1" 2016 0 basechar 0
AnchorPoint: "Anchor-0" 1442 0 basechar 0
LayerCount: 2
UndoRedoHistory
Layer: 1
Undoes
UndoOperation
Index: 0
Type: 1
WasModified: 0
WasOrder2: 0
Layer: 2
Width: 1441
VWidth: 2048
LBearingChange: 0
UnicodeEnc: 0
InstructionsLength: 0
EndUndoOperation
UndoOperation
Index: 1
Type: 3
WasModified: 0
WasOrder2: 0
Layer: 2
EndUndoOperation
EndUndoes
Redoes
EndRedoes
EndUndoRedoHistory
Fore
SplineSet
1450 -70 m 0
 1106 -70 834 30 636 228 c 0
 436 426 336 686 336 1004 c 2
 336 2888 l 1
 716 2888 l 1
 716 1032 l 2
 716 802 782 616 912 476 c 0
 1042 332 1222 262 1450 262 c 0
 1674 262 1850 332 1976 474 c 0
 2102 616 2166 802 2166 1032 c 2
 2166 2888 l 1
 2548 2888 l 1
 2548 1004 l 2
 2548 686 2450 426 2252 228 c 0
 2056 30 1788 -70 1450 -70 c 0
844 3706 m 1
 1216 3706 l 1
 1618 3130 l 1
 1266 3130 l 1
 844 3706 l 1
EndSplineSet
EndChar

StartChar: Uacute
Encoding: 218 218 151
Width: 2882
GlyphClass: 2
Flags: HW
AnchorPoint: "Anchor-3" 2166 2888 basechar 0
AnchorPoint: "Anchor-2" 1654 3706 basechar 0
AnchorPoint: "Anchor-1" 2016 0 basechar 0
AnchorPoint: "Anchor-0" 1442 0 basechar 0
LayerCount: 2
UndoRedoHistory
Layer: 1
Undoes
UndoOperation
Index: 0
Type: 1
WasModified: 0
WasOrder2: 0
Layer: 2
Width: 1441
VWidth: 2048
LBearingChange: 0
UnicodeEnc: 0
InstructionsLength: 0
EndUndoOperation
UndoOperation
Index: 1
Type: 3
WasModified: 0
WasOrder2: 0
Layer: 2
EndUndoOperation
EndUndoes
Redoes
EndRedoes
EndUndoRedoHistory
Fore
SplineSet
1450 -70 m 0
 1106 -70 834 30 636 228 c 0
 436 426 336 686 336 1004 c 2
 336 2888 l 1
 716 2888 l 1
 716 1032 l 2
 716 802 782 616 912 476 c 0
 1042 332 1222 262 1450 262 c 0
 1674 262 1850 332 1976 474 c 0
 2102 616 2166 802 2166 1032 c 2
 2166 2888 l 1
 2548 2888 l 1
 2548 1004 l 2
 2548 686 2450 426 2252 228 c 0
 2056 30 1788 -70 1450 -70 c 0
1266 3130 m 1
 1668 3706 l 1
 2040 3706 l 1
 1618 3130 l 1
 1266 3130 l 1
EndSplineSet
EndChar

StartChar: Ucircumflex
Encoding: 219 219 152
Width: 2882
GlyphClass: 2
Flags: HW
AnchorPoint: "Anchor-3" 2166 2888 basechar 0
AnchorPoint: "Anchor-2" 1442 3706 basechar 0
AnchorPoint: "Anchor-1" 2016 0 basechar 0
AnchorPoint: "Anchor-0" 1442 0 basechar 0
LayerCount: 2
UndoRedoHistory
Layer: 1
Undoes
UndoOperation
Index: 0
Type: 1
WasModified: 0
WasOrder2: 0
Layer: 2
Width: 1441
VWidth: 2048
LBearingChange: 0
UnicodeEnc: 0
InstructionsLength: 0
EndUndoOperation
UndoOperation
Index: 1
Type: 3
WasModified: 0
WasOrder2: 0
Layer: 2
EndUndoOperation
EndUndoes
Redoes
EndRedoes
EndUndoRedoHistory
Fore
SplineSet
1450 -70 m 0
 1106 -70 834 30 636 228 c 0
 436 426 336 686 336 1004 c 2
 336 2888 l 1
 716 2888 l 1
 716 1032 l 2
 716 802 782 616 912 476 c 0
 1042 332 1222 262 1450 262 c 0
 1674 262 1850 332 1976 474 c 0
 2102 616 2166 802 2166 1032 c 2
 2166 2888 l 1
 2548 2888 l 1
 2548 1004 l 2
 2548 686 2450 426 2252 228 c 0
 2056 30 1788 -70 1450 -70 c 0
806 3130 m 1
 1236 3706 l 1
 1646 3706 l 1
 2076 3130 l 1
 1732 3130 l 1
 1442 3522 l 1
 1150 3130 l 1
 806 3130 l 1
EndSplineSet
EndChar

StartChar: Udieresis
Encoding: 220 220 153
Width: 2882
GlyphClass: 2
Flags: HW
AnchorPoint: "Anchor-3" 2166 2888 basechar 0
AnchorPoint: "Anchor-2" 1446 3608 basechar 0
AnchorPoint: "Anchor-1" 2016 0 basechar 0
AnchorPoint: "Anchor-0" 1442 0 basechar 0
LayerCount: 2
UndoRedoHistory
Layer: 1
Undoes
UndoOperation
Index: 0
Type: 1
WasModified: 0
WasOrder2: 0
Layer: 2
Width: 1441
VWidth: 2048
LBearingChange: 0
UnicodeEnc: 0
InstructionsLength: 0
EndUndoOperation
UndoOperation
Index: 1
Type: 3
WasModified: 0
WasOrder2: 0
Layer: 2
EndUndoOperation
EndUndoes
Redoes
EndRedoes
EndUndoRedoHistory
Fore
SplineSet
1450 -70 m 0
 1106 -70 834 30 636 228 c 0
 436 426 336 686 336 1004 c 2
 336 2888 l 1
 716 2888 l 1
 716 1032 l 2
 716 802 782 616 912 476 c 0
 1042 332 1222 262 1450 262 c 0
 1674 262 1850 332 1976 474 c 0
 2102 616 2166 802 2166 1032 c 2
 2166 2888 l 1
 2548 2888 l 1
 2548 1004 l 2
 2548 686 2450 426 2252 228 c 0
 2056 30 1788 -70 1450 -70 c 0
836 3392 m 0
 836 3456 856 3508 898 3548 c 0
 940 3588 990 3608 1052 3608 c 0
 1114 3608 1164 3588 1208 3548 c 0
 1248 3508 1270 3456 1270 3392 c 0
 1270 3332 1248 3282 1206 3240 c 0
 1164 3198 1112 3178 1052 3178 c 0
 992 3178 940 3198 900 3240 c 0
 856 3282 836 3332 836 3392 c 0
1618 3392 m 0
 1618 3454 1640 3504 1682 3546 c 0
 1724 3588 1776 3608 1836 3608 c 0
 1896 3608 1948 3588 1988 3548 c 0
 2032 3506 2052 3454 2052 3392 c 0
 2052 3332 2032 3282 1988 3240 c 0
 1948 3198 1896 3178 1836 3178 c 0
 1776 3178 1724 3198 1682 3240 c 0
 1640 3282 1618 3332 1618 3392 c 0
EndSplineSet
EndChar

StartChar: Yacute
Encoding: 221 221 154
Width: 2592
GlyphClass: 2
Flags: HW
AnchorPoint: "Anchor-2" 1508 3706 basechar 0
AnchorPoint: "Anchor-0" 1298 0 basechar 0
LayerCount: 2
UndoRedoHistory
Layer: 1
Undoes
UndoOperation
Index: 0
Type: 1
WasModified: 0
WasOrder2: 0
Layer: 2
Width: 1296
VWidth: 2048
LBearingChange: 0
UnicodeEnc: 0
InstructionsLength: 0
EndUndoOperation
UndoOperation
Index: 1
Type: 3
WasModified: 0
WasOrder2: 0
Layer: 2
EndUndoOperation
EndUndoes
Redoes
EndRedoes
EndUndoRedoHistory
Fore
SplineSet
1114 0 m 1
 1114 1192 l 1
 98 2888 l 1
 516 2888 l 1
 1286 1508 l 1
 1306 1508 l 1
 2076 2888 l 1
 2494 2888 l 1
 1478 1192 l 1
 1478 0 l 1
 1114 0 l 1
1118 3130 m 1
 1520 3706 l 1
 1892 3706 l 1
 1470 3130 l 1
 1118 3130 l 1
EndSplineSet
EndChar

StartChar: Thorn
Encoding: 222 222 155
Width: 2554
GlyphClass: 2
Flags: HW
LayerCount: 2
UndoRedoHistory
Layer: 1
Undoes
UndoOperation
Index: 0
Type: 1
WasModified: 0
WasOrder2: 0
Layer: 2
Width: 1277
VWidth: 2048
LBearingChange: 0
UnicodeEnc: 0
InstructionsLength: 0
EndUndoOperation
UndoOperation
Index: 1
Type: 3
WasModified: 0
WasOrder2: 0
Layer: 2
EndUndoOperation
EndUndoes
Redoes
EndRedoes
EndUndoRedoHistory
Fore
SplineSet
1372 2384 m 2
 1678 2384 1922 2306 2108 2148 c 0
 2292 1992 2384 1778 2384 1508 c 0
 2384 1238 2292 1026 2106 868 c 0
 1920 712 1676 634 1372 634 c 2
 696 634 l 1
 696 0 l 1
 336 0 l 1
 336 2888 l 1
 696 2888 l 1
 696 2384 l 1
 1372 2384 l 2
696 938 m 1
 1318 938 l 2
 1540 938 1712 986 1834 1080 c 0
 1956 1174 2016 1318 2016 1508 c 0
 2016 1700 1956 1844 1834 1938 c 0
 1712 2032 1540 2080 1318 2080 c 2
 696 2080 l 1
 696 938 l 1
EndSplineSet
EndChar

StartChar: germandbls
Encoding: 223 223 156
Width: 2468
GlyphClass: 2
Flags: HW
LayerCount: 2
UndoRedoHistory
Layer: 1
Undoes
UndoOperation
Index: 0
Type: 1
WasModified: 0
WasOrder2: 0
Layer: 2
Width: 1234
VWidth: 2048
LBearingChange: 0
UnicodeEnc: 0
InstructionsLength: 0
EndUndoOperation
UndoOperation
Index: 1
Type: 3
WasModified: 0
WasOrder2: 0
Layer: 2
EndUndoOperation
EndUndoes
Redoes
EndRedoes
EndUndoRedoHistory
Fore
SplineSet
1376 -40 m 0
 1254 -40 1146 -28 1052 -4 c 1
 1052 290 l 1
 1134 266 1230 254 1340 254 c 0
 1534 254 1682 302 1788 400 c 0
 1894 496 1946 634 1946 816 c 0
 1946 1200 1718 1392 1262 1392 c 2
 1094 1392 l 1
 1094 1680 l 1
 1228 1680 l 2
 1398 1680 1536 1732 1642 1836 c 0
 1748 1938 1802 2074 1802 2244 c 0
 1802 2404 1754 2528 1656 2614 c 0
 1558 2700 1424 2744 1250 2744 c 0
 1048 2744 898 2688 798 2576 c 0
 698 2466 648 2296 648 2068 c 2
 648 0 l 1
 300 0 l 1
 300 2064 l 2
 300 2374 384 2612 552 2782 c 0
 718 2952 952 3036 1250 3036 c 0
 1524 3036 1740 2966 1904 2828 c 0
 2064 2690 2146 2504 2146 2270 c 0
 2146 2088 2096 1936 1998 1816 c 0
 1900 1692 1766 1616 1598 1582 c 1
 1598 1556 l 1
 1808 1546 1978 1472 2106 1340 c 0
 2234 1204 2298 1026 2298 802 c 0
 2298 542 2214 336 2046 186 c 0
 1878 36 1654 -40 1376 -40 c 0
EndSplineSet
Substitution2: "Single Substitution lookup 31 subtable" uni1E9E
Substitution2: "'aalt' Access All Alternates in Latin lookup 0 subtable" uni1E9E
EndChar

StartChar: agrave
Encoding: 224 224 157
Width: 2232
GlyphClass: 2
Flags: HW
AnchorPoint: "Anchor-2" 922 2924 basechar 0
AnchorPoint: "Anchor-1" 2072 0 basechar 0
AnchorPoint: "Anchor-0" 1122 0 basechar 0
LayerCount: 2
UndoRedoHistory
Layer: 1
Undoes
UndoOperation
Index: 0
Type: 1
WasModified: 0
WasOrder2: 0
Layer: 2
Width: 1116
VWidth: 2048
LBearingChange: 0
UnicodeEnc: 0
InstructionsLength: 0
EndUndoOperation
UndoOperation
Index: 1
Type: 3
WasModified: 0
WasOrder2: 0
Layer: 2
EndUndoOperation
EndUndoes
Redoes
EndRedoes
EndUndoRedoHistory
Fore
SplineSet
1704 0 m 1
 1582 344 l 1
 1560 344 l 1
 1498 224 1410 128 1296 56 c 0
 1180 -14 1052 -50 910 -50 c 0
 694 -50 520 6 388 120 c 0
 258 234 192 384 192 570 c 0
 192 748 256 894 388 1008 c 0
 516 1124 702 1198 942 1232 c 2
 1564 1318 l 1
 1564 1470 l 2
 1564 1612 1524 1724 1444 1808 c 0
 1366 1888 1248 1930 1094 1930 c 0
 954 1930 842 1900 760 1842 c 0
 676 1784 616 1690 582 1564 c 1
 254 1658 l 1
 300 1832 400 1968 552 2068 c 0
 704 2166 886 2216 1098 2216 c 0
 1368 2216 1570 2150 1708 2020 c 0
 1844 1888 1912 1702 1912 1462 c 2
 1912 438 l 1
 2072 0 l 1
 1704 0 l 1
446 3118 m 1
 820 3118 l 1
 1270 2442 l 1
 918 2442 l 1
 446 3118 l 1
548 578 m 0
 548 468 586 384 660 322 c 0
 734 260 840 230 974 230 c 0
 1152 230 1296 292 1404 412 c 0
 1510 536 1564 698 1564 902 c 2
 1564 1064 l 1
 1032 992 l 2
 710 952 548 814 548 578 c 0
EndSplineSet
EndChar

StartChar: aacute
Encoding: 225 225 158
Width: 2232
GlyphClass: 2
Flags: HW
AnchorPoint: "Anchor-2" 1274 2970 basechar 0
AnchorPoint: "Anchor-1" 2072 0 basechar 0
AnchorPoint: "Anchor-0" 1122 0 basechar 0
LayerCount: 2
UndoRedoHistory
Layer: 1
Undoes
UndoOperation
Index: 0
Type: 1
WasModified: 0
WasOrder2: 0
Layer: 2
Width: 1116
VWidth: 2048
LBearingChange: 0
UnicodeEnc: 0
InstructionsLength: 0
EndUndoOperation
UndoOperation
Index: 1
Type: 3
WasModified: 0
WasOrder2: 0
Layer: 2
EndUndoOperation
EndUndoes
Redoes
EndRedoes
EndUndoRedoHistory
Fore
SplineSet
1704 0 m 1
 1582 344 l 1
 1560 344 l 1
 1498 224 1410 128 1296 56 c 0
 1180 -14 1052 -50 910 -50 c 0
 694 -50 520 6 388 120 c 0
 258 234 192 384 192 570 c 0
 192 748 256 894 388 1008 c 0
 516 1124 702 1198 942 1232 c 2
 1564 1318 l 1
 1564 1470 l 2
 1564 1612 1524 1724 1444 1808 c 0
 1366 1888 1248 1930 1094 1930 c 0
 954 1930 842 1900 760 1842 c 0
 676 1784 616 1690 582 1564 c 1
 254 1658 l 1
 300 1832 400 1968 552 2068 c 0
 704 2166 886 2216 1098 2216 c 0
 1368 2216 1570 2150 1708 2020 c 0
 1844 1888 1912 1702 1912 1462 c 2
 1912 438 l 1
 2072 0 l 1
 1704 0 l 1
548 578 m 0
 548 468 586 384 660 322 c 0
 734 260 840 230 974 230 c 0
 1152 230 1296 292 1404 412 c 0
 1510 536 1564 698 1564 902 c 2
 1564 1064 l 1
 1032 992 l 2
 710 952 548 814 548 578 c 0
926 2442 m 1
 1376 3118 l 1
 1748 3118 l 1
 1278 2442 l 1
 926 2442 l 1
EndSplineSet
EndChar

StartChar: acircumflex
Encoding: 226 226 159
Width: 2232
GlyphClass: 2
Flags: HW
AnchorPoint: "Anchor-2" 1102 2998 basechar 0
AnchorPoint: "Anchor-1" 2072 0 basechar 0
AnchorPoint: "Anchor-0" 1122 0 basechar 0
LayerCount: 2
UndoRedoHistory
Layer: 1
Undoes
UndoOperation
Index: 0
Type: 1
WasModified: 0
WasOrder2: 0
Layer: 2
Width: 1116
VWidth: 2048
LBearingChange: 0
UnicodeEnc: 0
InstructionsLength: 0
EndUndoOperation
UndoOperation
Index: 1
Type: 3
WasModified: 0
WasOrder2: 0
Layer: 2
EndUndoOperation
EndUndoes
Redoes
EndRedoes
EndUndoRedoHistory
Fore
SplineSet
1704 0 m 1
 1582 344 l 1
 1560 344 l 1
 1498 224 1410 128 1296 56 c 0
 1180 -14 1052 -50 910 -50 c 0
 694 -50 520 6 388 120 c 0
 258 234 192 384 192 570 c 0
 192 748 256 894 388 1008 c 0
 516 1124 702 1198 942 1232 c 2
 1564 1318 l 1
 1564 1470 l 2
 1564 1612 1524 1724 1444 1808 c 0
 1366 1888 1248 1930 1094 1930 c 0
 954 1930 842 1900 760 1842 c 0
 676 1784 616 1690 582 1564 c 1
 254 1658 l 1
 300 1832 400 1968 552 2068 c 0
 704 2166 886 2216 1098 2216 c 0
 1368 2216 1570 2150 1708 2020 c 0
 1844 1888 1912 1702 1912 1462 c 2
 1912 438 l 1
 2072 0 l 1
 1704 0 l 1
426 2442 m 1
 898 3118 l 1
 1306 3118 l 1
 1778 2442 l 1
 1434 2442 l 1
 1102 2924 l 1
 770 2442 l 1
 426 2442 l 1
548 578 m 0
 548 468 586 384 660 322 c 0
 734 260 840 230 974 230 c 0
 1152 230 1296 292 1404 412 c 0
 1510 536 1564 698 1564 902 c 2
 1564 1064 l 1
 1032 992 l 2
 710 952 548 814 548 578 c 0
EndSplineSet
EndChar

StartChar: atilde
Encoding: 227 227 160
Width: 2232
GlyphClass: 2
Flags: HW
AnchorPoint: "Anchor-2" 1106 2962 basechar 0
AnchorPoint: "Anchor-1" 2072 0 basechar 0
AnchorPoint: "Anchor-0" 1122 0 basechar 0
LayerCount: 2
UndoRedoHistory
Layer: 1
Undoes
UndoOperation
Index: 0
Type: 1
WasModified: 0
WasOrder2: 0
Layer: 2
Width: 1116
VWidth: 2048
LBearingChange: 0
UnicodeEnc: 0
InstructionsLength: 0
EndUndoOperation
UndoOperation
Index: 1
Type: 3
WasModified: 0
WasOrder2: 0
Layer: 2
EndUndoOperation
EndUndoes
Redoes
EndRedoes
EndUndoRedoHistory
Fore
SplineSet
1704 0 m 1
 1582 344 l 1
 1560 344 l 1
 1498 224 1410 128 1296 56 c 0
 1180 -14 1052 -50 910 -50 c 0
 694 -50 520 6 388 120 c 0
 258 234 192 384 192 570 c 0
 192 748 256 894 388 1008 c 0
 516 1124 702 1198 942 1232 c 2
 1564 1318 l 1
 1564 1470 l 2
 1564 1612 1524 1724 1444 1808 c 0
 1366 1888 1248 1930 1094 1930 c 0
 954 1930 842 1900 760 1842 c 0
 676 1784 616 1690 582 1564 c 1
 254 1658 l 1
 300 1832 400 1968 552 2068 c 0
 704 2166 886 2216 1098 2216 c 0
 1368 2216 1570 2150 1708 2020 c 0
 1844 1888 1912 1702 1912 1462 c 2
 1912 438 l 1
 2072 0 l 1
 1704 0 l 1
410 2548 m 1
 410 2716 448 2846 524 2936 c 0
 602 3026 704 3072 832 3072 c 0
 894 3072 954 3056 1012 3028 c 0
 1070 2996 1120 2964 1156 2928 c 0
 1196 2894 1236 2860 1278 2832 c 0
 1320 2800 1358 2786 1388 2786 c 0
 1438 2786 1476 2808 1508 2852 c 0
 1536 2898 1552 2962 1552 3048 c 1
 1818 3048 l 1
 1818 2878 1780 2748 1702 2660 c 0
 1624 2568 1522 2524 1396 2524 c 0
 1334 2524 1274 2540 1216 2568 c 0
 1156 2600 1108 2632 1068 2668 c 0
 1032 2702 992 2736 948 2764 c 0
 908 2796 870 2810 840 2810 c 0
 790 2810 752 2788 720 2744 c 0
 692 2698 676 2634 676 2548 c 1
 410 2548 l 1
548 578 m 0
 548 468 586 384 660 322 c 0
 734 260 840 230 974 230 c 0
 1152 230 1296 292 1404 412 c 0
 1510 536 1564 698 1564 902 c 2
 1564 1064 l 1
 1032 992 l 2
 710 952 548 814 548 578 c 0
EndSplineSet
EndChar

StartChar: adieresis
Encoding: 228 228 161
Width: 2232
GlyphClass: 2
Flags: HW
AnchorPoint: "Anchor-2" 1106 2966 basechar 0
AnchorPoint: "Anchor-1" 2072 0 basechar 0
AnchorPoint: "Anchor-0" 1122 0 basechar 0
LayerCount: 2
UndoRedoHistory
Layer: 1
Undoes
UndoOperation
Index: 0
Type: 1
WasModified: 0
WasOrder2: 0
Layer: 2
Width: 1116
VWidth: 2048
LBearingChange: 0
UnicodeEnc: 0
InstructionsLength: 0
EndUndoOperation
UndoOperation
Index: 1
Type: 3
WasModified: 0
WasOrder2: 0
Layer: 2
EndUndoOperation
EndUndoes
Redoes
EndRedoes
EndUndoRedoHistory
Fore
SplineSet
1704 0 m 1
 1582 344 l 1
 1560 344 l 1
 1498 224 1410 128 1296 56 c 0
 1180 -14 1052 -50 910 -50 c 0
 694 -50 520 6 388 120 c 0
 258 234 192 384 192 570 c 0
 192 748 256 894 388 1008 c 0
 516 1124 702 1198 942 1232 c 2
 1564 1318 l 1
 1564 1470 l 2
 1564 1612 1524 1724 1444 1808 c 0
 1366 1888 1248 1930 1094 1930 c 0
 954 1930 842 1900 760 1842 c 0
 676 1784 616 1690 582 1564 c 1
 254 1658 l 1
 300 1832 400 1968 552 2068 c 0
 704 2166 886 2216 1098 2216 c 0
 1368 2216 1570 2150 1708 2020 c 0
 1844 1888 1912 1702 1912 1462 c 2
 1912 438 l 1
 2072 0 l 1
 1704 0 l 1
472 2798 m 0
 472 2864 492 2916 536 2956 c 0
 576 2998 630 3018 692 3018 c 0
 752 3018 804 2998 846 2956 c 0
 888 2914 910 2862 910 2798 c 0
 910 2736 888 2684 846 2642 c 0
 804 2600 752 2580 692 2580 c 0
 630 2580 578 2600 536 2642 c 0
 494 2684 472 2736 472 2798 c 0
548 578 m 0
 548 468 586 384 660 322 c 0
 734 260 840 230 974 230 c 0
 1152 230 1296 292 1404 412 c 0
 1510 536 1564 698 1564 902 c 2
 1564 1064 l 1
 1032 992 l 2
 710 952 548 814 548 578 c 0
1298 2798 m 0
 1298 2862 1320 2914 1362 2956 c 0
 1404 2998 1456 3018 1516 3018 c 0
 1578 3018 1632 2998 1672 2956 c 0
 1716 2916 1736 2864 1736 2798 c 0
 1736 2736 1714 2684 1672 2642 c 0
 1630 2600 1578 2580 1516 2580 c 0
 1456 2580 1404 2600 1362 2642 c 0
 1320 2684 1298 2736 1298 2798 c 0
EndSplineSet
EndChar

StartChar: aring
Encoding: 229 229 162
Width: 2232
GlyphClass: 2
Flags: HW
AnchorPoint: "Anchor-2" 1106 3252 basechar 0
AnchorPoint: "Anchor-1" 2072 0 basechar 0
AnchorPoint: "Anchor-0" 1122 0 basechar 0
LayerCount: 2
UndoRedoHistory
Layer: 1
Undoes
UndoOperation
Index: 0
Type: 1
WasModified: 0
WasOrder2: 0
Layer: 2
Width: 1116
VWidth: 2048
LBearingChange: 0
UnicodeEnc: 0
InstructionsLength: 0
EndUndoOperation
UndoOperation
Index: 1
Type: 3
WasModified: 0
WasOrder2: 0
Layer: 2
EndUndoOperation
EndUndoes
Redoes
EndRedoes
EndUndoRedoHistory
Fore
SplineSet
1704 0 m 1
 1582 344 l 1
 1560 344 l 1
 1498 224 1410 128 1296 56 c 0
 1180 -14 1052 -50 910 -50 c 0
 694 -50 520 6 388 120 c 0
 258 234 192 384 192 570 c 0
 192 748 256 894 388 1008 c 0
 516 1124 702 1198 942 1232 c 2
 1564 1318 l 1
 1564 1470 l 2
 1564 1612 1524 1724 1444 1808 c 0
 1366 1888 1248 1930 1094 1930 c 0
 954 1930 842 1900 760 1842 c 0
 676 1784 616 1690 582 1564 c 1
 254 1658 l 1
 300 1832 400 1968 552 2068 c 0
 704 2166 886 2216 1098 2216 c 0
 1368 2216 1570 2150 1708 2020 c 0
 1844 1888 1912 1702 1912 1462 c 2
 1912 438 l 1
 2072 0 l 1
 1704 0 l 1
548 578 m 0
 548 468 586 384 660 322 c 0
 734 260 840 230 974 230 c 0
 1152 230 1296 292 1404 412 c 0
 1510 536 1564 698 1564 902 c 2
 1564 1064 l 1
 1032 992 l 2
 710 952 548 814 548 578 c 0
634 2892 m 0
 634 3020 678 3126 768 3212 c 0
 858 3296 970 3338 1106 3338 c 0
 1240 3338 1352 3296 1440 3212 c 0
 1532 3126 1576 3020 1576 2892 c 0
 1576 2760 1532 2652 1442 2568 c 0
 1352 2484 1240 2442 1106 2442 c 0
 970 2442 858 2484 768 2568 c 0
 678 2652 634 2760 634 2892 c 0
880 2892 m 0
 880 2822 902 2764 944 2720 c 0
 988 2676 1042 2654 1106 2654 c 0
 1170 2654 1224 2676 1268 2720 c 0
 1310 2764 1332 2822 1332 2892 c 0
 1332 2962 1310 3018 1268 3060 c 0
 1224 3104 1170 3126 1106 3126 c 0
 1042 3126 988 3104 944 3060 c 0
 902 3018 880 2962 880 2892 c 0
EndSplineSet
EndChar

StartChar: ae
Encoding: 230 230 163
Width: 3588
GlyphClass: 2
Flags: HW
AnchorPoint: "Anchor-2" 1794 2166 basechar 0
AnchorPoint: "Anchor-0" 1794 0 basechar 0
LayerCount: 2
UndoRedoHistory
Layer: 1
Undoes
UndoOperation
Index: 0
Type: 1
WasModified: 0
WasOrder2: 0
Layer: 2
Width: 1794
VWidth: 2048
LBearingChange: 0
UnicodeEnc: 0
InstructionsLength: 0
EndUndoOperation
UndoOperation
Index: 1
Type: 3
WasModified: 0
WasOrder2: 0
Layer: 2
EndUndoOperation
EndUndoes
Redoes
EndRedoes
EndUndoRedoHistory
Fore
SplineSet
1032 992 m 2
 710 952 548 814 548 578 c 0
 548 468 586 384 660 322 c 0
 734 260 840 230 974 230 c 0
 1156 230 1300 292 1404 412 c 0
 1512 536 1564 698 1564 902 c 2
 1564 1064 l 1
 1032 992 l 2
192 570 m 0
 192 748 256 894 388 1008 c 0
 516 1124 702 1198 942 1232 c 2
 1564 1318 l 1
 1564 1430 l 2
 1564 1592 1522 1716 1440 1802 c 0
 1358 1888 1236 1930 1074 1930 c 0
 940 1930 834 1900 752 1842 c 0
 672 1784 616 1692 582 1568 c 1
 254 1654 l 1
 300 1828 396 1966 540 2066 c 0
 688 2166 864 2216 1074 2216 c 0
 1240 2216 1388 2180 1516 2108 c 0
 1646 2034 1736 1936 1790 1814 c 1
 1810 1814 l 1
 1872 1936 1968 2034 2098 2108 c 0
 2228 2180 2370 2216 2524 2216 c 0
 2794 2216 3010 2126 3172 1946 c 0
 3332 1766 3412 1522 3412 1216 c 0
 3412 1146 3408 1078 3400 1012 c 1
 1912 1012 l 1
 1932 498 2154 242 2580 242 c 0
 2702 242 2804 268 2884 322 c 0
 2966 376 3032 458 3084 570 c 1
 3354 446 l 1
 3216 116 2954 -50 2568 -50 c 0
 2366 -50 2194 -6 2056 84 c 0
 1916 172 1816 300 1754 466 c 1
 1728 466 l 1
 1670 310 1572 184 1428 92 c 0
 1288 -4 1120 -50 930 -50 c 0
 708 -50 528 6 394 120 c 0
 260 234 192 384 192 570 c 0
1912 1270 m 1
 3076 1270 l 1
 3072 1488 3020 1654 2918 1768 c 0
 2816 1882 2678 1938 2502 1938 c 0
 2328 1938 2188 1880 2084 1762 c 0
 1982 1644 1924 1480 1912 1270 c 1
EndSplineSet
EndChar

StartChar: ccedilla
Encoding: 231 231 164
Width: 2124
GlyphClass: 2
Flags: HW
AnchorPoint: "Anchor-2" 1184 2166 basechar 0
AnchorPoint: "Anchor-0" 1188 -868 basechar 0
LayerCount: 2
UndoRedoHistory
Layer: 1
Undoes
UndoOperation
Index: 0
Type: 1
WasModified: 0
WasOrder2: 0
Layer: 2
Width: 1062
VWidth: 2048
LBearingChange: 0
UnicodeEnc: 0
InstructionsLength: 0
EndUndoOperation
UndoOperation
Index: 1
Type: 3
WasModified: 0
WasOrder2: 0
Layer: 2
EndUndoOperation
EndUndoes
Redoes
EndRedoes
EndUndoRedoHistory
Fore
SplineSet
1196 -992 m 0
 1072 -992 952 -970 836 -926 c 1
 836 -704 l 1
 956 -748 1064 -770 1160 -770 c 0
 1322 -770 1404 -712 1404 -598 c 0
 1404 -540 1386 -498 1348 -472 c 0
 1312 -444 1254 -430 1172 -430 c 0
 1116 -430 1058 -434 1000 -442 c 1
 1036 -40 l 1
 782 -6 578 110 420 308 c 0
 262 506 184 766 184 1086 c 0
 184 1436 278 1712 464 1912 c 0
 650 2116 886 2216 1172 2216 c 0
 1598 2216 1880 2038 2020 1680 c 1
 1720 1548 l 1
 1662 1676 1588 1770 1500 1832 c 0
 1408 1892 1298 1922 1164 1922 c 0
 1082 1922 1006 1906 932 1872 c 0
 860 1840 794 1792 736 1728 c 0
 678 1662 630 1576 596 1464 c 0
 562 1356 544 1228 544 1086 c 0
 544 944 562 816 596 706 c 0
 632 596 680 508 740 442 c 0
 800 376 866 328 940 296 c 0
 1014 262 1092 246 1176 246 c 0
 1312 246 1424 276 1516 338 c 0
 1604 400 1678 496 1732 626 c 1
 2028 500 l 1
 1898 164 1650 -18 1286 -46 c 1
 1266 -234 l 1
 1298 -234 l 2
 1422 -234 1520 -264 1590 -328 c 0
 1660 -388 1696 -476 1696 -590 c 0
 1696 -716 1652 -814 1564 -884 c 0
 1478 -956 1354 -992 1196 -992 c 0
EndSplineSet
EndChar

StartChar: egrave
Encoding: 232 232 165
Width: 2326
GlyphClass: 2
Flags: HW
AnchorPoint: "Anchor-2" 1020 2924 basechar 0
AnchorPoint: "Anchor-1" 1728 0 basechar 0
AnchorPoint: "Anchor-0" 1168 0 basechar 0
LayerCount: 2
UndoRedoHistory
Layer: 1
Undoes
UndoOperation
Index: 0
Type: 1
WasModified: 0
WasOrder2: 0
Layer: 2
Width: 1163
VWidth: 2048
LBearingChange: 0
UnicodeEnc: 0
InstructionsLength: 0
EndUndoOperation
UndoOperation
Index: 1
Type: 3
WasModified: 0
WasOrder2: 0
Layer: 2
EndUndoOperation
EndUndoes
Redoes
EndRedoes
EndUndoRedoHistory
Fore
SplineSet
1208 -50 m 0
 890 -50 640 54 456 260 c 0
 276 468 184 746 184 1094 c 0
 184 1426 280 1696 468 1904 c 0
 660 2112 900 2216 1192 2216 c 0
 1484 2216 1716 2126 1890 1948 c 0
 2064 1768 2150 1524 2150 1216 c 0
 2150 1142 2148 1074 2142 1012 c 1
 544 1012 l 1
 554 762 618 572 732 440 c 0
 848 308 1014 242 1232 242 c 0
 1502 242 1696 352 1814 570 c 1
 2094 434 l 1
 1944 112 1650 -50 1208 -50 c 0
544 3118 m 1
 918 3118 l 1
 1368 2442 l 1
 1016 2442 l 1
 544 3118 l 1
548 1270 m 1
 1806 1270 l 1
 1800 1480 1742 1644 1632 1762 c 0
 1520 1880 1372 1938 1188 1938 c 0
 1010 1938 862 1884 748 1774 c 0
 634 1664 566 1496 548 1270 c 1
EndSplineSet
EndChar

StartChar: eacute
Encoding: 233 233 166
Width: 2326
GlyphClass: 2
Flags: HW
AnchorPoint: "Anchor-2" 1376 2970 basechar 0
AnchorPoint: "Anchor-1" 1728 0 basechar 0
AnchorPoint: "Anchor-0" 1168 0 basechar 0
LayerCount: 2
UndoRedoHistory
Layer: 1
Undoes
UndoOperation
Index: 0
Type: 1
WasModified: 0
WasOrder2: 0
Layer: 2
Width: 1163
VWidth: 2048
LBearingChange: 0
UnicodeEnc: 0
InstructionsLength: 0
EndUndoOperation
UndoOperation
Index: 1
Type: 3
WasModified: 0
WasOrder2: 0
Layer: 2
EndUndoOperation
EndUndoes
Redoes
EndRedoes
EndUndoRedoHistory
Fore
SplineSet
1208 -50 m 0
 890 -50 640 54 456 260 c 0
 276 468 184 746 184 1094 c 0
 184 1426 280 1696 468 1904 c 0
 660 2112 900 2216 1192 2216 c 0
 1484 2216 1716 2126 1890 1948 c 0
 2064 1768 2150 1524 2150 1216 c 0
 2150 1142 2148 1074 2142 1012 c 1
 544 1012 l 1
 554 762 618 572 732 440 c 0
 848 308 1014 242 1232 242 c 0
 1502 242 1696 352 1814 570 c 1
 2094 434 l 1
 1944 112 1650 -50 1208 -50 c 0
548 1270 m 1
 1806 1270 l 1
 1800 1480 1742 1644 1632 1762 c 0
 1520 1880 1372 1938 1188 1938 c 0
 1010 1938 862 1884 748 1774 c 0
 634 1664 566 1496 548 1270 c 1
1028 2442 m 1
 1478 3118 l 1
 1852 3118 l 1
 1380 2442 l 1
 1028 2442 l 1
EndSplineSet
EndChar

StartChar: ecircumflex
Encoding: 234 234 167
Width: 2326
GlyphClass: 2
Flags: HW
AnchorPoint: "Anchor-2" 1204 2998 basechar 0
AnchorPoint: "Anchor-1" 1728 0 basechar 0
AnchorPoint: "Anchor-0" 1168 0 basechar 0
LayerCount: 2
UndoRedoHistory
Layer: 1
Undoes
UndoOperation
Index: 0
Type: 1
WasModified: 0
WasOrder2: 0
Layer: 2
Width: 1163
VWidth: 2048
LBearingChange: 0
UnicodeEnc: 0
InstructionsLength: 0
EndUndoOperation
UndoOperation
Index: 1
Type: 3
WasModified: 0
WasOrder2: 0
Layer: 2
EndUndoOperation
EndUndoes
Redoes
EndRedoes
EndUndoRedoHistory
Fore
SplineSet
1208 -50 m 0
 890 -50 640 54 456 260 c 0
 276 468 184 746 184 1094 c 0
 184 1426 280 1696 468 1904 c 0
 660 2112 900 2216 1192 2216 c 0
 1484 2216 1716 2126 1890 1948 c 0
 2064 1768 2150 1524 2150 1216 c 0
 2150 1142 2148 1074 2142 1012 c 1
 544 1012 l 1
 554 762 618 572 732 440 c 0
 848 308 1014 242 1232 242 c 0
 1502 242 1696 352 1814 570 c 1
 2094 434 l 1
 1944 112 1650 -50 1208 -50 c 0
528 2442 m 1
 1000 3118 l 1
 1410 3118 l 1
 1880 2442 l 1
 1536 2442 l 1
 1204 2924 l 1
 872 2442 l 1
 528 2442 l 1
548 1270 m 1
 1806 1270 l 1
 1800 1480 1742 1644 1632 1762 c 0
 1520 1880 1372 1938 1188 1938 c 0
 1010 1938 862 1884 748 1774 c 0
 634 1664 566 1496 548 1270 c 1
EndSplineSet
EndChar

StartChar: edieresis
Encoding: 235 235 168
Width: 2326
GlyphClass: 2
Flags: HW
AnchorPoint: "Anchor-2" 1204 2966 basechar 0
AnchorPoint: "Anchor-1" 1728 0 basechar 0
AnchorPoint: "Anchor-0" 1168 0 basechar 0
LayerCount: 2
UndoRedoHistory
Layer: 1
Undoes
UndoOperation
Index: 0
Type: 1
WasModified: 0
WasOrder2: 0
Layer: 2
Width: 1163
VWidth: 2048
LBearingChange: 0
UnicodeEnc: 0
InstructionsLength: 0
EndUndoOperation
UndoOperation
Index: 1
Type: 3
WasModified: 0
WasOrder2: 0
Layer: 2
EndUndoOperation
EndUndoes
Redoes
EndRedoes
EndUndoRedoHistory
Fore
SplineSet
1208 -50 m 0
 890 -50 640 54 456 260 c 0
 276 468 184 746 184 1094 c 0
 184 1426 280 1696 468 1904 c 0
 660 2112 900 2216 1192 2216 c 0
 1484 2216 1716 2126 1890 1948 c 0
 2064 1768 2150 1524 2150 1216 c 0
 2150 1142 2148 1074 2142 1012 c 1
 544 1012 l 1
 554 762 618 572 732 440 c 0
 848 308 1014 242 1232 242 c 0
 1502 242 1696 352 1814 570 c 1
 2094 434 l 1
 1944 112 1650 -50 1208 -50 c 0
548 1270 m 1
 1806 1270 l 1
 1800 1480 1742 1644 1632 1762 c 0
 1520 1880 1372 1938 1188 1938 c 0
 1010 1938 862 1884 748 1774 c 0
 634 1664 566 1496 548 1270 c 1
570 2798 m 0
 570 2864 592 2916 632 2956 c 0
 676 2998 728 3018 790 3018 c 0
 850 3018 902 2998 944 2956 c 0
 986 2914 1008 2862 1008 2798 c 0
 1008 2736 986 2684 944 2642 c 0
 902 2600 850 2580 790 2580 c 0
 728 2580 676 2600 634 2642 c 0
 592 2684 570 2736 570 2798 c 0
1396 2798 m 0
 1396 2862 1418 2914 1460 2956 c 0
 1502 2998 1554 3018 1614 3018 c 0
 1676 3018 1730 2998 1772 2956 c 0
 1814 2916 1836 2864 1836 2798 c 0
 1836 2736 1814 2684 1772 2642 c 0
 1728 2600 1676 2580 1614 2580 c 0
 1554 2580 1502 2600 1460 2642 c 0
 1418 2684 1396 2736 1396 2798 c 0
EndSplineSet
EndChar

StartChar: igrave
Encoding: 236 236 169
Width: 958
GlyphClass: 2
Flags: HW
AnchorPoint: "Anchor-2" 294 2924 basechar 0
AnchorPoint: "Anchor-1" 652 0 basechar 0
AnchorPoint: "Anchor-0" 480 0 basechar 0
LayerCount: 2
UndoRedoHistory
Layer: 1
Undoes
UndoOperation
Index: 0
Type: 1
WasModified: 0
WasOrder2: 0
Layer: 2
Width: 479
VWidth: 2048
LBearingChange: 0
UnicodeEnc: 0
InstructionsLength: 0
EndUndoOperation
UndoOperation
Index: 1
Type: 3
WasModified: 0
WasOrder2: 0
Layer: 2
EndUndoOperation
EndUndoes
Redoes
EndRedoes
EndUndoRedoHistory
Fore
SplineSet
304 0 m 1
 304 2166 l 1
 652 2166 l 1
 652 0 l 1
 304 0 l 1
-180 3118 m 1
 192 3118 l 1
 644 2442 l 1
 290 2442 l 1
 -180 3118 l 1
EndSplineSet
EndChar

StartChar: iacute
Encoding: 237 237 170
Width: 958
GlyphClass: 2
Flags: HW
AnchorPoint: "Anchor-2" 652 2970 basechar 0
AnchorPoint: "Anchor-1" 652 0 basechar 0
AnchorPoint: "Anchor-0" 480 0 basechar 0
LayerCount: 2
UndoRedoHistory
Layer: 1
Undoes
UndoOperation
Index: 0
Type: 1
WasModified: 0
WasOrder2: 0
Layer: 2
Width: 479
VWidth: 2048
LBearingChange: 0
UnicodeEnc: 0
InstructionsLength: 0
EndUndoOperation
UndoOperation
Index: 1
Type: 3
WasModified: 0
WasOrder2: 0
Layer: 2
EndUndoOperation
EndUndoes
Redoes
EndRedoes
EndUndoRedoHistory
Fore
SplineSet
304 0 m 1
 304 2166 l 1
 652 2166 l 1
 652 0 l 1
 304 0 l 1
304 2442 m 1
 754 3118 l 1
 1126 3118 l 1
 656 2442 l 1
 304 2442 l 1
EndSplineSet
EndChar

StartChar: icircumflex
Encoding: 238 238 171
Width: 958
GlyphClass: 2
Flags: HW
AnchorPoint: "Anchor-2" 480 2998 basechar 0
AnchorPoint: "Anchor-1" 652 0 basechar 0
AnchorPoint: "Anchor-0" 480 0 basechar 0
LayerCount: 2
UndoRedoHistory
Layer: 1
Undoes
UndoOperation
Index: 0
Type: 1
WasModified: 0
WasOrder2: 0
Layer: 2
Width: 479
VWidth: 2048
LBearingChange: 0
UnicodeEnc: 0
InstructionsLength: 0
EndUndoOperation
UndoOperation
Index: 1
Type: 3
WasModified: 0
WasOrder2: 0
Layer: 2
EndUndoOperation
EndUndoes
Redoes
EndRedoes
EndUndoRedoHistory
Fore
SplineSet
304 0 m 1
 304 2166 l 1
 652 2166 l 1
 652 0 l 1
 304 0 l 1
-196 2442 m 1
 274 3118 l 1
 684 3118 l 1
 1156 2442 l 1
 812 2442 l 1
 480 2924 l 1
 148 2442 l 1
 -196 2442 l 1
EndSplineSet
EndChar

StartChar: idieresis
Encoding: 239 239 172
Width: 958
GlyphClass: 2
Flags: HW
AnchorPoint: "Anchor-2" 480 2966 basechar 0
AnchorPoint: "Anchor-1" 652 0 basechar 0
AnchorPoint: "Anchor-0" 480 0 basechar 0
LayerCount: 2
UndoRedoHistory
Layer: 1
Undoes
UndoOperation
Index: 0
Type: 1
WasModified: 0
WasOrder2: 0
Layer: 2
Width: 479
VWidth: 2048
LBearingChange: 0
UnicodeEnc: 0
InstructionsLength: 0
EndUndoOperation
UndoOperation
Index: 1
Type: 3
WasModified: 0
WasOrder2: 0
Layer: 2
EndUndoOperation
EndUndoes
Redoes
EndRedoes
EndUndoRedoHistory
Fore
SplineSet
304 0 m 1
 304 2166 l 1
 652 2166 l 1
 652 0 l 1
 304 0 l 1
-156 2798 m 0
 -156 2864 -134 2916 -92 2956 c 0
 -50 2998 4 3018 66 3018 c 0
 126 3018 176 2998 220 2956 c 0
 260 2914 282 2862 282 2798 c 0
 282 2736 260 2684 220 2642 c 0
 176 2600 126 2580 66 2580 c 0
 4 2580 -48 2600 -92 2642 c 0
 -134 2684 -156 2736 -156 2798 c 0
672 2798 m 0
 672 2862 692 2914 736 2956 c 0
 776 2998 828 3018 888 3018 c 0
 950 3018 1004 2998 1046 2956 c 0
 1088 2916 1110 2864 1110 2798 c 0
 1110 2736 1088 2684 1044 2642 c 0
 1002 2600 950 2580 888 2580 c 0
 828 2580 776 2600 736 2642 c 0
 692 2684 672 2736 672 2798 c 0
EndSplineSet
EndChar

StartChar: eth
Encoding: 240 240 173
Width: 2412
GlyphClass: 2
Flags: HW
AnchorPoint: "Anchor-2" 1220 3010 basechar 0
AnchorPoint: "Anchor-0" 1220 0 basechar 0
LayerCount: 2
UndoRedoHistory
Layer: 1
Undoes
UndoOperation
Index: 0
Type: 1
WasModified: 0
WasOrder2: 0
Layer: 2
Width: 1206
VWidth: 2048
LBearingChange: 0
UnicodeEnc: 0
InstructionsLength: 0
EndUndoOperation
UndoOperation
Index: 1
Type: 3
WasModified: 0
WasOrder2: 0
Layer: 2
EndUndoOperation
EndUndoes
Redoes
EndRedoes
EndUndoRedoHistory
Fore
SplineSet
1196 -50 m 0
 892 -50 646 52 460 258 c 0
 274 464 180 736 180 1078 c 0
 180 1412 268 1680 442 1884 c 0
 616 2090 842 2192 1118 2192 c 0
 1412 2192 1636 2056 1794 1786 c 1
 1814 1786 l 1
 1788 1880 1744 1976 1688 2074 c 0
 1628 2172 1530 2314 1388 2502 c 1
 1368 2532 l 1
 746 2338 l 1
 746 2584 l 1
 1216 2728 l 1
 1004 3010 l 1
 1422 3010 l 1
 1552 2830 l 1
 2028 2978 l 1
 2028 2736 l 1
 1700 2634 l 1
 1736 2584 l 2
 1906 2352 2028 2130 2104 1916 c 0
 2178 1702 2216 1474 2216 1228 c 0
 2216 830 2126 516 1948 290 c 0
 1770 64 1518 -50 1196 -50 c 0
544 1078 m 0
 544 822 604 620 724 470 c 0
 842 320 1002 246 1204 246 c 0
 1404 246 1562 320 1678 470 c 0
 1794 620 1852 820 1852 1074 c 0
 1852 1328 1794 1530 1676 1676 c 0
 1558 1822 1400 1896 1200 1896 c 0
 998 1896 838 1822 720 1676 c 0
 602 1528 544 1328 544 1078 c 0
EndSplineSet
EndChar

StartChar: ntilde
Encoding: 241 241 174
Width: 2354
GlyphClass: 2
Flags: HW
AnchorPoint: "Anchor-2" 1180 2962 basechar 0
AnchorPoint: "Anchor-0" 1180 0 basechar 0
LayerCount: 2
UndoRedoHistory
Layer: 1
Undoes
UndoOperation
Index: 0
Type: 1
WasModified: 0
WasOrder2: 0
Layer: 2
Width: 1177
VWidth: 2048
LBearingChange: 0
UnicodeEnc: 0
InstructionsLength: 0
EndUndoOperation
UndoOperation
Index: 1
Type: 3
WasModified: 0
WasOrder2: 0
Layer: 2
EndUndoOperation
EndUndoes
Redoes
EndRedoes
EndUndoRedoHistory
Fore
SplineSet
1724 1384 m 2
 1724 1560 1680 1692 1588 1782 c 0
 1500 1872 1378 1916 1228 1916 c 0
 1054 1916 914 1860 808 1752 c 0
 704 1640 652 1494 652 1310 c 2
 652 0 l 1
 304 0 l 1
 304 2166 l 1
 626 2166 l 1
 626 1782 l 1
 638 1782 l 1
 696 1918 784 2024 900 2100 c 0
 1018 2178 1156 2216 1318 2216 c 0
 1556 2216 1740 2148 1872 2014 c 0
 2006 1880 2072 1684 2072 1426 c 2
 2072 0 l 1
 1724 0 l 1
 1724 1384 l 2
484 2548 m 1
 484 2716 522 2846 600 2936 c 0
 676 3026 778 3072 906 3072 c 0
 968 3072 1028 3056 1086 3028 c 0
 1144 2996 1192 2964 1232 2928 c 0
 1268 2894 1310 2860 1352 2832 c 0
 1394 2800 1432 2786 1462 2786 c 0
 1512 2786 1552 2808 1580 2852 c 0
 1612 2898 1626 2962 1626 3048 c 1
 1892 3048 l 1
 1892 2878 1854 2748 1776 2660 c 0
 1698 2568 1596 2524 1470 2524 c 0
 1408 2524 1348 2540 1288 2568 c 0
 1230 2600 1180 2632 1144 2668 c 0
 1104 2702 1064 2736 1024 2764 c 0
 980 2796 944 2810 914 2810 c 0
 864 2810 824 2788 796 2744 c 0
 764 2698 750 2634 750 2548 c 1
 484 2548 l 1
EndSplineSet
EndChar

StartChar: ograve
Encoding: 242 242 175
Width: 2432
GlyphClass: 2
Flags: HW
AnchorPoint: "Anchor-3" 1548 2166 basechar 0
AnchorPoint: "Anchor-2" 1032 2924 basechar 0
AnchorPoint: "Anchor-1" 1684 0 basechar 0
AnchorPoint: "Anchor-0" 1216 0 basechar 0
LayerCount: 2
UndoRedoHistory
Layer: 1
Undoes
UndoOperation
Index: 0
Type: 1
WasModified: 0
WasOrder2: 0
Layer: 2
Width: 1216
VWidth: 2048
LBearingChange: 0
UnicodeEnc: 0
InstructionsLength: 0
EndUndoOperation
UndoOperation
Index: 1
Type: 3
WasModified: 0
WasOrder2: 0
Layer: 2
EndUndoOperation
EndUndoes
Redoes
EndRedoes
EndUndoRedoHistory
Fore
SplineSet
1216 -50 m 0
 916 -50 668 52 476 260 c 0
 280 464 184 740 184 1082 c 0
 184 1424 280 1700 476 1906 c 0
 668 2112 916 2216 1216 2216 c 0
 1514 2216 1762 2112 1956 1904 c 0
 2150 1698 2248 1424 2248 1082 c 0
 2248 740 2150 466 1956 260 c 0
 1762 54 1514 -50 1216 -50 c 0
544 1082 m 0
 544 808 608 600 734 458 c 0
 860 316 1022 246 1216 246 c 0
 1410 246 1570 316 1696 458 c 0
 1822 600 1884 808 1884 1082 c 0
 1884 1356 1822 1566 1696 1708 c 0
 1570 1850 1410 1922 1216 1922 c 0
 1022 1922 860 1850 734 1708 c 0
 608 1566 544 1356 544 1082 c 0
558 3118 m 1
 930 3118 l 1
 1380 2442 l 1
 1028 2442 l 1
 558 3118 l 1
EndSplineSet
EndChar

StartChar: oacute
Encoding: 243 243 176
Width: 2432
GlyphClass: 2
Flags: HW
AnchorPoint: "Anchor-3" 1548 2166 basechar 0
AnchorPoint: "Anchor-2" 1384 2970 basechar 0
AnchorPoint: "Anchor-1" 1684 0 basechar 0
AnchorPoint: "Anchor-0" 1216 0 basechar 0
LayerCount: 2
UndoRedoHistory
Layer: 1
Undoes
UndoOperation
Index: 0
Type: 1
WasModified: 0
WasOrder2: 0
Layer: 2
Width: 1216
VWidth: 2048
LBearingChange: 0
UnicodeEnc: 0
InstructionsLength: 0
EndUndoOperation
UndoOperation
Index: 1
Type: 3
WasModified: 0
WasOrder2: 0
Layer: 2
EndUndoOperation
EndUndoes
Redoes
EndRedoes
EndUndoRedoHistory
Fore
SplineSet
1216 -50 m 0
 916 -50 668 52 476 260 c 0
 280 464 184 740 184 1082 c 0
 184 1424 280 1700 476 1906 c 0
 668 2112 916 2216 1216 2216 c 0
 1514 2216 1762 2112 1956 1904 c 0
 2150 1698 2248 1424 2248 1082 c 0
 2248 740 2150 466 1956 260 c 0
 1762 54 1514 -50 1216 -50 c 0
544 1082 m 0
 544 808 608 600 734 458 c 0
 860 316 1022 246 1216 246 c 0
 1410 246 1570 316 1696 458 c 0
 1822 600 1884 808 1884 1082 c 0
 1884 1356 1822 1566 1696 1708 c 0
 1570 1850 1410 1922 1216 1922 c 0
 1022 1922 860 1850 734 1708 c 0
 608 1566 544 1356 544 1082 c 0
1036 2442 m 1
 1486 3118 l 1
 1860 3118 l 1
 1388 2442 l 1
 1036 2442 l 1
EndSplineSet
EndChar

StartChar: ocircumflex
Encoding: 244 244 177
Width: 2432
GlyphClass: 2
Flags: HW
AnchorPoint: "Anchor-3" 1548 2166 basechar 0
AnchorPoint: "Anchor-2" 1216 2998 basechar 0
AnchorPoint: "Anchor-1" 1684 0 basechar 0
AnchorPoint: "Anchor-0" 1216 0 basechar 0
LayerCount: 2
UndoRedoHistory
Layer: 1
Undoes
UndoOperation
Index: 0
Type: 1
WasModified: 0
WasOrder2: 0
Layer: 2
Width: 1216
VWidth: 2048
LBearingChange: 0
UnicodeEnc: 0
InstructionsLength: 0
EndUndoOperation
UndoOperation
Index: 1
Type: 3
WasModified: 0
WasOrder2: 0
Layer: 2
EndUndoOperation
EndUndoes
Redoes
EndRedoes
EndUndoRedoHistory
Fore
SplineSet
1216 -50 m 0
 916 -50 668 52 476 260 c 0
 280 464 184 740 184 1082 c 0
 184 1424 280 1700 476 1906 c 0
 668 2112 916 2216 1216 2216 c 0
 1514 2216 1762 2112 1956 1904 c 0
 2150 1698 2248 1424 2248 1082 c 0
 2248 740 2150 466 1956 260 c 0
 1762 54 1514 -50 1216 -50 c 0
540 2442 m 1
 1012 3118 l 1
 1422 3118 l 1
 1892 2442 l 1
 1548 2442 l 1
 1216 2924 l 1
 884 2442 l 1
 540 2442 l 1
544 1082 m 0
 544 808 608 600 734 458 c 0
 860 316 1022 246 1216 246 c 0
 1410 246 1570 316 1696 458 c 0
 1822 600 1884 808 1884 1082 c 0
 1884 1356 1822 1566 1696 1708 c 0
 1570 1850 1410 1922 1216 1922 c 0
 1022 1922 860 1850 734 1708 c 0
 608 1566 544 1356 544 1082 c 0
EndSplineSet
EndChar

StartChar: otilde
Encoding: 245 245 178
Width: 2432
GlyphClass: 2
Flags: HW
AnchorPoint: "Anchor-3" 1548 2166 basechar 0
AnchorPoint: "Anchor-2" 1216 2962 basechar 0
AnchorPoint: "Anchor-1" 1684 0 basechar 0
AnchorPoint: "Anchor-0" 1216 0 basechar 0
LayerCount: 2
UndoRedoHistory
Layer: 1
Undoes
UndoOperation
Index: 0
Type: 1
WasModified: 0
WasOrder2: 0
Layer: 2
Width: 1216
VWidth: 2048
LBearingChange: 0
UnicodeEnc: 0
InstructionsLength: 0
EndUndoOperation
UndoOperation
Index: 1
Type: 3
WasModified: 0
WasOrder2: 0
Layer: 2
EndUndoOperation
EndUndoes
Redoes
EndRedoes
EndUndoRedoHistory
Fore
SplineSet
1216 -50 m 0
 916 -50 668 52 476 260 c 0
 280 464 184 740 184 1082 c 0
 184 1424 280 1700 476 1906 c 0
 668 2112 916 2216 1216 2216 c 0
 1514 2216 1762 2112 1956 1904 c 0
 2150 1698 2248 1424 2248 1082 c 0
 2248 740 2150 466 1956 260 c 0
 1762 54 1514 -50 1216 -50 c 0
520 2548 m 1
 520 2716 558 2846 636 2936 c 0
 712 3026 814 3072 942 3072 c 0
 1004 3072 1064 3056 1124 3028 c 0
 1182 2996 1232 2964 1268 2928 c 0
 1308 2894 1348 2860 1390 2832 c 0
 1432 2800 1470 2786 1500 2786 c 0
 1550 2786 1588 2808 1618 2852 c 0
 1648 2898 1662 2962 1662 3048 c 1
 1930 3048 l 1
 1930 2878 1892 2748 1814 2660 c 0
 1736 2568 1634 2524 1508 2524 c 0
 1446 2524 1386 2540 1328 2568 c 0
 1268 2600 1218 2632 1180 2668 c 0
 1142 2702 1100 2736 1060 2764 c 0
 1016 2796 980 2810 950 2810 c 0
 900 2810 860 2788 832 2744 c 0
 800 2698 786 2634 786 2548 c 1
 520 2548 l 1
544 1082 m 0
 544 808 608 600 734 458 c 0
 860 316 1022 246 1216 246 c 0
 1410 246 1570 316 1696 458 c 0
 1822 600 1884 808 1884 1082 c 0
 1884 1356 1822 1566 1696 1708 c 0
 1570 1850 1410 1922 1216 1922 c 0
 1022 1922 860 1850 734 1708 c 0
 608 1566 544 1356 544 1082 c 0
EndSplineSet
EndChar

StartChar: odieresis
Encoding: 246 246 179
Width: 2432
GlyphClass: 2
Flags: HW
AnchorPoint: "Anchor-3" 1548 2166 basechar 0
AnchorPoint: "Anchor-2" 1216 2966 basechar 0
AnchorPoint: "Anchor-1" 1684 0 basechar 0
AnchorPoint: "Anchor-0" 1216 0 basechar 0
LayerCount: 2
UndoRedoHistory
Layer: 1
Undoes
UndoOperation
Index: 0
Type: 1
WasModified: 0
WasOrder2: 0
Layer: 2
Width: 1216
VWidth: 2048
LBearingChange: 0
UnicodeEnc: 0
InstructionsLength: 0
EndUndoOperation
UndoOperation
Index: 1
Type: 3
WasModified: 0
WasOrder2: 0
Layer: 2
EndUndoOperation
EndUndoes
Redoes
EndRedoes
EndUndoRedoHistory
Fore
SplineSet
1216 -50 m 0
 916 -50 668 52 476 260 c 0
 280 464 184 740 184 1082 c 0
 184 1424 280 1700 476 1906 c 0
 668 2112 916 2216 1216 2216 c 0
 1514 2216 1762 2112 1956 1904 c 0
 2150 1698 2248 1424 2248 1082 c 0
 2248 740 2150 466 1956 260 c 0
 1762 54 1514 -50 1216 -50 c 0
544 1082 m 0
 544 808 608 600 734 458 c 0
 860 316 1022 246 1216 246 c 0
 1410 246 1570 316 1696 458 c 0
 1822 600 1884 808 1884 1082 c 0
 1884 1356 1822 1566 1696 1708 c 0
 1570 1850 1410 1922 1216 1922 c 0
 1022 1922 860 1850 734 1708 c 0
 608 1566 544 1356 544 1082 c 0
582 2798 m 0
 582 2864 604 2916 644 2956 c 0
 688 2998 740 3018 802 3018 c 0
 862 3018 914 2998 956 2956 c 0
 998 2914 1020 2862 1020 2798 c 0
 1020 2736 998 2684 956 2642 c 0
 914 2600 862 2580 802 2580 c 0
 740 2580 688 2600 646 2642 c 0
 604 2684 582 2736 582 2798 c 0
1410 2798 m 0
 1410 2862 1432 2914 1472 2956 c 0
 1516 2998 1566 3018 1626 3018 c 0
 1688 3018 1742 2998 1784 2956 c 0
 1826 2916 1848 2864 1848 2798 c 0
 1848 2736 1826 2684 1784 2642 c 0
 1740 2600 1688 2580 1626 2580 c 0
 1566 2580 1516 2600 1472 2642 c 0
 1432 2684 1410 2736 1410 2798 c 0
EndSplineSet
EndChar

